<svg width="195" height="195" viewBox="0 0 195 195" fill="none" xmlns="http://www.w3.org/2000/svg">
<path d="M97.17 194.34C150.836 194.34 194.34 150.836 194.34 97.17C194.34 43.5045 150.836 0 97.17 0C43.5045 0 0 43.5045 0 97.17C0 150.836 43.5045 194.34 97.17 194.34Z" fill="white"/>
<path d="M64.5938 51.9688H68.4062V53.875C68.4062 55.9814 70.1123 57.6875 72.2188 57.6875H77.6706C76.82 63.8066 73.9558 69.6206 69.5238 74.055C68.0345 75.5419 68.0345 77.9557 69.5238 79.445C71.0107 80.9342 73.4245 80.9342 74.9137 79.445C80.7707 73.5904 84.464 65.82 85.3528 57.6875H119.875C127.233 57.6875 133.219 51.7019 133.219 44.3438C133.219 36.9856 127.233 31 119.875 31H72.2188C70.1123 31 68.4062 32.7061 68.4062 34.8125V36.7188H64.5938C62.4873 36.7188 60.7812 38.4248 60.7812 40.5312V48.1562C60.7812 50.2627 62.4873 51.9688 64.5938 51.9688Z" fill="#5B7A78"/>
<path d="M88.5453 65C88.0771 65 87.688 65.3753 87.6875 65.8435V65.853C87.6875 76.3684 83.2674 86.5049 75.5614 93.6605C66.3065 102.253 61 114.424 61 127.053V141.25C61 147.567 66.1207 152.688 72.4375 152.688H118.188C124.505 152.688 129.625 147.565 129.625 141.248C129.625 103.809 130.55 112.989 121.071 65.691C120.991 65.2902 120.638 65 120.23 65H88.5453Z" fill="#B89473"/>
</svg>
