<svg width="195" height="195" viewBox="0 0 195 195" fill="none" xmlns="http://www.w3.org/2000/svg">
<path d="M97.17 194.34C150.836 194.34 194.34 150.836 194.34 97.17C194.34 43.5045 150.836 0 97.17 0C43.5045 0 0 43.5045 0 97.17C0 150.836 43.5045 194.34 97.17 194.34Z" fill="white"/>
<g clip-path="url(#clip0)">
<path d="M150.05 81.9008C136.491 68.3444 103.922 89.3974 96.8159 113.152C96.4749 114.293 96.7876 115.525 97.6281 116.365L115.585 134.324C116.463 135.194 117.698 135.464 118.797 135.136C142.756 127.969 163.457 95.3108 150.05 81.9008V81.9008Z" fill="#5B7A78"/>
<path d="M110.036 137.921L94.0299 121.914C92.7683 120.652 90.7193 120.652 89.4583 121.914L83.7405 127.63C78.0677 133.305 78.0677 142.537 83.7421 148.209C89.3764 153.859 98.5972 153.931 104.32 148.209L110.036 142.492C111.292 141.238 111.304 139.189 110.036 137.921V137.921Z" fill="#5B7A78"/>
<path d="M88.7309 94.7029C99.3332 83.4695 104.867 62.7415 101.177 47.7294C97.1612 31.395 83.2756 27.3846 71.4094 39.754C60.7172 50.8963 55.13 71.6165 58.7021 86.6583C58.9682 87.7781 59.8233 88.7103 61.0105 89.0343L85.542 95.6062C86.6896 95.9143 87.9147 95.5668 88.7309 94.7029V94.7029Z" fill="#5B7A78"/>
<path d="M84.8221 105.456C85.2834 103.732 84.2596 101.958 82.5345 101.496L60.671 95.6385C58.9459 95.1746 57.1731 96.2 56.7119 97.9243L54.6189 105.733C52.5518 113.448 57.1164 121.458 64.908 123.554C72.677 125.635 80.6474 121.036 82.729 113.265L84.8221 105.456Z" fill="#5B7A78"/>
</g>
<defs>
<clipPath id="clip0">
<rect width="103.467" height="103.467" fill="white" transform="translate(78 26) rotate(30)"/>
</clipPath>
</defs>
</svg>
