<svg width="195" height="195" viewBox="0 0 195 195" fill="none" xmlns="http://www.w3.org/2000/svg">
<path d="M97.17 194.34C150.836 194.34 194.34 150.836 194.34 97.17C194.34 43.5045 150.836 0 97.17 0C43.5045 0 0 43.5045 0 97.17C0 150.836 43.5045 194.34 97.17 194.34Z" fill="white"/>
<path d="M122.226 31.0002H117.018C114.933 31.0002 113.327 32.8396 113.609 34.9054L116.221 54.0757C116.502 56.1415 114.896 57.9809 112.811 57.9809H78.4598C76.4195 57.9809 74.8274 56.2156 75.0376 54.1863L77.0434 34.7948C77.2533 32.7653 75.6612 31 73.6212 31H68.4322C66.6694 31 65.192 32.332 65.0106 34.0854C63.3343 50.289 55.8124 123.001 55.096 129.925L54.6006 134.715L104.842 107.412L129.198 60.1177C129.076 59.2259 126.626 41.243 125.635 33.9759C125.403 32.2712 123.947 31.0002 122.226 31.0002V31.0002Z" fill="#5B7A78"/>
<path d="M129.198 60.1177L54.6003 134.715L54.4716 135.959C53.9715 140.794 57.7647 145 62.6259 145H131.373C136.346 145 140.174 140.608 139.494 135.682L129.198 60.1177Z" fill="#5B7A78"/>
<path d="M125.635 33.9762C125.403 32.2712 123.947 31.0002 122.226 31.0002H118.285L121.45 54.2287H121.45L123.706 70.7819L129.197 60.1177C129.076 59.2259 126.625 41.2433 125.635 33.9762V33.9762Z" fill="#5B7A78"/>
<path d="M129.197 60.1177L123.085 66.2296L132.678 136.622C132.745 137.113 132.546 137.461 132.366 137.667C132.187 137.873 131.869 138.119 131.374 138.119H54.5327C55.1571 141.981 58.5078 145 62.6258 145H131.373C136.346 145 140.174 140.608 139.494 135.682L129.197 60.1177Z" fill="#5B7A78"/>
</svg>
