<svg width="195" height="195" viewBox="0 0 195 195" fill="none" xmlns="http://www.w3.org/2000/svg">
<path d="M97.17 194.34C150.836 194.34 194.34 150.836 194.34 97.17C194.34 43.5045 150.836 0 97.17 0C43.5045 0 0 43.5045 0 97.17C0 150.836 43.5045 194.34 97.17 194.34Z" fill="white"/>
<path d="M76.8095 168.464H114.19C116.231 168.464 118.164 167.534 119.571 165.919C120.975 164.308 121.75 162.142 121.75 159.902V120.841C121.75 118.601 120.975 116.435 119.571 114.824C118.164 113.21 116.231 112.279 114.19 112.279H76.8095C74.7688 112.279 72.8363 113.21 71.4291 114.824C70.0247 116.435 69.25 118.601 69.25 120.841V159.902C69.25 162.142 70.0247 164.308 71.4291 165.919C72.8363 167.534 74.7688 168.464 76.8095 168.464ZM74.9674 118.572C75.4757 117.988 76.1413 117.685 76.8095 117.685H114.19C114.859 117.685 115.524 117.988 116.033 118.572C116.544 119.158 116.845 119.973 116.845 120.841V159.902C116.845 160.77 116.544 161.585 116.033 162.171C115.524 162.755 114.859 163.058 114.19 163.058H76.8095C76.1413 163.058 75.4757 162.755 74.9674 162.171C74.4562 161.585 74.1548 160.77 74.1548 159.902V120.841C74.1548 119.973 74.4562 119.158 74.9674 118.572Z" fill="#B89473" stroke="#B89473" stroke-width="1.5"/>
<path d="M77.2851 92.1322H113.715C115.888 92.1322 117.943 91.1187 119.437 89.3661C120.928 87.6172 121.75 85.2674 121.75 82.8376C121.75 80.4077 120.928 78.0579 119.437 76.309C117.943 74.5565 115.888 73.543 113.715 73.543H77.2851C75.112 73.543 73.0573 74.5565 71.563 76.309C70.0719 78.0579 69.25 80.4077 69.25 82.8376C69.25 85.2674 70.0719 87.6172 71.563 89.3661C73.0573 91.1187 75.112 92.1322 77.2851 92.1322ZM75.1119 80.1079C75.7116 79.4045 76.497 79.0382 77.2851 79.0382H113.715C114.503 79.0382 115.288 79.4045 115.888 80.1079C116.491 80.815 116.845 81.7962 116.845 82.8396C116.845 83.883 116.491 84.8642 115.888 85.5713C115.288 86.2747 114.503 86.6409 113.715 86.6409H77.2851C76.497 86.6409 75.7116 86.2747 75.1119 85.5713C74.5091 84.8642 74.1547 83.883 74.1547 82.8396C74.1547 81.7962 74.5091 80.815 75.1119 80.1079Z" fill="#B89473" stroke="#B89473" stroke-width="1.5"/>
<path d="M113.794 104.664V104.665L113.807 104.664C115.946 104.629 117.972 103.677 119.453 102.039C120.931 100.403 121.75 98.211 121.75 95.9394C121.75 93.6678 120.931 91.4761 119.453 89.84C117.972 88.2018 115.946 87.2501 113.807 87.2145V87.2144H113.794H77.2058V87.2143L77.1933 87.2145C75.0538 87.2501 73.0276 88.2018 71.5474 89.84C70.0691 91.4761 69.25 93.6678 69.25 95.9394C69.25 98.211 70.0691 100.403 71.5474 102.039C73.0276 103.677 75.0538 104.629 77.1933 104.664L77.1933 104.664H77.2058H113.794ZM75.0602 93.4678C75.6407 92.8217 76.4157 92.462 77.2149 92.4414H113.785C114.584 92.462 115.359 92.8217 115.94 93.4678C116.524 94.1182 116.861 95.0046 116.861 95.9394C116.861 96.8741 116.524 97.7606 115.94 98.4109C115.359 99.0571 114.584 99.4168 113.785 99.4373H77.2149C76.4157 99.4168 75.6407 99.0571 75.0602 98.4109C74.4759 97.7606 74.1393 96.8741 74.1393 95.9394C74.1393 95.0046 74.4759 94.1182 75.0602 93.4678Z" fill="#B89473" stroke="#B89473" stroke-width="1.5"/>
<path d="M77.2851 117.197H113.715C115.869 117.197 117.919 116.259 119.42 114.617C120.918 112.976 121.75 110.765 121.75 108.472C121.75 106.178 120.918 103.967 119.42 102.327C117.919 100.684 115.869 99.7466 113.715 99.7466H77.2851C75.131 99.7466 73.0806 100.684 71.58 102.327C70.0815 103.967 69.25 106.178 69.25 108.472C69.25 110.765 70.0815 112.976 71.58 114.617C73.0806 116.259 75.131 117.197 77.2851 117.197ZM75.095 105.974C75.6884 105.324 76.4779 104.974 77.2851 104.974H113.715C114.522 104.974 115.312 105.324 115.905 105.974C116.501 106.626 116.845 107.523 116.845 108.472C116.845 109.42 116.501 110.318 115.905 110.969C115.312 111.619 114.522 111.969 113.715 111.969H77.2851C76.4779 111.969 75.6884 111.619 75.095 110.969C74.4995 110.318 74.1547 109.42 74.1547 108.472C74.1547 107.523 74.4995 106.626 75.095 105.974Z" fill="#B89473" stroke="#B89473" stroke-width="1.5"/>
<path d="M121.75 66.8453C121.751 64.6984 121.07 62.6126 119.817 60.9994C119.817 60.9993 119.817 60.9991 119.817 60.999L105.911 43.0725L105.686 42.7822H105.318H85.6818H85.3144L85.0892 43.0725L71.1833 60.9989C69.9304 62.6113 69.2488 64.6966 69.25 66.8429H70L69.25 66.8433C69.25 66.8432 69.25 66.8431 69.25 66.843V70.8533C69.25 73.1376 70.0216 75.3479 71.4234 76.9941C72.8282 78.644 74.762 79.6001 76.8093 79.6001H114.189L114.189 78.8566V79.6001C115.2 79.6004 116.198 79.3665 117.123 78.9165C118.048 78.4667 118.881 77.8114 119.576 76.9949C120.271 76.1786 120.818 75.2157 121.189 74.1635C121.56 73.1113 121.75 71.9868 121.75 70.8533V66.8453ZM121.75 66.8453L121 66.8449H121.75V66.8453ZM116.707 64.148C117.278 64.8851 117.594 65.8462 117.594 66.8429V70.8513C117.594 71.9117 117.235 72.9287 116.596 73.6786C115.958 74.4284 115.092 74.8497 114.189 74.8497H76.8093C75.9063 74.8497 75.0404 74.4284 74.4019 73.6786C73.7634 72.9287 73.4047 71.9117 73.4047 70.8513V66.8429C73.4044 65.8469 73.7206 64.8866 74.2916 64.15M116.707 64.148L103.815 47.5286M116.707 64.148L116.114 64.6077C116.576 65.2037 116.844 66 116.844 66.8424V66.8429V70.8513C116.844 71.7483 116.539 72.589 116.025 73.1924C115.515 73.792 114.851 74.0997 114.189 74.0997H76.8093C76.1477 74.0997 75.4835 73.792 74.9729 73.1924C74.4591 72.589 74.1547 71.7483 74.1547 70.8513V66.8429V66.8427C74.1544 66.0009 74.4226 65.2053 74.8842 64.6097L74.2916 64.15M116.707 64.148L116.114 64.6074L103.448 48.2787M103.815 47.5286L87.1833 47.5306M103.815 47.5286L103.815 48.2786L103.448 48.2787M103.815 47.5286L103.222 47.9883L103.448 48.2787M87.1833 47.5306L74.2916 64.15M87.1833 47.5306L87.7759 47.9903L87.5507 48.2806M87.1833 47.5306L87.1834 48.2806L87.5507 48.2806M74.2916 64.15L74.8843 64.6094L87.5507 48.2806M103.448 48.2787L87.5507 48.2806" fill="#B89473" stroke="#B89473" stroke-width="1.5"/>
<path d="M82.5528 48.8394H82.554H108.446L108.447 48.8394C109.624 48.8374 110.727 48.2998 111.523 47.3867C112.316 46.4769 112.748 45.2628 112.75 44.0144V44.0134V35.0759V35.075C112.748 33.8265 112.316 32.6125 111.523 31.7026C110.727 30.7896 109.624 30.252 108.447 30.25H108.446L82.554 30.25L82.5528 30.25C81.3764 30.252 80.2733 30.7896 79.4772 31.7026C78.6838 32.6125 78.2516 33.8265 78.25 35.075V35.0759L78.25 44.0134L78.25 44.0144C78.2516 45.2628 78.6838 46.4769 79.4772 47.3867C80.2733 48.2998 81.3764 48.8374 82.5528 48.8394ZM83.1922 35.7009L107.8 35.8241L107.707 43.388L83.1922 43.2671V35.7009Z" fill="#5B7A78" stroke="#5B7A78" stroke-width="1.5"/>
</svg>
