<svg width="159" height="159" viewBox="0 0 159 159" fill="none" xmlns="http://www.w3.org/2000/svg">
<path d="M79.2909 158.582C123.082 158.582 158.582 123.082 158.582 79.2909C158.582 35.4998 123.082 0 79.2909 0C35.4998 0 0 35.4998 0 79.2909C0 123.082 35.4998 158.582 79.2909 158.582Z" fill="white"/>
<path d="M103.791 44.6174H54.7925C49.2645 44.6174 44.7832 49.0987 44.7832 54.6267V120.281C44.7832 125.809 49.2645 130.291 54.7925 130.291H103.791C109.319 130.291 113.8 125.809 113.8 120.281V54.6267C113.8 49.0987 109.319 44.6174 103.791 44.6174Z" fill="#B89473"/>
<path d="M56.4702 81.1572L52.549 85.1492L49.6875 82.1464L57.112 74.6924H61.4925V98.2436H56.4761L56.4702 81.1572Z" fill="#5B7A78"/>
<path d="M78.0892 91.6846L76.0402 93.8748V98.2553H71.5537V74.7042H76.0402V88.7878L82.5168 81.1925H88.0219L81.2509 88.9055L88.2044 98.2318H82.5933L78.0892 91.6846Z" fill="#5B7A78"/>
<path d="M91.3721 99.3862C92.7499 100.905 94.5456 101.506 96.7064 101.506C98.8673 101.506 101.417 100.552 101.417 97.1959V95.4649C100.808 96.2885 100.016 96.9596 99.1034 97.4255C98.1911 97.8913 97.1832 98.1392 96.1589 98.1497C91.8843 98.1497 88.6343 95.1469 88.6343 89.4593C88.6343 83.8777 91.849 80.7689 96.1589 80.7689C97.1781 80.7662 98.184 81.001 99.0967 81.4548C100.009 81.9086 100.804 82.5688 101.417 83.3831V81.1929H105.939V97.0899C105.939 103.566 100.922 105.18 96.7241 105.18C93.7802 105.18 91.5311 104.509 89.3761 102.636L91.3721 99.3862ZM101.381 86.7038C100.933 86.1058 100.353 85.6193 99.6865 85.2822C99.0196 84.9452 98.2838 84.7668 97.5366 84.7609C94.9931 84.7609 93.2268 86.5272 93.2268 89.4711C93.2268 92.415 94.9931 94.1813 97.5366 94.1813C98.2824 94.1676 99.0154 93.9857 99.6811 93.6493C100.347 93.3129 100.928 92.8306 101.381 92.2384V86.7038Z" fill="#5B7A78"/>
<path fill-rule="evenodd" clip-rule="evenodd" d="M52.3979 32.9387H106.184V47.1177H52.3979V32.9387ZM57.3979 37.9387V42.1177H101.184V37.9387H57.3979Z" fill="#B89473"/>
<path d="M102.372 28.2849H56.2054C53.9845 28.2849 52.1841 30.0853 52.1841 32.3063V34.3493C52.1841 36.5703 53.9845 38.3707 56.2054 38.3707H102.372C104.593 38.3707 106.393 36.5703 106.393 34.3493V32.3063C106.393 30.0853 104.593 28.2849 102.372 28.2849Z" fill="#5B7A78"/>
</svg>
