<?xml version="1.0" encoding="utf-8"?>
<!-- Generator: Adobe Illustrator 25.2.1, SVG Export Plug-In . SVG Version: 6.00 Build 0)  -->
<svg version="1.1" id="Layer_1" xmlns="http://www.w3.org/2000/svg" xmlns:xlink="http://www.w3.org/1999/xlink" x="0px" y="0px"
	 viewBox="0 0 159 159" style="enable-background:new 0 0 159 159;" xml:space="preserve">
<style type="text/css">
	.st0{fill:#FFFFFF;}
	.st1{fill:#B89473;}
	.st2{fill:#5B7A78;}
</style>
<g>
	<rect x="57.4" y="38.4" class="st0" width="43.8" height="3.7"/>
	<path class="st0" d="M79.3,0C35.5,0,0,35.5,0,79.3s35.5,79.3,79.3,79.3c43.8,0,79.3-35.5,79.3-79.3S123.1,0,79.3,0z M113.8,120.3
		c0,5.5-4.5,10-10,10h-49c-5.5,0-10-4.5-10-10V54.6c0-4.7,3.2-8.6,7.6-9.7v-9.3c-0.1-0.4-0.2-0.8-0.2-1.2v-2c0-2.2,1.8-4,4-4h46.2
		c2.2,0,4,1.8,4,4v2c0,0.4-0.1,0.8-0.2,1.2v9.3c4.4,1.1,7.6,5,7.6,9.7V120.3z"/>
	<path class="st1" d="M106.2,44.9v-9.3c-0.5,1.6-2,2.8-3.8,2.8h-1.2v3.7H57.4v-3.7h-1.2c-1.8,0-3.3-1.2-3.8-2.8v9.3
		c-4.4,1.1-7.6,5-7.6,9.7v65.7c0,5.5,4.5,10,10,10h49c5.5,0,10-4.5,10-10V54.6C113.8,49.9,110.6,46,106.2,44.9z M61.5,98.2h-5
		l0-17.1l-3.9,4l-2.9-3l7.4-7.5h4.4V98.2z M82.6,98.2l-4.5-6.5l-2,2.2v4.4h-4.5V74.7H76v14.1l6.5-7.6H88l-6.8,7.7l7,9.3H82.6z
		 M105.9,97.1c0,6.5-5,8.1-9.2,8.1c-2.9,0-5.2-0.7-7.3-2.5l2-3.2c1.4,1.5,3.2,2.1,5.3,2.1c2.2,0,4.7-1,4.7-4.3v-1.7
		c-0.6,0.8-1.4,1.5-2.3,2c-0.9,0.5-1.9,0.7-2.9,0.7c-4.3,0-7.5-3-7.5-8.7c0-5.6,3.2-8.7,7.5-8.7c1,0,2,0.2,2.9,0.7
		c0.9,0.5,1.7,1.1,2.3,1.9v-2.2h4.5V97.1z"/>
	<path class="st1" d="M99.7,85.3c-0.7-0.3-1.4-0.5-2.1-0.5c-2.5,0-4.3,1.8-4.3,4.7c0,2.9,1.8,4.7,4.3,4.7c0.7,0,1.5-0.2,2.1-0.5
		c0.7-0.3,1.2-0.8,1.7-1.4v-5.5C100.9,86.1,100.4,85.6,99.7,85.3z"/>
	<polygon class="st2" points="49.7,82.1 52.5,85.1 56.5,81.2 56.5,98.2 61.5,98.2 61.5,74.7 57.1,74.7 	"/>
	<polygon class="st2" points="88,81.2 82.5,81.2 76,88.8 76,74.7 71.6,74.7 71.6,98.3 76,98.3 76,93.9 78.1,91.7 82.6,98.2 
		88.2,98.2 81.3,88.9 	"/>
	<path class="st2" d="M101.4,83.4c-0.6-0.8-1.4-1.5-2.3-1.9c-0.9-0.5-1.9-0.7-2.9-0.7c-4.3,0-7.5,3.1-7.5,8.7c0,5.7,3.2,8.7,7.5,8.7
		c1,0,2-0.3,2.9-0.7c0.9-0.5,1.7-1.1,2.3-2v1.7c0,3.4-2.5,4.3-4.7,4.3c-2.2,0-4-0.6-5.3-2.1l-2,3.2c2.2,1.9,4.4,2.5,7.3,2.5
		c4.2,0,9.2-1.6,9.2-8.1V81.2h-4.5V83.4z M101.4,92.2c-0.5,0.6-1,1.1-1.7,1.4c-0.7,0.3-1.4,0.5-2.1,0.5c-2.5,0-4.3-1.8-4.3-4.7
		c0-2.9,1.8-4.7,4.3-4.7c0.7,0,1.5,0.2,2.1,0.5c0.7,0.3,1.2,0.8,1.7,1.4V92.2z"/>
	<path class="st2" d="M56.2,38.4h1.2h43.8h1.2c1.8,0,3.3-1.2,3.8-2.8c0.1-0.4,0.2-0.8,0.2-1.2v-2c0-2.2-1.8-4-4-4H56.2
		c-2.2,0-4,1.8-4,4v2c0,0.4,0.1,0.8,0.2,1.2C52.9,37.2,54.4,38.4,56.2,38.4z"/>
</g>
</svg>
