<?xml version="1.0" encoding="utf-8"?>
<!-- Generator: Adobe Illustrator 25.2.1, SVG Export Plug-In . SVG Version: 6.00 Build 0)  -->
<svg version="1.1" id="Layer_1" xmlns="http://www.w3.org/2000/svg" xmlns:xlink="http://www.w3.org/1999/xlink" x="0px" y="0px"
	 viewBox="0 0 24.2 19.6" style="enable-background:new 0 0 24.2 19.6;" xml:space="preserve">
<style type="text/css">
	.st0{fill:#EADDD0;}
</style>
<g>
	<polygon class="st0" points="24.2,2.6 24.2,0.1 19.5,0.1 19.5,0.1 19.5,0.1 18.7,3 0,3 3.4,15.3 18.4,15.3 21.6,3 21.6,3 21.7,2.6 
			"/>
	<path class="st0" d="M6.4,15.4c-1.2,0-2.1,0.9-2.1,2.1c0,1.2,0.9,2.1,2.1,2.1c1.2,0,2.1-0.9,2.1-2.1C8.5,16.3,7.6,15.4,6.4,15.4z"
		/>
	<path class="st0" d="M14.9,15.4c-1.2,0-2.1,0.9-2.1,2.1c0,1.2,0.9,2.1,2.1,2.1c1.2,0,2.1-0.9,2.1-2.1C17,16.3,16.1,15.4,14.9,15.4z
		"/>
</g>
</svg>
