<?xml version="1.0" encoding="utf-8"?>
<!-- Generator: Adobe Illustrator 25.2.1, SVG Export Plug-In . SVG Version: 6.00 Build 0)  -->
<svg version="1.1" id="Layer_1" xmlns="http://www.w3.org/2000/svg" xmlns:xlink="http://www.w3.org/1999/xlink" x="0px" y="0px"
	 viewBox="0 0 160 159" style="enable-background:new 0 0 160 159;" xml:space="preserve">
<style type="text/css">
	.st0{fill:#FFFFFF;}
	.st1{fill:#B89473;}
	.st2{fill:#5B7A74;}
</style>
<g>
	<path class="st0" d="M97.8,67c-3.4,2.1-7.1,3.8-11,5c-3.3,1-6.6,1.6-10,1.9c0,0,0,0,0,0c0,0,0,0,0,0.1c-1.4-2.6-3.2-5-5.3-7
		c-1.7-1.6-3.7-3.1-5.7-4.2c1.6,1.9,3.1,3.9,4.7,5.9c2.1,2.7,4,5.3,5.9,7.9c4,0,7.9-0.8,11.5-2.4C91.6,72.5,95,70.1,97.8,67z"/>
	<path class="st0" d="M80.2,0C36.3,0,0.7,35.6,0.7,79.5c0,43.9,35.6,79.5,79.5,79.5c43.9,0,79.5-35.6,79.5-79.5
		C159.7,35.6,124.1,0,80.2,0z M75.3,118.8H48.6v-6.4c-9.7-9.8-17.1-16.8-22.9-21.8c-1.5-1.3-4.6-3.9-6.2-8.3
		c-1.5-4.3-0.9-8.1-0.4-10.5C21.2,60.1,23.4,50,25,43c0.6-1.1,1.5-1.9,2.6-2.4c1.1-0.5,2.3-0.6,3.5-0.3c2.6,0.8,3.3,3.5,3.4,3.7
		l0.4,25.4c-1.9,0.6-3.6,1.8-4.7,3.4c-2.2,3.4-1,7.1-0.8,7.5l20.4,21.5c0.2,0.2,0.5,0.4,0.8,0.5s0.6,0.2,0.9,0.1
		c0.3,0,0.6-0.1,0.9-0.2c0.3-0.1,0.5-0.3,0.8-0.6c0.3-0.4,0.4-0.9,0.4-1.3c0-0.5-0.1-0.9-0.4-1.3L33.9,79.9
		c-0.5-0.7-0.7-1.5-0.7-2.4c0-0.8,0.2-1.7,0.6-2.4c1.2-1.9,3.9-2.7,6.2-1.6l27.6,25.3c1.9,1.2,3.5,2.7,4.8,4.5
		C76.9,109.7,75.7,117,75.3,118.8z M76.4,77.7c-1.9,0.3-3.9,0.3-5.8-0.1c-7.7-1.6-11.5-8.3-12.2-9.6c-1.6-3.3-2.5-6.8-2.7-10.5
		c-0.2-3.6,0.3-7.3,1.6-10.7c3.3,1.7,6.4,3.5,9.4,5.6c2.5,1.7,4.7,3.4,6.7,5c1.6,1.9,2.8,4,3.5,6.3c0.3,1,0.5,2,0.6,3.1
		c0.1-0.3,0.3-0.7,0.4-1c1.6-3.3,4.4-5.8,7.8-7.1c3-0.6,6.3-1,9.9-1.3c3.9-0.3,7.9-0.4,11.8-0.3c-1.3,7.5-4.7,14.4-9.9,19.9
		c-5.2,5.5-12.2,7.3-17,4.7C78.8,80.9,77.4,79.4,76.4,77.7z M134.6,90.7c-5.8,4.9-13.2,12-22.9,21.8v6.4H85c-0.3-1.8-1.6-9.1,3-15.4
		c1.3-1.8,2.9-3.3,4.8-4.5l27.6-25.3c2.4-1.1,5.1-0.3,6.2,1.6c0.4,0.7,0.6,1.6,0.6,2.4c0,0.8-0.3,1.7-0.7,2.4L107.2,99
		c-0.3,0.4-0.4,0.9-0.4,1.3c0,0.5,0.1,1,0.4,1.3c0.2,0.2,0.5,0.4,0.8,0.6c0.3,0.1,0.6,0.2,0.9,0.2c0.3,0,0.6,0,0.9-0.1
		c0.3-0.1,0.6-0.3,0.8-0.5L131,80.3c0.2-0.4,1.4-4.1-0.8-7.5c-1.1-1.6-2.8-2.8-4.7-3.4l0.4-25.4c0-0.2,0.8-2.9,3.4-3.7
		c1.2-0.3,2.4-0.2,3.5,0.3s2,1.3,2.6,2.4c1.6,7,3.8,17,5.9,28.8c0.4,2.4,1.1,6.2-0.4,10.5C139.3,86.8,136.1,89.4,134.6,90.7z"/>
	<path class="st1" d="M67.6,98.9L40,73.6c-2.4-1.1-5.1-0.3-6.2,1.6c-0.4,0.7-0.6,1.6-0.6,2.4c0,0.8,0.3,1.7,0.7,2.4L53.1,99
		c0.3,0.4,0.4,0.9,0.4,1.3c0,0.5-0.1,0.9-0.4,1.3c-0.2,0.2-0.5,0.4-0.8,0.6c-0.3,0.1-0.6,0.2-0.9,0.2c-0.3,0-0.6,0-0.9-0.1
		s-0.6-0.3-0.8-0.5L29.4,80.3c-0.2-0.4-1.4-4.1,0.8-7.5c1.1-1.6,2.8-2.8,4.7-3.4L34.5,44c0-0.2-0.8-2.9-3.4-3.7
		c-1.2-0.3-2.4-0.2-3.5,0.3c-1.1,0.5-2,1.3-2.6,2.4c-1.6,7-3.8,17-5.9,28.8c-0.4,2.4-1.1,6.2,0.4,10.5c1.6,4.5,4.7,7.1,6.2,8.3
		c5.8,4.9,13.2,12,22.9,21.8v6.4h26.7c0.3-1.8,1.6-9.1-3-15.4C71.1,101.6,69.5,100.1,67.6,98.9z"/>
	<path class="st1" d="M141.3,71.9c-2.2-11.8-4.3-21.9-5.9-28.8c-0.6-1.1-1.5-1.9-2.6-2.4s-2.3-0.6-3.5-0.3c-2.6,0.8-3.3,3.5-3.4,3.7
		l-0.4,25.4c1.9,0.6,3.6,1.8,4.7,3.4c2.2,3.4,1,7.1,0.8,7.5l-20.4,21.5c-0.2,0.2-0.5,0.4-0.8,0.5c-0.3,0.1-0.6,0.2-0.9,0.1
		c-0.3,0-0.6-0.1-0.9-0.2c-0.3-0.1-0.5-0.3-0.8-0.6c-0.3-0.4-0.4-0.9-0.4-1.3c0-0.5,0.1-0.9,0.4-1.3l19.2-19.1
		c0.5-0.7,0.7-1.5,0.7-2.4c0-0.8-0.2-1.7-0.6-2.4c-1.2-1.9-3.9-2.7-6.2-1.6L92.8,98.9c-1.9,1.2-3.5,2.7-4.8,4.5
		c-4.5,6.3-3.3,13.6-3,15.4h26.7v-6.4c9.7-9.7,17.1-16.9,22.9-21.8c1.5-1.3,4.6-3.9,6.2-8.3C142.4,78.1,141.7,74.2,141.3,71.9z"/>
	<path class="st2" d="M97.5,77.1c5.2-5.5,8.6-12.4,9.9-19.9c-3.9-0.1-7.9,0-11.8,0.3c-3.6,0.3-6.9,0.8-9.9,1.3
		c-3.4,1.3-6.2,3.8-7.8,7.1c-0.2,0.3-0.3,0.7-0.4,1c-0.1-1-0.3-2.1-0.6-3.1c-0.7-2.3-1.9-4.5-3.5-6.3c-2-1.6-4.2-3.3-6.7-5
		c-3-2.1-6.2-3.9-9.4-5.6c-1.2,3.4-1.8,7.1-1.6,10.7c0.2,3.6,1.1,7.2,2.7,10.5c0.7,1.3,4.5,8,12.2,9.6c1.9,0.4,3.9,0.4,5.8,0.1
		c1,1.7,2.4,3.1,4.1,4.1C85.3,84.4,92.3,82.6,97.5,77.1z M76.3,76.6c-1.9-2.6-3.8-5.3-5.9-7.9c-1.6-2-3.1-4-4.7-5.9
		c2.1,1.1,4,2.6,5.7,4.2c2.1,2,3.9,4.4,5.3,7c0,0,0,0,0-0.1c0,0,0,0,0,0c3.4-0.2,6.8-0.9,10-1.9c3.9-1.2,7.6-2.9,11-5
		c-2.8,3.1-6.2,5.5-10,7.1C84.2,75.7,80.3,76.5,76.3,76.6z"/>
</g>
</svg>
