<svg width="160" height="159" viewBox="0 0 160 159" fill="none" xmlns="http://www.w3.org/2000/svg">
<path d="M80.1874 158.937C124.077 158.937 159.656 123.358 159.656 79.4687C159.656 35.5793 124.077 0 80.1874 0C36.2981 0 0.71875 35.5793 0.71875 79.4687C0.71875 123.358 36.2981 158.937 80.1874 158.937Z" fill="white"/>
<path d="M75.3426 118.799C75.6849 117.028 76.93 109.699 72.3921 103.385C71.0865 101.591 69.4551 100.057 67.5828 98.8652L39.9956 73.5559C37.6352 72.4347 34.9326 73.2254 33.776 75.1137C33.3624 75.8522 33.1572 76.689 33.1821 77.535C33.2071 78.381 33.4613 79.2043 33.9176 79.9171L53.1489 99.0069C53.4218 99.4014 53.5679 99.8697 53.5679 100.349C53.5679 100.829 53.4218 101.297 53.1489 101.692C52.9359 101.925 52.6789 102.113 52.3928 102.246C52.1067 102.379 51.7971 102.454 51.4818 102.468C51.1666 102.481 50.8518 102.432 50.5556 102.323C50.2594 102.214 49.9876 102.048 49.7559 101.833L29.3974 80.342C29.2381 79.8994 28.0225 76.2113 30.2413 72.8477C31.3545 71.2076 33.0054 70.0075 34.909 69.4547L34.4841 44.0096C34.4369 43.8326 33.6521 41.1122 31.091 40.3333C29.9236 40.0305 28.6881 40.131 27.5849 40.6183C26.4817 41.1057 25.5754 41.9513 25.013 43.0182C23.4256 49.9873 21.2364 60.0603 19.0766 71.8623C18.6399 74.2227 17.9849 78.0583 19.4956 82.3247C21.0888 86.7918 24.2164 89.4059 25.7211 90.6628C31.5218 95.5961 38.9512 102.677 48.6229 112.438V118.799H75.3426Z" fill="#B89473"/>
<path d="M85.0261 118.799C84.6838 117.029 83.4387 109.7 87.9766 103.385C89.2831 101.591 90.9144 100.058 92.7859 98.8653L120.355 73.5559C122.716 72.4347 125.418 73.2255 126.575 75.1138C126.99 75.8518 127.196 76.6889 127.171 77.5351C127.146 78.3814 126.891 79.2049 126.433 79.9172L107.208 99.0069C106.929 99.3992 106.78 99.8683 106.78 100.349C106.78 100.83 106.929 101.3 107.208 101.692C107.421 101.925 107.677 102.114 107.964 102.248C108.25 102.381 108.559 102.457 108.875 102.47C109.19 102.483 109.505 102.434 109.802 102.325C110.098 102.215 110.37 102.048 110.601 101.833L130.959 80.3421C131.113 79.8995 132.328 76.2114 130.11 72.8478C128.998 71.2066 127.346 70.0062 125.442 69.4547L125.867 44.0097C125.914 43.8326 126.699 41.1123 129.26 40.3333C130.428 40.0302 131.665 40.1305 132.769 40.6178C133.873 41.1051 134.78 41.9509 135.344 43.0183C136.931 49.9874 139.115 60.0604 141.28 71.8623C141.711 74.2227 142.372 78.0584 140.855 82.3248C139.268 86.7919 136.135 89.406 134.636 90.6629C128.829 95.5843 121.4 102.695 111.728 112.438V118.799H85.0261Z" fill="#B89473"/>
<path d="M77.1192 77.6335C74.9615 78.069 72.7386 78.069 70.5809 77.6335C62.9096 76.058 59.0917 69.3721 58.3776 68.0562C56.7883 64.7816 55.8683 61.2228 55.6718 57.5882C55.4752 53.9535 56.0059 50.3163 57.2328 46.8893C60.4939 48.5526 63.6473 50.4191 66.6744 52.4776C69.1646 54.1594 71.3952 55.8648 73.3839 57.5052C74.9623 59.3604 76.1397 61.5223 76.8418 63.8547C77.7941 67.1635 77.7757 70.6763 76.7887 73.9749C75.4088 71.3595 73.6154 68.9842 71.4778 66.9409C69.7569 65.2925 67.8265 63.8779 65.7362 62.7335C67.3098 64.6376 68.8716 66.6046 70.4216 68.6345C72.7741 71.6597 75.0066 74.6594 77.1192 77.6335Z" fill="#5B7A74"/>
<path d="M76.8061 73.9215C76.3349 71.2093 76.6949 68.4179 77.8387 65.9139C79.4273 62.626 82.2339 60.0861 85.6635 58.8327C88.6671 58.278 91.9775 57.8118 95.5594 57.5109C99.4846 57.1884 103.425 57.0938 107.361 57.2276C106.076 64.6823 102.636 71.5975 97.4655 77.1199C92.3139 82.6373 85.3035 84.3781 80.5001 81.8407C78.3918 80.6459 76.7334 78.7927 75.7793 76.5652C79.9194 76.6242 84.025 75.8066 87.8267 74.1661C91.6283 72.5257 95.0399 70.0995 97.8372 67.0469C94.4061 69.1848 90.7103 70.8651 86.8437 72.045C83.5784 73.0434 80.2115 73.6728 76.8061 73.9215Z" fill="#5B7A74"/>
</svg>
