<?xml version="1.0" encoding="utf-8"?>
<!-- Generator: Adobe Illustrator 25.2.1, SVG Export Plug-In . SVG Version: 6.00 Build 0)  -->
<svg version="1.1" id="Layer_1" xmlns="http://www.w3.org/2000/svg" xmlns:xlink="http://www.w3.org/1999/xlink" x="0px" y="0px"
	 viewBox="0 0 195 195" style="enable-background:new 0 0 195 195;" xml:space="preserve">
<style type="text/css">
	.st0{fill:#FFFFFF;}
	.st1{fill:#5B7A78;}
</style>
<g>
	<path class="st0" d="M97.2,0C43.5,0,0,43.5,0,97.2c0,53.7,43.5,97.2,97.2,97.2c53.7,0,97.2-43.5,97.2-97.2
		C194.3,43.5,150.8,0,97.2,0z M101.2,47.7c3.7,15-1.8,35.7-12.4,47c-0.8,0.9-2,1.2-3.2,0.9L61,89c-1.2-0.3-2-1.3-2.3-2.4
		c-3.6-15,2-35.8,12.7-46.9C83.3,27.4,97.2,31.4,101.2,47.7z M94,121.9l16,16c1.3,1.3,1.3,3.3,0,4.6l-5.7,5.7
		c-5.7,5.7-14.9,5.7-20.6,0c-5.7-5.7-5.7-14.9,0-20.6l5.7-5.7C90.7,120.7,92.8,120.7,94,121.9z M54.6,105.7l2.1-7.8
		c0.5-1.7,2.2-2.7,4-2.3l21.9,5.9c1.7,0.5,2.7,2.2,2.3,4l-2.1,7.8c-2.1,7.8-10.1,12.4-17.8,10.3C57.1,121.5,52.6,113.4,54.6,105.7z
		 M97.6,116.4c-0.8-0.8-1.2-2.1-0.8-3.2c7.1-23.8,39.7-44.8,53.2-31.3c13.4,13.4-7.3,46.1-31.3,53.2c-1.1,0.3-2.3,0.1-3.2-0.8
		L97.6,116.4z"/>
	<path class="st1" d="M118.8,135.1c24-7.2,44.7-39.8,31.3-53.2c-13.6-13.6-46.1,7.5-53.2,31.3c-0.3,1.1,0,2.4,0.8,3.2l18,18
		C116.5,135.2,117.7,135.5,118.8,135.1z"/>
	<path class="st1" d="M83.7,127.6c-5.7,5.7-5.7,14.9,0,20.6c5.6,5.7,14.9,5.7,20.6,0l5.7-5.7c1.3-1.3,1.3-3.3,0-4.6l-16-16
		c-1.3-1.3-3.3-1.3-4.6,0L83.7,127.6z"/>
	<path class="st1" d="M58.7,86.7c0.3,1.1,1.1,2.1,2.3,2.4l24.5,6.6c1.1,0.3,2.4,0,3.2-0.9c10.6-11.2,16.1-32,12.4-47
		c-4-16.3-17.9-20.3-29.8-8C60.7,50.9,55.1,71.6,58.7,86.7z"/>
	<path class="st1" d="M64.9,123.6c7.8,2.1,15.7-2.5,17.8-10.3l2.1-7.8c0.5-1.7-0.6-3.5-2.3-4l-21.9-5.9c-1.7-0.5-3.5,0.6-4,2.3
		l-2.1,7.8C52.6,113.4,57.1,121.5,64.9,123.6z"/>
</g>
</svg>
