<svg width="98" height="32" viewBox="0 0 98 32" fill="none" xmlns="http://www.w3.org/2000/svg">
<path d="M52.1158 1.09596C52.575 1.54416 51.4985 3.36826 51.1558 3.71376C50.8131 4.05926 49.0286 5.11983 48.5693 4.67163C48.1101 4.22344 49.1501 2.4362 49.4927 2.09071C49.8354 1.74521 51.6565 0.647767 52.1158 1.09596Z" fill="white"/>
<path d="M50.6311 5.0432C50.913 5.51086 49.1482 7.07202 48.6767 7.35159C48.2053 7.63117 46.0339 8.40427 45.752 7.93661C45.4702 7.46895 47.1847 5.93763 47.6561 5.65806C48.1276 5.37848 50.3493 4.57555 50.6311 5.0432Z" fill="white"/>
<path d="M47.9701 2.63546C48.478 2.84285 48.0058 5.14122 47.7968 5.64506C47.5877 6.1489 46.3143 8.05726 45.8064 7.84987C45.2985 7.64249 45.7483 5.39788 45.9574 4.89404C46.1665 4.3902 47.4622 2.42808 47.9701 2.63546Z" fill="white"/>
<path d="M44.7737 4.89498C45.3195 4.95647 45.4998 7.29524 45.4379 7.83661C45.3759 8.37799 44.678 10.5593 44.1322 10.4978C43.5865 10.4363 43.3995 8.15532 43.4615 7.61394C43.5235 7.07257 44.228 4.83349 44.7737 4.89498Z" fill="white"/>
<path d="M49.1733 8.07565C49.4007 8.57165 47.4709 9.9272 46.9709 10.1527C46.4709 10.3782 44.2259 10.9055 43.9985 10.4095C43.7712 9.91356 45.6476 8.58207 46.1476 8.35656C46.6476 8.13105 48.946 7.57966 49.1733 8.07565Z" fill="white"/>
<path fill-rule="evenodd" clip-rule="evenodd" d="M47.5893 6.2124C46.8636 7.1028 45.9781 8.38643 44.5435 10.6289L44.0694 10.3305C45.5046 8.0871 46.4049 6.77965 47.1527 5.8622C47.9059 4.9381 48.5021 4.41257 49.3179 3.7315L49.6795 4.15765C48.8747 4.82957 48.3097 5.32866 47.5893 6.2124Z" fill="white"/>
<path d="M5.8706 11.9449C6.80926 11.9449 7.6286 12.1343 8.32862 12.513C9.04455 12.8918 9.59342 13.3889 9.97525 14.0044V12.1343H14.056V25.3198C14.056 26.535 13.8094 27.6318 13.3162 28.6103C12.839 29.6046 12.0992 30.3936 11.0969 30.9776C10.1105 31.5615 8.8775 31.8534 7.39792 31.8534C5.42514 31.8534 3.82623 31.3879 2.6012 30.4568C1.37617 29.5414 0.676154 28.2947 0.501149 26.7165H4.53421C4.66148 27.2215 4.96376 27.6161 5.44105 27.9001C5.91833 28.2 6.50698 28.3499 7.207 28.3499C8.05021 28.3499 8.7184 28.1053 9.2116 27.6161C9.7207 27.1426 9.97525 26.3772 9.97525 25.3198V23.4497C9.57752 24.0652 9.02864 24.5702 8.32862 24.9647C7.6286 25.3435 6.80926 25.5329 5.8706 25.5329C4.77285 25.5329 3.77851 25.2567 2.88757 24.7043C1.99664 24.1362 1.28867 23.3392 0.763656 22.3134C0.254552 21.2718 0 20.0724 0 18.7152C0 17.358 0.254552 16.1665 0.763656 15.1407C1.28867 14.1149 1.99664 13.3258 2.88757 12.7734C3.77851 12.2211 4.77285 11.9449 5.8706 11.9449ZM9.97525 18.7389C9.97525 17.7289 9.68888 16.9319 9.11614 16.348C8.55931 15.764 7.8752 15.4721 7.06382 15.4721C6.25243 15.4721 5.56037 15.764 4.98763 16.348C4.4308 16.9161 4.15238 17.7052 4.15238 18.7152C4.15238 19.7252 4.4308 20.5301 4.98763 21.1298C5.56037 21.7137 6.25243 22.0057 7.06382 22.0057C7.8752 22.0057 8.55931 21.7137 9.11614 21.1298C9.68888 20.5459 9.97525 19.7489 9.97525 18.7389Z" fill="white"/>
<path d="M21.0891 14.3358C21.5664 13.6098 22.163 13.0417 22.8789 12.6314C23.5948 12.2053 24.3903 11.9922 25.2653 11.9922V16.2769H24.1437C23.1255 16.2769 22.3619 16.4979 21.8527 16.9398C21.3436 17.3659 21.0891 18.1234 21.0891 19.2123V25.3435H17.0083V12.1343H21.0891V14.3358Z" fill="white"/>
<path d="M26.4045 18.7152C26.4045 17.358 26.659 16.1665 27.1681 15.1407C27.6931 14.1149 28.4011 13.3258 29.2921 12.7734C30.183 12.2211 31.1773 11.9449 32.2751 11.9449C33.2137 11.9449 34.0331 12.1343 34.7331 12.513C35.449 12.8918 35.9979 13.3889 36.3797 14.0044V12.1343H40.4605V25.3435H36.3797V23.4734C35.982 24.0889 35.4252 24.586 34.7092 24.9647C34.0092 25.3435 33.1899 25.5329 32.2512 25.5329C31.1694 25.5329 30.183 25.2567 29.2921 24.7043C28.4011 24.1362 27.6931 23.3392 27.1681 22.3134C26.659 21.2718 26.4045 20.0724 26.4045 18.7152ZM36.3797 18.7389C36.3797 17.7289 36.0934 16.9319 35.5206 16.348C34.9638 15.764 34.2797 15.4721 33.4683 15.4721C32.6569 15.4721 31.9648 15.764 31.3921 16.348C30.8353 16.9161 30.5569 17.7052 30.5569 18.7152C30.5569 19.7252 30.8353 20.5301 31.3921 21.1298C31.9648 21.7137 32.6569 22.0057 33.4683 22.0057C34.2797 22.0057 34.9638 21.7137 35.5206 21.1298C36.0934 20.5459 36.3797 19.7489 36.3797 18.7389Z" fill="white"/>
<path d="M47.4936 12.1343V25.3435H43.4128V12.1343H47.4936Z" fill="white"/>
<path d="M58.5647 11.9922C60.1238 11.9922 61.3648 12.4972 62.2875 13.5073C63.2262 14.5015 63.6955 15.8745 63.6955 17.6263V25.3435H59.6386V18.1707C59.6386 17.287 59.4079 16.6005 58.9465 16.1112C58.4852 15.622 57.8647 15.3774 57.0851 15.3774C56.3056 15.3774 55.6851 15.622 55.2237 16.1112C54.7623 16.6005 54.5317 17.287 54.5317 18.1707V25.3435H50.4509V12.1343H54.5317V13.886C54.9453 13.3021 55.5021 12.8444 56.2022 12.513C56.9022 12.1658 57.6897 11.9922 58.5647 11.9922Z" fill="white"/>
<path d="M68.5597 10.7612C67.8438 10.7612 67.2551 10.5561 66.7938 10.1458C66.3483 9.71966 66.1256 9.19886 66.1256 8.58338C66.1256 7.95211 66.3483 7.43132 66.7938 7.02099C67.2551 6.59489 67.8438 6.38184 68.5597 6.38184C69.2597 6.38184 69.8325 6.59489 70.278 7.02099C70.7393 7.43132 70.97 7.95211 70.97 8.58338C70.97 9.19886 70.7393 9.71966 70.278 10.1458C69.8325 10.5561 69.2597 10.7612 68.5597 10.7612ZM70.6121 27.0479C70.6121 28.6734 70.1984 29.8413 69.3711 30.5515C68.5438 31.2774 67.3904 31.6404 65.9108 31.6404H64.3119V28.2079H65.2903C65.7358 28.2079 66.054 28.1211 66.2449 27.9475C66.4358 27.7739 66.5313 27.4898 66.5313 27.0953V12.1343H70.6121V27.0479Z" fill="white"/>
<path d="M72.7347 18.7152C72.7347 17.358 72.9892 16.1665 73.4983 15.1407C74.0233 14.1149 74.7313 13.3258 75.6222 12.7734C76.5132 12.2211 77.5075 11.9449 78.6053 11.9449C79.5439 11.9449 80.3633 12.1343 81.0633 12.513C81.7792 12.8918 82.3281 13.3889 82.7099 14.0044V12.1343H86.7907V25.3435H82.7099V23.4734C82.3122 24.0889 81.7553 24.586 81.0394 24.9647C80.3394 25.3435 79.5201 25.5329 78.5814 25.5329C77.4996 25.5329 76.5132 25.2567 75.6222 24.7043C74.7313 24.1362 74.0233 23.3392 73.4983 22.3134C72.9892 21.2718 72.7347 20.0724 72.7347 18.7152ZM82.7099 18.7389C82.7099 17.7289 82.4235 16.9319 81.8508 16.348C81.294 15.764 80.6099 15.4721 79.7985 15.4721C78.9871 15.4721 78.295 15.764 77.7223 16.348C77.1655 16.9161 76.887 17.7052 76.887 18.7152C76.887 19.7252 77.1655 20.5301 77.7223 21.1298C78.295 21.7137 78.9871 22.0057 79.7985 22.0057C80.6099 22.0057 81.294 21.7137 81.8508 21.1298C82.4235 20.5459 82.7099 19.7489 82.7099 18.7389Z" fill="white"/>
<path d="M93.8238 14.3358C94.301 13.6098 94.8976 13.0417 95.6136 12.6314C96.3295 12.2053 97.125 11.9922 98 11.9922V16.2769H96.8784C95.8602 16.2769 95.0965 16.4979 94.5874 16.9398C94.0783 17.3659 93.8238 18.1234 93.8238 19.2123V25.3435H89.743V12.1343H93.8238V14.3358Z" fill="white"/>
</svg>
