<?xml version="1.0" encoding="utf-8"?>
<!-- Generator: Adobe Illustrator 25.2.1, SVG Export Plug-In . SVG Version: 6.00 Build 0)  -->
<svg version="1.1" id="Layer_1" xmlns="http://www.w3.org/2000/svg" xmlns:xlink="http://www.w3.org/1999/xlink" x="0px" y="0px"
	 viewBox="0 0 159 159" style="enable-background:new 0 0 159 159;" xml:space="preserve">
<style type="text/css">
	.st0{fill:#FFFFFF;}
	.st1{fill:#5B7A78;}
</style>
<g>
	<path class="st0" d="M79.2,0C35.4,0,0,35.4,0,79.2c0,43.7,35.4,79.2,79.2,79.2c43.7,0,79.2-35.4,79.2-79.2
		C158.3,35.4,122.9,0,79.2,0z M87.5,30.4c0.9,1.6,12.1,22.9,1.5,39.6c-2.3,3.7-5.5,6.8-9.1,9.1c0-5.9,0.3-12.3,0.9-19.2
		c0.4-4.6,0.9-9.1,1.6-13.3c-4.3,10-6.7,20.8-7.1,31.7c-2.9-3.5-4.9-7.6-5.8-12C67,53.9,74.2,39.9,87.5,30.4z M37.6,83.6
		c-4.6-8.4-6.2-18.1-4.7-27.5c6.5,1.3,12.8,3.6,18.6,6.8c7.5,4.1,14,9.7,19.3,16.4c0.2,2.1-0.2,4.3-1.3,6.2
		c-1.1,1.9-2.7,3.4-4.6,4.3c-2.8-4.3-6.1-8.2-9.7-11.8c-4.1-4-8.7-7.6-13.7-10.5c4.3,4.4,8.8,9.1,13.3,14.1
		c3.2,3.6,6.3,7.2,9.1,10.8l-5.6,10C49.5,98.6,42.2,92,37.6,83.6z M115.6,98.8c-1.6,3.9-3.5,7.6-5.9,11.1
		c-11.1,10.7-25.7,17.1-41.1,18c2.5-5.5,5.4-10.7,8.7-15.8c7.6-11.8,17.2-22.2,28.1-31c-11.8,7-22.2,16.2-30.5,27.1
		c-3.3,4.3-6.2,8.9-8.7,13.7c-2.9-3.9-4.6-8.6-4.9-13.4c-0.7-14.5,12.6-23.3,13.4-23.9c13.2-8.8,29-13.1,44.8-12.1
		C120.2,81.5,118.9,90.5,115.6,98.8z"/>
	<path class="st1" d="M74.8,84.7c-0.8,0.5-14.1,9.4-13.4,23.9c0.3,4.8,2,9.5,4.9,13.4c2.5-4.8,5.4-9.4,8.7-13.7
		c8.3-11,18.7-20.2,30.5-27.1c-11,8.7-20.5,19.2-28.1,31c-3.3,5-6.2,10.3-8.7,15.8c15.4-0.9,30-7.3,41.1-18
		c2.4-3.5,4.3-7.2,5.9-11.1c3.3-8.3,4.7-17.3,4-26.2C103.7,71.6,88,75.9,74.8,84.7z"/>
	<path class="st1" d="M54.7,81.6c-4.4-5.1-8.9-9.8-13.3-14.1c5,2.9,9.6,6.5,13.7,10.5c3.7,3.6,6.9,7.5,9.7,11.8
		c1.9-0.9,3.5-2.4,4.6-4.3c1.1-1.9,1.5-4,1.3-6.2C65.5,72.6,58.9,67,51.5,62.9c-5.8-3.2-12.1-5.5-18.6-6.8
		c-1.5,9.4,0.1,19.1,4.7,27.5c4.6,8.4,11.8,15,20.6,18.8l5.6-10C61,88.8,57.9,85.2,54.7,81.6z"/>
	<path class="st1" d="M75.2,78.5c0.4-10.9,2.8-21.6,7.1-31.7c-0.7,4.2-1.2,8.6-1.6,13.3c-0.6,6.8-0.9,13.2-0.9,19.2
		c3.7-2.3,6.8-5.5,9.1-9.1c10.6-16.7-0.6-38-1.5-39.6c-13.3,9.5-20.5,23.4-18,36C70.4,70.9,72.3,75,75.2,78.5z"/>
</g>
</svg>
