<svg width="159" height="159" viewBox="0 0 159 159" fill="none" xmlns="http://www.w3.org/2000/svg">
<path d="M79.1522 158.304C122.867 158.304 158.304 122.867 158.304 79.1522C158.304 35.4377 122.867 0 79.1522 0C35.4377 0 0 35.4377 0 79.1522C0 122.867 35.4377 158.304 79.1522 158.304Z" fill="white"/>
<path d="M105.42 81.1389C93.5704 88.0938 83.2039 97.3101 74.9095 108.264C71.6519 112.595 68.7433 117.178 66.2109 121.97C63.3219 118.066 61.6328 113.406 61.3502 108.557C60.6743 94.1047 73.9398 85.212 74.7626 84.6772C87.9775 75.8607 103.717 71.6162 119.573 72.593C120.246 81.5271 118.885 90.4975 115.594 98.8302C114.042 102.718 112.071 106.425 109.716 109.886C98.5666 120.567 83.9857 126.941 68.5736 127.871C71.0997 122.415 74.0064 117.144 77.2723 112.096C84.9217 100.325 94.4273 89.8704 105.42 81.1389V81.1389Z" fill="#5B7A78"/>
<path d="M41.4493 67.432C45.7987 71.8108 50.2656 76.5245 54.7148 81.5792C57.9357 85.2154 60.9822 88.8026 63.8543 92.3409L58.2531 102.368C49.4771 98.578 42.218 91.966 37.6277 83.5808C33.0375 75.1956 31.3789 65.5177 32.9152 56.0826C39.4139 57.3821 45.6728 59.6779 51.4705 62.8887C58.9215 67.0201 65.4846 72.5805 70.7839 79.2517C71.0032 81.3896 70.5562 83.543 69.504 85.417C68.4518 87.2909 66.8459 88.7937 64.9064 89.7195C62.0947 85.4496 58.8315 81.4948 55.1733 77.9234C51.0402 73.8836 46.4318 70.3607 41.4493 67.432Z" fill="#5B7A78"/>
<path d="M82.2835 46.7961C78.0151 56.84 75.6245 67.5814 75.2305 78.4876C72.3453 75.0143 70.3591 70.8845 69.447 66.4622C66.9609 53.8609 74.1902 39.9136 87.4674 30.4332C88.3432 32.0377 99.5339 53.3554 88.9427 70.0828C86.5941 73.7553 83.4757 76.8737 79.8032 79.2223C79.8032 73.2742 80.0677 66.8795 80.6848 60.0616C81.108 55.4125 81.6311 50.9809 82.2835 46.7961Z" fill="#5B7A78"/>
</svg>
