<svg width="107" height="107" viewBox="0 0 107 107" fill="none" xmlns="http://www.w3.org/2000/svg">
<path fill-rule="evenodd" clip-rule="evenodd" d="M53.5 105C81.9427 105 105 81.9427 105 53.5C105 25.0573 81.9427 2 53.5 2C25.0573 2 2 25.0573 2 53.5C2 81.9427 25.0573 105 53.5 105ZM53.5 107C83.0472 107 107 83.0472 107 53.5C107 23.9528 83.0472 0 53.5 0C23.9528 0 0 23.9528 0 53.5C0 83.0472 23.9528 107 53.5 107Z" fill="#B89473"/>
<path d="M78.0992 74.2975L60.7213 44.2393V27.4844H64.237V23.9688H43.1432V27.4844H46.6589V44.2393L29.2818 74.2975C28.1154 76.3153 28.1139 78.7253 29.2792 80.7443C30.4438 82.7635 32.5312 83.9687 34.8614 83.9687H72.5188C74.8498 83.9687 76.9368 82.7635 78.1017 80.7443C79.267 78.7253 79.2655 76.3153 78.0992 74.2975ZM41.3854 67.4453C41.3854 66.1507 42.4353 65.1016 43.7292 65.1016C45.0237 65.1016 46.0729 66.1507 46.0729 67.4453C46.0729 68.7399 45.0237 69.7891 43.7292 69.7891C42.4353 69.7891 41.3854 68.7399 41.3854 67.4453ZM46.0729 76.8203C44.7791 76.8203 43.7292 75.7711 43.7292 74.4766C43.7292 73.182 44.7791 72.1328 46.0729 72.1328C47.3675 72.1328 48.4167 73.182 48.4167 74.4766C48.4167 75.7711 47.3675 76.8203 46.0729 76.8203ZM56.6198 71.5469C54.6785 71.5469 53.1042 69.9725 53.1042 68.0312C53.1042 66.09 54.6785 64.5156 56.6198 64.5156C58.5618 64.5156 60.1354 66.09 60.1354 68.0312C60.1354 69.9725 58.5618 71.5469 56.6198 71.5469ZM44.0111 55.8437L50.1745 45.1826V27.4844H57.2057V45.1826L63.3698 55.8437H44.0111ZM67.1667 76.8203C65.8728 76.8203 64.8229 75.7711 64.8229 74.4766C64.8229 73.182 65.8728 72.1328 67.1667 72.1328C68.4612 72.1328 69.5104 73.182 69.5104 74.4766C69.5104 75.7711 68.4612 76.8203 67.1667 76.8203Z" fill="#5B7A78"/>
</svg>
