<svg width="112" height="138" viewBox="0 0 112 138" fill="none" xmlns="http://www.w3.org/2000/svg">
<path d="M11.628 137H9.57598L3.40198 127.658V137H1.34998V124.472H3.40198L9.57598 133.796V124.472H11.628V137Z" fill="#3A2B1B"/>
<path d="M18.6246 137.162C17.6886 137.162 16.8426 136.952 16.0866 136.532C15.3306 136.1 14.7366 135.5 14.3046 134.732C13.8726 133.952 13.6566 133.052 13.6566 132.032C13.6566 131.024 13.8786 130.13 14.3226 129.35C14.7666 128.57 15.3726 127.97 16.1406 127.55C16.9086 127.13 17.7666 126.92 18.7146 126.92C19.6626 126.92 20.5206 127.13 21.2886 127.55C22.0566 127.97 22.6626 128.57 23.1066 129.35C23.5506 130.13 23.7726 131.024 23.7726 132.032C23.7726 133.04 23.5446 133.934 23.0886 134.714C22.6326 135.494 22.0086 136.1 21.2166 136.532C20.4366 136.952 19.5726 137.162 18.6246 137.162ZM18.6246 135.38C19.1526 135.38 19.6446 135.254 20.1006 135.002C20.5686 134.75 20.9466 134.372 21.2346 133.868C21.5226 133.364 21.6666 132.752 21.6666 132.032C21.6666 131.312 21.5286 130.706 21.2526 130.214C20.9766 129.71 20.6106 129.332 20.1546 129.08C19.6986 128.828 19.2066 128.702 18.6786 128.702C18.1506 128.702 17.6586 128.828 17.2026 129.08C16.7586 129.332 16.4046 129.71 16.1406 130.214C15.8766 130.706 15.7446 131.312 15.7446 132.032C15.7446 133.1 16.0146 133.928 16.5546 134.516C17.1066 135.092 17.7966 135.38 18.6246 135.38Z" fill="#3A2B1B"/>
<path d="M29.7929 131.996C29.7929 131 29.9969 130.118 30.4049 129.35C30.8249 128.582 31.3889 127.988 32.0969 127.568C32.8169 127.136 33.6089 126.92 34.4729 126.92C35.2529 126.92 35.9309 127.076 36.5069 127.388C37.0949 127.688 37.5629 128.066 37.9109 128.522V127.082H39.9809V137H37.9109V135.524C37.5629 135.992 37.0889 136.382 36.4889 136.694C35.8889 137.006 35.2049 137.162 34.4369 137.162C33.5849 137.162 32.8049 136.946 32.0969 136.514C31.3889 136.07 30.8249 135.458 30.4049 134.678C29.9969 133.886 29.7929 132.992 29.7929 131.996ZM37.9109 132.032C37.9109 131.348 37.7669 130.754 37.4789 130.25C37.2029 129.746 36.8369 129.362 36.3809 129.098C35.9249 128.834 35.4329 128.702 34.9049 128.702C34.3769 128.702 33.8849 128.834 33.4289 129.098C32.9729 129.35 32.6009 129.728 32.3129 130.232C32.0369 130.724 31.8989 131.312 31.8989 131.996C31.8989 132.68 32.0369 133.28 32.3129 133.796C32.6009 134.312 32.9729 134.708 33.4289 134.984C33.8969 135.248 34.3889 135.38 34.9049 135.38C35.4329 135.38 35.9249 135.248 36.3809 134.984C36.8369 134.72 37.2029 134.336 37.4789 133.832C37.7669 133.316 37.9109 132.716 37.9109 132.032Z" fill="#3A2B1B"/>
<path d="M44.7281 128.522C45.0281 128.018 45.4241 127.628 45.9161 127.352C46.4201 127.064 47.0142 126.92 47.6982 126.92V129.044H47.1761C46.3721 129.044 45.7601 129.248 45.3401 129.656C44.9321 130.064 44.7281 130.772 44.7281 131.78V137H42.6761V127.082H44.7281V128.522Z" fill="#3A2B1B"/>
<path d="M51.9784 128.756V134.246C51.9784 134.618 52.0624 134.888 52.2304 135.056C52.4104 135.212 52.7104 135.29 53.1304 135.29H54.3904V137H52.7704C51.8464 137 51.1384 136.784 50.6464 136.352C50.1544 135.92 49.9084 135.218 49.9084 134.246V128.756H48.7384V127.082H49.9084V124.616H51.9784V127.082H54.3904V128.756H51.9784Z" fill="#3A2B1B"/>
<path d="M57.3256 125.768C56.9536 125.768 56.6416 125.642 56.3896 125.39C56.1376 125.138 56.0116 124.826 56.0116 124.454C56.0116 124.082 56.1376 123.77 56.3896 123.518C56.6416 123.266 56.9536 123.14 57.3256 123.14C57.6856 123.14 57.9916 123.266 58.2436 123.518C58.4956 123.77 58.6216 124.082 58.6216 124.454C58.6216 124.826 58.4956 125.138 58.2436 125.39C57.9916 125.642 57.6856 125.768 57.3256 125.768ZM58.3336 127.082V137H56.2816V127.082H58.3336Z" fill="#3A2B1B"/>
<path d="M65.1857 128.756H63.3497V137H61.2797V128.756H60.1097V127.082H61.2797V126.38C61.2797 125.24 61.5797 124.412 62.1797 123.896C62.7917 123.368 63.7457 123.104 65.0417 123.104V124.814C64.4177 124.814 63.9797 124.934 63.7277 125.174C63.4757 125.402 63.3497 125.804 63.3497 126.38V127.082H65.1857V128.756Z" fill="#3A2B1B"/>
<path d="M68.0483 125.768C67.6763 125.768 67.3643 125.642 67.1123 125.39C66.8603 125.138 66.7343 124.826 66.7343 124.454C66.7343 124.082 66.8603 123.77 67.1123 123.518C67.3643 123.266 67.6763 123.14 68.0483 123.14C68.4083 123.14 68.7143 123.266 68.9663 123.518C69.2183 123.77 69.3443 124.082 69.3443 124.454C69.3443 124.826 69.2183 125.138 68.9663 125.39C68.7143 125.642 68.4083 125.768 68.0483 125.768ZM69.0563 127.082V137H67.0043V127.082H69.0563Z" fill="#3A2B1B"/>
<path d="M71.0664 132.032C71.0664 131.012 71.2704 130.118 71.6784 129.35C72.0984 128.57 72.6744 127.97 73.4064 127.55C74.1384 127.13 74.9784 126.92 75.9264 126.92C77.1264 126.92 78.1164 127.208 78.8964 127.784C79.6884 128.348 80.2224 129.158 80.4984 130.214H78.2844C78.1044 129.722 77.8164 129.338 77.4204 129.062C77.0244 128.786 76.5264 128.648 75.9264 128.648C75.0864 128.648 74.4144 128.948 73.9104 129.548C73.4184 130.136 73.1724 130.964 73.1724 132.032C73.1724 133.1 73.4184 133.934 73.9104 134.534C74.4144 135.134 75.0864 135.434 75.9264 135.434C77.1144 135.434 77.9004 134.912 78.2844 133.868H80.4984C80.2104 134.876 79.6704 135.68 78.8784 136.28C78.0864 136.868 77.1024 137.162 75.9264 137.162C74.9784 137.162 74.1384 136.952 73.4064 136.532C72.6744 136.1 72.0984 135.5 71.6784 134.732C71.2704 133.952 71.0664 133.052 71.0664 132.032Z" fill="#3A2B1B"/>
<path d="M83.5873 125.768C83.2153 125.768 82.9033 125.642 82.6513 125.39C82.3993 125.138 82.2733 124.826 82.2733 124.454C82.2733 124.082 82.3993 123.77 82.6513 123.518C82.9033 123.266 83.2153 123.14 83.5873 123.14C83.9473 123.14 84.2533 123.266 84.5053 123.518C84.7573 123.77 84.8833 124.082 84.8833 124.454C84.8833 124.826 84.7573 125.138 84.5053 125.39C84.2533 125.642 83.9473 125.768 83.5873 125.768ZM84.5953 127.082V137H82.5433V127.082H84.5953Z" fill="#3A2B1B"/>
<path d="M86.6054 131.996C86.6054 131 86.8094 130.118 87.2174 129.35C87.6374 128.582 88.2014 127.988 88.9094 127.568C89.6294 127.136 90.4214 126.92 91.2854 126.92C92.0654 126.92 92.7434 127.076 93.3194 127.388C93.9074 127.688 94.3754 128.066 94.7234 128.522V127.082H96.7934V137H94.7234V135.524C94.3754 135.992 93.9014 136.382 93.3014 136.694C92.7014 137.006 92.0174 137.162 91.2494 137.162C90.3974 137.162 89.6174 136.946 88.9094 136.514C88.2014 136.07 87.6374 135.458 87.2174 134.678C86.8094 133.886 86.6054 132.992 86.6054 131.996ZM94.7234 132.032C94.7234 131.348 94.5794 130.754 94.2914 130.25C94.0154 129.746 93.6494 129.362 93.1934 129.098C92.7374 128.834 92.2454 128.702 91.7174 128.702C91.1894 128.702 90.6974 128.834 90.2414 129.098C89.7854 129.35 89.4134 129.728 89.1254 130.232C88.8494 130.724 88.7114 131.312 88.7114 131.996C88.7114 132.68 88.8494 133.28 89.1254 133.796C89.4134 134.312 89.7854 134.708 90.2414 134.984C90.7094 135.248 91.2014 135.38 91.7174 135.38C92.2454 135.38 92.7374 135.248 93.1934 134.984C93.6494 134.72 94.0154 134.336 94.2914 133.832C94.5794 133.316 94.7234 132.716 94.7234 132.032Z" fill="#3A2B1B"/>
<path d="M101.541 123.68V137H99.4886V123.68H101.541Z" fill="#3A2B1B"/>
<path d="M107.835 137.162C107.055 137.162 106.353 137.024 105.729 136.748C105.117 136.46 104.631 136.076 104.271 135.596C103.911 135.104 103.719 134.558 103.695 133.958H105.819C105.855 134.378 106.053 134.732 106.413 135.02C106.785 135.296 107.247 135.434 107.799 135.434C108.375 135.434 108.819 135.326 109.131 135.11C109.455 134.882 109.617 134.594 109.617 134.246C109.617 133.874 109.437 133.598 109.077 133.418C108.729 133.238 108.171 133.04 107.403 132.824C106.659 132.62 106.053 132.422 105.585 132.23C105.117 132.038 104.709 131.744 104.361 131.348C104.025 130.952 103.857 130.43 103.857 129.782C103.857 129.254 104.013 128.774 104.325 128.342C104.637 127.898 105.081 127.55 105.657 127.298C106.245 127.046 106.917 126.92 107.673 126.92C108.801 126.92 109.707 127.208 110.391 127.784C111.087 128.348 111.459 129.122 111.507 130.106H109.455C109.419 129.662 109.239 129.308 108.915 129.044C108.591 128.78 108.153 128.648 107.601 128.648C107.061 128.648 106.647 128.75 106.359 128.954C106.071 129.158 105.927 129.428 105.927 129.764C105.927 130.028 106.023 130.25 106.215 130.43C106.407 130.61 106.641 130.754 106.917 130.862C107.193 130.958 107.601 131.084 108.141 131.24C108.861 131.432 109.449 131.63 109.905 131.834C110.373 132.026 110.775 132.314 111.111 132.698C111.447 133.082 111.621 133.592 111.633 134.228C111.633 134.792 111.477 135.296 111.165 135.74C110.853 136.184 110.409 136.532 109.833 136.784C109.269 137.036 108.603 137.162 107.835 137.162Z" fill="#3A2B1B"/>
<path fill-rule="evenodd" clip-rule="evenodd" d="M53.5 105C81.9427 105 105 81.9427 105 53.5C105 25.0573 81.9427 2 53.5 2C25.0573 2 2 25.0573 2 53.5C2 81.9427 25.0573 105 53.5 105ZM53.5 107C83.0472 107 107 83.0472 107 53.5C107 23.9528 83.0472 0 53.5 0C23.9528 0 0 23.9528 0 53.5C0 83.0472 23.9528 107 53.5 107Z" fill="#B89473"/>
<path d="M78.0992 74.2975L60.7214 44.2393V27.4844H64.237V23.9688H43.1433V27.4844H46.6589V44.2393L29.2818 74.2975C28.1155 76.3153 28.114 78.7253 29.2793 80.7443C30.4438 82.7635 32.5312 83.9687 34.8614 83.9687H72.5189C74.8498 83.9687 76.9369 82.7635 78.1018 80.7443C79.2671 78.7253 79.2656 76.3153 78.0992 74.2975ZM41.3855 67.4453C41.3855 66.1507 42.4354 65.1016 43.7292 65.1016C45.0238 65.1016 46.073 66.1507 46.073 67.4453C46.073 68.7399 45.0238 69.7891 43.7292 69.7891C42.4354 69.7891 41.3855 68.7399 41.3855 67.4453ZM46.073 76.8203C44.7792 76.8203 43.7292 75.7711 43.7292 74.4766C43.7292 73.182 44.7792 72.1328 46.073 72.1328C47.3675 72.1328 48.4167 73.182 48.4167 74.4766C48.4167 75.7711 47.3675 76.8203 46.073 76.8203ZM56.6198 71.5469C54.6786 71.5469 53.1042 69.9725 53.1042 68.0312C53.1042 66.09 54.6786 64.5156 56.6198 64.5156C58.5619 64.5156 60.1355 66.09 60.1355 68.0312C60.1355 69.9725 58.5619 71.5469 56.6198 71.5469ZM44.0112 55.8437L50.1745 45.1826V27.4844H57.2058V45.1826L63.3698 55.8437H44.0112ZM67.1667 76.8203C65.8729 76.8203 64.823 75.7711 64.823 74.4766C64.823 73.182 65.8729 72.1328 67.1667 72.1328C68.4613 72.1328 69.5105 73.182 69.5105 74.4766C69.5105 75.7711 68.4613 76.8203 67.1667 76.8203Z" fill="#5B7A78"/>
</svg>
