<svg width="107" height="107" viewBox="0 0 107 107" fill="none" xmlns="http://www.w3.org/2000/svg">
<path fill-rule="evenodd" clip-rule="evenodd" d="M53.5 105C81.9427 105 105 81.9427 105 53.5C105 25.0573 81.9427 2 53.5 2C25.0573 2 2 25.0573 2 53.5C2 81.9427 25.0573 105 53.5 105ZM53.5 107C83.0472 107 107 83.0472 107 53.5C107 23.9528 83.0472 0 53.5 0C23.9528 0 0 23.9528 0 53.5C0 83.0472 23.9528 107 53.5 107Z" fill="#B89473"/>
<path d="M81.9845 55.4815C81.9845 55.1285 81.7945 54.8028 81.4871 54.6292L81.4868 54.629C81.4859 54.6284 81.4849 54.6278 81.484 54.6273C81.4272 54.5897 81.3669 54.5572 81.3034 54.5305L68.2986 48.7187V31.2292C68.2986 31.2207 68.2985 31.2124 68.2983 31.204C68.2982 31.2013 68.2982 31.1986 68.298 31.1958C68.2979 31.1902 68.2977 31.1846 68.2974 31.179C68.2973 31.1757 68.2972 31.1723 68.2969 31.169C68.2966 31.1618 68.2962 31.1546 68.2956 31.1475C68.2953 31.1425 68.2948 31.1376 68.2944 31.1327C68.2941 31.1301 68.2939 31.1274 68.2937 31.1249C68.2729 30.902 68.1864 30.6982 68.0538 30.533C68.0519 30.5306 68.05 30.5283 68.0481 30.5259C68.0454 30.5227 68.0428 30.5195 68.0401 30.5163C68.0373 30.5129 68.0345 30.5096 68.0316 30.5062C68.0295 30.5038 68.0275 30.5013 68.0254 30.499C68.0204 30.4932 68.0153 30.4874 68.01 30.4817C68.009 30.4806 68.008 30.4795 68.0069 30.4784C68.0022 30.4733 67.9975 30.4682 67.9927 30.4632C67.9916 30.4619 67.9904 30.4608 67.9892 30.4596C67.9839 30.454 67.9785 30.4485 67.9731 30.443C67.9727 30.4427 67.9724 30.4423 67.9721 30.442C67.966 30.4359 67.9597 30.4298 67.9534 30.4237C67.9532 30.4235 67.9529 30.4234 67.9528 30.4232C67.947 30.4177 67.9412 30.4123 67.9353 30.4069C67.9342 30.4059 67.9331 30.4049 67.932 30.4039C67.9267 30.3991 67.9212 30.3942 67.9157 30.3896C67.9149 30.3888 67.914 30.3879 67.913 30.3871C67.9068 30.3819 67.9007 30.3767 67.8945 30.3715C67.8927 30.3701 67.8909 30.3686 67.8892 30.3673C67.8851 30.364 67.8809 30.3605 67.8767 30.3572C67.8739 30.3549 67.871 30.3527 67.8682 30.3505C67.865 30.348 67.8619 30.3456 67.8586 30.3431C67.7845 30.2867 67.7031 30.2394 67.6159 30.2028L53.954 24.0969C53.665 23.9677 53.3345 23.9677 53.0455 24.0969L39.3831 30.2025C39.2961 30.2392 39.2147 30.2865 39.1405 30.3429C39.1373 30.3454 39.1341 30.3478 39.131 30.3503C39.1281 30.3525 39.1253 30.3547 39.1225 30.3569C39.1183 30.3603 39.1142 30.3636 39.1099 30.3671C39.1081 30.3685 39.1064 30.3699 39.1047 30.3713C39.0985 30.3764 39.0923 30.3817 39.0862 30.3869C39.0853 30.3877 39.0844 30.3885 39.0834 30.3893C39.078 30.394 39.0725 30.3989 39.0672 30.4037C39.0661 30.4047 39.0649 30.4057 39.0638 30.4067C39.0579 30.4121 39.0521 30.4175 39.0464 30.423C39.0461 30.4232 39.046 30.4233 39.0458 30.4235C39.0395 30.4295 39.0332 30.4357 39.0271 30.4418C39.0268 30.4421 39.0264 30.4424 39.0261 30.4428C39.0206 30.4482 39.0153 30.4538 39.01 30.4594C39.0088 30.4606 39.0076 30.4617 39.0065 30.4629C39.0017 30.4679 38.9969 30.4731 38.9923 30.4782C38.9912 30.4793 38.9901 30.4804 38.9891 30.4815C38.984 30.4872 38.9789 30.493 38.9738 30.4988C38.9717 30.5011 38.9697 30.5036 38.9675 30.506C38.9648 30.5094 38.9619 30.5127 38.9591 30.516C38.9564 30.5193 38.9537 30.5225 38.9511 30.5257C38.9492 30.5281 38.9473 30.5304 38.9455 30.5327C38.8128 30.6979 38.7263 30.9017 38.7056 31.1247C38.7054 31.1272 38.7051 31.1299 38.7049 31.1325C38.7045 31.1375 38.704 31.1424 38.7037 31.1473C38.7031 31.1544 38.7027 31.1616 38.7024 31.1688C38.7021 31.1721 38.702 31.1754 38.7019 31.1788C38.7017 31.1843 38.7015 31.19 38.7012 31.1956C38.7011 31.1984 38.7011 31.201 38.701 31.2038C38.7008 31.2122 38.7007 31.2206 38.7007 31.229V48.7184L25.6959 54.5304C25.6956 54.5305 25.6952 54.5306 25.6949 54.5308C25.2836 54.7033 25.0149 55.1053 25.0149 55.5513V55.5565V73.7676C25.0149 74.2066 25.273 74.6048 25.674 74.7839C25.674 74.7839 39.3613 80.9007 39.3621 80.901L39.3685 80.9039C39.6504 81.0313 39.9735 81.032 40.2558 80.9055L40.2682 80.8999L53.4998 74.9869L66.7313 80.9001C66.7314 80.9003 66.7486 80.9067 66.7762 80.9172C67.0551 81.0232 67.3652 81.0173 67.6395 80.9001C67.6397 80.9001 67.6397 80.9 67.6397 80.9L81.3254 74.7839C81.7263 74.6048 81.9845 74.2066 81.9845 73.7676V55.5565V55.4815ZM67.1855 60.4534L56.2283 55.5565L67.1855 50.6597L78.1428 55.5565L67.1855 60.4534ZM53.4998 41.7636C54.1145 41.7636 54.6129 41.2652 54.6129 40.6505V38.0673L66.0723 32.9462V48.7185L54.6129 53.8397V50.7154C54.6129 50.1005 54.1145 49.6021 53.4998 49.6021C52.885 49.6021 52.3866 50.1005 52.3866 50.7154V53.8397L40.9272 48.7185V32.9462L52.3866 38.0673V40.6505C52.3865 41.2653 52.885 41.7636 53.4998 41.7636V41.7636ZM53.4998 26.3325L64.4571 31.2294L53.4998 36.1261L42.5424 31.2293L53.4998 26.3325ZM39.814 50.6597L50.7713 55.5565L39.814 60.4534L28.8567 55.5565L39.814 50.6597ZM27.2413 57.2734L38.7309 62.4081C38.7111 62.491 38.7007 62.5774 38.7007 62.6664V78.1669L27.2413 73.0457V57.2734ZM40.897 62.408L52.3865 57.2734V73.0458L40.9271 78.167V62.6663C40.9271 62.5774 40.9167 62.4909 40.897 62.408V62.408ZM54.6129 57.2734L66.1024 62.4081C66.0827 62.491 66.0723 62.5774 66.0723 62.6664V78.1669L54.6129 73.0457V57.2734ZM68.2987 78.1669V62.6663C68.2987 62.5773 68.2883 62.4908 68.2685 62.408L79.7581 57.2733V73.0457L68.2987 78.1669Z" fill="#5B7A78"/>
<path d="M53.4996 46.7752C53.0285 46.7752 52.5965 46.4664 52.4453 46.0197C52.3028 45.5989 52.4309 45.1183 52.7655 44.8253C53.1303 44.5059 53.6752 44.4626 54.087 44.7173C54.4817 44.9615 54.6859 45.4445 54.5866 45.8978C54.4758 46.4033 54.018 46.7752 53.4996 46.7752V46.7752Z" fill="#5B7A78"/>
</svg>
