<?xml version="1.0" encoding="utf-8"?>
<!-- Generator: Adobe Illustrator 25.2.1, SVG Export Plug-In . SVG Version: 6.00 Build 0)  -->
<svg version="1.1" id="Layer_1" xmlns="http://www.w3.org/2000/svg" xmlns:xlink="http://www.w3.org/1999/xlink" x="0px" y="0px"
	 viewBox="0 0 107 107" style="enable-background:new 0 0 107 107;" xml:space="preserve">
<style type="text/css">
	.st0{fill:none;}
	.st1{fill:#B89473;}
	.st2{fill:#5B7A78;}
</style>
<g>
	<path class="st0" d="M46.1,72.1c-1.3,0-2.3,1-2.3,2.3c0,1.3,1,2.3,2.3,2.3c1.3,0,2.3-1,2.3-2.3C48.4,73.2,47.4,72.1,46.1,72.1z"/>
	<path class="st0" d="M56.6,64.5c-1.9,0-3.5,1.6-3.5,3.5c0,1.9,1.6,3.5,3.5,3.5c1.9,0,3.5-1.6,3.5-3.5
		C60.1,66.1,58.6,64.5,56.6,64.5z"/>
	<path class="st0" d="M46.1,67.4c0-1.3-1-2.3-2.3-2.3c-1.3,0-2.3,1-2.3,2.3c0,1.3,1,2.3,2.3,2.3C45,69.8,46.1,68.7,46.1,67.4z"/>
	<polygon class="st0" points="57.2,27.5 50.2,27.5 50.2,45.2 44,55.8 63.4,55.8 57.2,45.2 	"/>
	<path class="st0" d="M53.5,2C25.1,2,2,25.1,2,53.5S25.1,105,53.5,105S105,81.9,105,53.5S81.9,2,53.5,2z M78.1,80.7
		c-1.2,2-3.3,3.2-5.6,3.2H34.9c-2.3,0-4.4-1.2-5.6-3.2c-1.2-2-1.2-4.4,0-6.4l17.4-30.1V27.5h-3.5V24h21.1v3.5h-3.5v16.8l17.4,30.1
		C79.3,76.3,79.3,78.7,78.1,80.7z"/>
	<path class="st0" d="M67.2,72.1c-1.3,0-2.3,1-2.3,2.3c0,1.3,1,2.3,2.3,2.3c1.3,0,2.3-1,2.3-2.3C69.5,73.2,68.5,72.1,67.2,72.1z"/>
	<path class="st1" d="M53.5,0C24,0,0,24,0,53.5S24,107,53.5,107S107,83,107,53.5S83,0,53.5,0z M53.5,105C25.1,105,2,81.9,2,53.5
		S25.1,2,53.5,2S105,25.1,105,53.5S81.9,105,53.5,105z"/>
	<path class="st2" d="M60.7,44.2V27.5h3.5V24H43.1v3.5h3.5v16.8L29.3,74.3c-1.2,2-1.2,4.4,0,6.4c1.2,2,3.3,3.2,5.6,3.2h37.7
		c2.3,0,4.4-1.2,5.6-3.2c1.2-2,1.2-4.4,0-6.4L60.7,44.2z M41.4,67.4c0-1.3,1-2.3,2.3-2.3c1.3,0,2.3,1,2.3,2.3c0,1.3-1,2.3-2.3,2.3
		C42.4,69.8,41.4,68.7,41.4,67.4z M46.1,76.8c-1.3,0-2.3-1-2.3-2.3c0-1.3,1-2.3,2.3-2.3c1.3,0,2.3,1,2.3,2.3
		C48.4,75.8,47.4,76.8,46.1,76.8z M56.6,71.5c-1.9,0-3.5-1.6-3.5-3.5c0-1.9,1.6-3.5,3.5-3.5c1.9,0,3.5,1.6,3.5,3.5
		C60.1,70,58.6,71.5,56.6,71.5z M44,55.8l6.2-10.7V27.5h7v17.7l6.2,10.7H44z M67.2,76.8c-1.3,0-2.3-1-2.3-2.3c0-1.3,1-2.3,2.3-2.3
		c1.3,0,2.3,1,2.3,2.3C69.5,75.8,68.5,76.8,67.2,76.8z"/>
</g>
</svg>
