<svg width="107" height="161" viewBox="0 0 107 161" fill="none" xmlns="http://www.w3.org/2000/svg">
<path d="M20.6114 134H18.5594L12.3854 124.658V134H10.3334V121.472H12.3854L18.5594 130.796V121.472H20.6114V134Z" fill="#3A2B1B"/>
<path d="M27.608 134.162C26.672 134.162 25.826 133.952 25.07 133.532C24.314 133.1 23.72 132.5 23.288 131.732C22.856 130.952 22.64 130.052 22.64 129.032C22.64 128.024 22.862 127.13 23.306 126.35C23.75 125.57 24.356 124.97 25.124 124.55C25.892 124.13 26.75 123.92 27.698 123.92C28.646 123.92 29.504 124.13 30.272 124.55C31.04 124.97 31.646 125.57 32.09 126.35C32.534 127.13 32.756 128.024 32.756 129.032C32.756 130.04 32.528 130.934 32.072 131.714C31.616 132.494 30.992 133.1 30.2 133.532C29.42 133.952 28.556 134.162 27.608 134.162ZM27.608 132.38C28.136 132.38 28.628 132.254 29.084 132.002C29.552 131.75 29.93 131.372 30.218 130.868C30.506 130.364 30.65 129.752 30.65 129.032C30.65 128.312 30.512 127.706 30.236 127.214C29.96 126.71 29.594 126.332 29.138 126.08C28.682 125.828 28.19 125.702 27.662 125.702C27.134 125.702 26.642 125.828 26.186 126.08C25.742 126.332 25.388 126.71 25.124 127.214C24.86 127.706 24.728 128.312 24.728 129.032C24.728 130.1 24.998 130.928 25.538 131.516C26.09 132.092 26.78 132.38 27.608 132.38Z" fill="#3A2B1B"/>
<path d="M38.7763 128.996C38.7763 128 38.9803 127.118 39.3883 126.35C39.8083 125.582 40.3723 124.988 41.0803 124.568C41.8003 124.136 42.5923 123.92 43.4563 123.92C44.2363 123.92 44.9143 124.076 45.4903 124.388C46.0783 124.688 46.5463 125.066 46.8943 125.522V124.082H48.9643V134H46.8943V132.524C46.5463 132.992 46.0723 133.382 45.4723 133.694C44.8723 134.006 44.1883 134.162 43.4203 134.162C42.5683 134.162 41.7883 133.946 41.0803 133.514C40.3723 133.07 39.8083 132.458 39.3883 131.678C38.9803 130.886 38.7763 129.992 38.7763 128.996ZM46.8943 129.032C46.8943 128.348 46.7503 127.754 46.4623 127.25C46.1863 126.746 45.8203 126.362 45.3643 126.098C44.9083 125.834 44.4163 125.702 43.8883 125.702C43.3603 125.702 42.8683 125.834 42.4123 126.098C41.9563 126.35 41.5843 126.728 41.2963 127.232C41.0203 127.724 40.8823 128.312 40.8823 128.996C40.8823 129.68 41.0203 130.28 41.2963 130.796C41.5843 131.312 41.9563 131.708 42.4123 131.984C42.8803 132.248 43.3723 132.38 43.8883 132.38C44.4163 132.38 44.9083 132.248 45.3643 131.984C45.8203 131.72 46.1863 131.336 46.4623 130.832C46.7503 130.316 46.8943 129.716 46.8943 129.032Z" fill="#3A2B1B"/>
<path d="M50.9755 128.996C50.9755 128 51.1795 127.118 51.5875 126.35C52.0075 125.582 52.5715 124.988 53.2795 124.568C53.9995 124.136 54.7975 123.92 55.6735 123.92C56.3215 123.92 56.9575 124.064 57.5815 124.352C58.2175 124.628 58.7215 125 59.0935 125.468V120.68H61.1635V134H59.0935V132.506C58.7575 132.986 58.2895 133.382 57.6895 133.694C57.1015 134.006 56.4235 134.162 55.6555 134.162C54.7915 134.162 53.9995 133.946 53.2795 133.514C52.5715 133.07 52.0075 132.458 51.5875 131.678C51.1795 130.886 50.9755 129.992 50.9755 128.996ZM59.0935 129.032C59.0935 128.348 58.9495 127.754 58.6615 127.25C58.3855 126.746 58.0195 126.362 57.5635 126.098C57.1075 125.834 56.6155 125.702 56.0875 125.702C55.5595 125.702 55.0675 125.834 54.6115 126.098C54.1555 126.35 53.7835 126.728 53.4955 127.232C53.2195 127.724 53.0815 128.312 53.0815 128.996C53.0815 129.68 53.2195 130.28 53.4955 130.796C53.7835 131.312 54.1555 131.708 54.6115 131.984C55.0795 132.248 55.5715 132.38 56.0875 132.38C56.6155 132.38 57.1075 132.248 57.5635 131.984C58.0195 131.72 58.3855 131.336 58.6615 130.832C58.9495 130.316 59.0935 129.716 59.0935 129.032Z" fill="#3A2B1B"/>
<path d="M63.1748 128.996C63.1748 128 63.3788 127.118 63.7868 126.35C64.2068 125.582 64.7708 124.988 65.4788 124.568C66.1988 124.136 66.9968 123.92 67.8728 123.92C68.5208 123.92 69.1568 124.064 69.7808 124.352C70.4168 124.628 70.9208 125 71.2928 125.468V120.68H73.3628V134H71.2928V132.506C70.9568 132.986 70.4888 133.382 69.8888 133.694C69.3008 134.006 68.6228 134.162 67.8548 134.162C66.9908 134.162 66.1988 133.946 65.4788 133.514C64.7708 133.07 64.2068 132.458 63.7868 131.678C63.3788 130.886 63.1748 129.992 63.1748 128.996ZM71.2928 129.032C71.2928 128.348 71.1488 127.754 70.8608 127.25C70.5848 126.746 70.2188 126.362 69.7628 126.098C69.3068 125.834 68.8148 125.702 68.2868 125.702C67.7588 125.702 67.2668 125.834 66.8108 126.098C66.3548 126.35 65.9828 126.728 65.6948 127.232C65.4188 127.724 65.2808 128.312 65.2808 128.996C65.2808 129.68 65.4188 130.28 65.6948 130.796C65.9828 131.312 66.3548 131.708 66.8108 131.984C67.2788 132.248 67.7708 132.38 68.2868 132.38C68.8148 132.38 69.3068 132.248 69.7628 131.984C70.2188 131.72 70.5848 131.336 70.8608 130.832C71.1488 130.316 71.2928 129.716 71.2928 129.032Z" fill="#3A2B1B"/>
<path d="M85.148 128.798C85.148 129.17 85.124 129.506 85.076 129.806H77.498C77.558 130.598 77.852 131.234 78.38 131.714C78.908 132.194 79.556 132.434 80.324 132.434C81.428 132.434 82.208 131.972 82.664 131.048H84.878C84.578 131.96 84.032 132.71 83.24 133.298C82.46 133.874 81.488 134.162 80.324 134.162C79.376 134.162 78.524 133.952 77.768 133.532C77.024 133.1 76.436 132.5 76.004 131.732C75.584 130.952 75.374 130.052 75.374 129.032C75.374 128.012 75.578 127.118 75.986 126.35C76.406 125.57 76.988 124.97 77.732 124.55C78.488 124.13 79.352 123.92 80.324 123.92C81.26 123.92 82.094 124.124 82.826 124.532C83.558 124.94 84.128 125.516 84.536 126.26C84.944 126.992 85.148 127.838 85.148 128.798ZM83.006 128.15C82.994 127.394 82.724 126.788 82.196 126.332C81.668 125.876 81.014 125.648 80.234 125.648C79.526 125.648 78.92 125.876 78.416 126.332C77.912 126.776 77.612 127.382 77.516 128.15H83.006Z" fill="#3A2B1B"/>
<path d="M86.4834 128.996C86.4834 128 86.6874 127.118 87.0954 126.35C87.5154 125.582 88.0794 124.988 88.7874 124.568C89.5074 124.136 90.3054 123.92 91.1814 123.92C91.8294 123.92 92.4654 124.064 93.0894 124.352C93.7254 124.628 94.2294 125 94.6014 125.468V120.68H96.6714V134H94.6014V132.506C94.2654 132.986 93.7974 133.382 93.1974 133.694C92.6094 134.006 91.9314 134.162 91.1634 134.162C90.2994 134.162 89.5074 133.946 88.7874 133.514C88.0794 133.07 87.5154 132.458 87.0954 131.678C86.6874 130.886 86.4834 129.992 86.4834 128.996ZM94.6014 129.032C94.6014 128.348 94.4574 127.754 94.1694 127.25C93.8934 126.746 93.5274 126.362 93.0714 126.098C92.6154 125.834 92.1234 125.702 91.5954 125.702C91.0674 125.702 90.5754 125.834 90.1194 126.098C89.6634 126.35 89.2914 126.728 89.0034 127.232C88.7274 127.724 88.5894 128.312 88.5894 128.996C88.5894 129.68 88.7274 130.28 89.0034 130.796C89.2914 131.312 89.6634 131.708 90.1194 131.984C90.5874 132.248 91.0794 132.38 91.5954 132.38C92.1234 132.38 92.6154 132.248 93.0714 131.984C93.5274 131.72 93.8934 131.336 94.1694 130.832C94.4574 130.316 94.6014 129.716 94.6014 129.032Z" fill="#3A2B1B"/>
<path d="M27.3367 156.162C26.5567 156.162 25.8547 156.024 25.2307 155.748C24.6187 155.46 24.1327 155.076 23.7727 154.596C23.4127 154.104 23.2207 153.558 23.1967 152.958H25.3207C25.3567 153.378 25.5547 153.732 25.9147 154.02C26.2867 154.296 26.7487 154.434 27.3007 154.434C27.8767 154.434 28.3207 154.326 28.6327 154.11C28.9567 153.882 29.1187 153.594 29.1187 153.246C29.1187 152.874 28.9387 152.598 28.5787 152.418C28.2307 152.238 27.6727 152.04 26.9047 151.824C26.1607 151.62 25.5547 151.422 25.0867 151.23C24.6187 151.038 24.2107 150.744 23.8627 150.348C23.5267 149.952 23.3587 149.43 23.3587 148.782C23.3587 148.254 23.5147 147.774 23.8267 147.342C24.1387 146.898 24.5827 146.55 25.1587 146.298C25.7467 146.046 26.4187 145.92 27.1747 145.92C28.3027 145.92 29.2087 146.208 29.8927 146.784C30.5887 147.348 30.9607 148.122 31.0087 149.106H28.9567C28.9207 148.662 28.7407 148.308 28.4167 148.044C28.0927 147.78 27.6547 147.648 27.1027 147.648C26.5627 147.648 26.1487 147.75 25.8607 147.954C25.5727 148.158 25.4287 148.428 25.4287 148.764C25.4287 149.028 25.5247 149.25 25.7167 149.43C25.9087 149.61 26.1427 149.754 26.4187 149.862C26.6947 149.958 27.1027 150.084 27.6427 150.24C28.3627 150.432 28.9507 150.63 29.4067 150.834C29.8747 151.026 30.2767 151.314 30.6127 151.698C30.9487 152.082 31.1227 152.592 31.1347 153.228C31.1347 153.792 30.9787 154.296 30.6667 154.74C30.3547 155.184 29.9107 155.532 29.3347 155.784C28.7707 156.036 28.1047 156.162 27.3367 156.162Z" fill="#3A2B1B"/>
<path d="M42.3339 146.082V156H40.2819V154.83C39.9579 155.238 39.5319 155.562 39.0039 155.802C38.4879 156.03 37.9359 156.144 37.3479 156.144C36.5679 156.144 35.8659 155.982 35.2419 155.658C34.6299 155.334 34.1439 154.854 33.7839 154.218C33.4359 153.582 33.2619 152.814 33.2619 151.914V146.082H35.2959V151.608C35.2959 152.496 35.5179 153.18 35.9619 153.66C36.4059 154.128 37.0119 154.362 37.7799 154.362C38.5479 154.362 39.1539 154.128 39.5979 153.66C40.0539 153.18 40.2819 152.496 40.2819 151.608V146.082H42.3339Z" fill="#3A2B1B"/>
<path d="M49.0374 145.92C49.8054 145.92 50.4834 146.076 51.0714 146.388C51.6714 146.688 52.1394 147.066 52.4754 147.522V146.082H54.5454V156.162C54.5454 157.074 54.3534 157.884 53.9694 158.592C53.5854 159.312 53.0274 159.876 52.2954 160.284C51.5754 160.692 50.7114 160.896 49.7034 160.896C48.3594 160.896 47.2434 160.578 46.3554 159.942C45.4674 159.318 44.9634 158.466 44.8434 157.386H46.8774C47.0334 157.902 47.3634 158.316 47.8674 158.628C48.3834 158.952 48.9954 159.114 49.7034 159.114C50.5314 159.114 51.1974 158.862 51.7014 158.358C52.2174 157.854 52.4754 157.122 52.4754 156.162V154.506C52.1274 154.974 51.6534 155.37 51.0534 155.694C50.4654 156.006 49.7934 156.162 49.0374 156.162C48.1734 156.162 47.3814 155.946 46.6614 155.514C45.9534 155.07 45.3894 154.458 44.9694 153.678C44.5614 152.886 44.3574 151.992 44.3574 150.996C44.3574 150 44.5614 149.118 44.9694 148.35C45.3894 147.582 45.9534 146.988 46.6614 146.568C47.3814 146.136 48.1734 145.92 49.0374 145.92ZM52.4754 151.032C52.4754 150.348 52.3314 149.754 52.0434 149.25C51.7674 148.746 51.4014 148.362 50.9454 148.098C50.4894 147.834 49.9974 147.702 49.4694 147.702C48.9414 147.702 48.4494 147.834 47.9934 148.098C47.5374 148.35 47.1654 148.728 46.8774 149.232C46.6014 149.724 46.4634 150.312 46.4634 150.996C46.4634 151.68 46.6014 152.28 46.8774 152.796C47.1654 153.312 47.5374 153.708 47.9934 153.984C48.4614 154.248 48.9534 154.38 49.4694 154.38C49.9974 154.38 50.4894 154.248 50.9454 153.984C51.4014 153.72 51.7674 153.336 52.0434 152.832C52.3314 152.316 52.4754 151.716 52.4754 151.032Z" fill="#3A2B1B"/>
<path d="M56.5566 150.996C56.5566 150 56.7606 149.118 57.1686 148.35C57.5886 147.582 58.1526 146.988 58.8606 146.568C59.5806 146.136 60.3726 145.92 61.2366 145.92C62.0166 145.92 62.6946 146.076 63.2706 146.388C63.8586 146.688 64.3266 147.066 64.6746 147.522V146.082H66.7446V156H64.6746V154.524C64.3266 154.992 63.8526 155.382 63.2526 155.694C62.6526 156.006 61.9686 156.162 61.2006 156.162C60.3486 156.162 59.5686 155.946 58.8606 155.514C58.1526 155.07 57.5886 154.458 57.1686 153.678C56.7606 152.886 56.5566 151.992 56.5566 150.996ZM64.6746 151.032C64.6746 150.348 64.5306 149.754 64.2426 149.25C63.9666 148.746 63.6006 148.362 63.1446 148.098C62.6886 147.834 62.1966 147.702 61.6686 147.702C61.1406 147.702 60.6486 147.834 60.1926 148.098C59.7366 148.35 59.3646 148.728 59.0766 149.232C58.8006 149.724 58.6626 150.312 58.6626 150.996C58.6626 151.68 58.8006 152.28 59.0766 152.796C59.3646 153.312 59.7366 153.708 60.1926 153.984C60.6606 154.248 61.1526 154.38 61.6686 154.38C62.1966 154.38 62.6886 154.248 63.1446 153.984C63.6006 153.72 63.9666 153.336 64.2426 152.832C64.5306 152.316 64.6746 151.716 64.6746 151.032Z" fill="#3A2B1B"/>
<path d="M71.4918 147.522C71.7918 147.018 72.1878 146.628 72.6798 146.352C73.1838 146.064 73.7778 145.92 74.4618 145.92V148.044H73.9398C73.1358 148.044 72.5238 148.248 72.1038 148.656C71.6958 149.064 71.4918 149.772 71.4918 150.78V156H69.4398V146.082H71.4918V147.522Z" fill="#3A2B1B"/>
<path d="M79.948 156.162C79.168 156.162 78.466 156.024 77.842 155.748C77.23 155.46 76.744 155.076 76.384 154.596C76.024 154.104 75.832 153.558 75.808 152.958H77.932C77.968 153.378 78.166 153.732 78.526 154.02C78.898 154.296 79.36 154.434 79.912 154.434C80.488 154.434 80.932 154.326 81.244 154.11C81.568 153.882 81.73 153.594 81.73 153.246C81.73 152.874 81.55 152.598 81.19 152.418C80.842 152.238 80.284 152.04 79.516 151.824C78.772 151.62 78.166 151.422 77.698 151.23C77.23 151.038 76.822 150.744 76.474 150.348C76.138 149.952 75.97 149.43 75.97 148.782C75.97 148.254 76.126 147.774 76.438 147.342C76.75 146.898 77.194 146.55 77.77 146.298C78.358 146.046 79.03 145.92 79.786 145.92C80.914 145.92 81.82 146.208 82.504 146.784C83.2 147.348 83.572 148.122 83.62 149.106H81.568C81.532 148.662 81.352 148.308 81.028 148.044C80.704 147.78 80.266 147.648 79.714 147.648C79.174 147.648 78.76 147.75 78.472 147.954C78.184 148.158 78.04 148.428 78.04 148.764C78.04 149.028 78.136 149.25 78.328 149.43C78.52 149.61 78.754 149.754 79.03 149.862C79.306 149.958 79.714 150.084 80.254 150.24C80.974 150.432 81.562 150.63 82.018 150.834C82.486 151.026 82.888 151.314 83.224 151.698C83.56 152.082 83.734 152.592 83.746 153.228C83.746 153.792 83.59 154.296 83.278 154.74C82.966 155.184 82.522 155.532 81.946 155.784C81.382 156.036 80.716 156.162 79.948 156.162Z" fill="#3A2B1B"/>
<path fill-rule="evenodd" clip-rule="evenodd" d="M53.5 105C81.9427 105 105 81.9427 105 53.5C105 25.0573 81.9427 2 53.5 2C25.0573 2 2 25.0573 2 53.5C2 81.9427 25.0573 105 53.5 105ZM53.5 107C83.0472 107 107 83.0472 107 53.5C107 23.9528 83.0472 0 53.5 0C23.9528 0 0 23.9528 0 53.5C0 83.0472 23.9528 107 53.5 107Z" fill="#B89473"/>
<path d="M81.9845 55.4815C81.9845 55.1285 81.7945 54.8028 81.4871 54.6292L81.4868 54.629C81.4859 54.6284 81.4849 54.6278 81.484 54.6273C81.4272 54.5897 81.3669 54.5572 81.3034 54.5305L68.2986 48.7187V31.2292C68.2986 31.2207 68.2985 31.2124 68.2983 31.204C68.2982 31.2013 68.2982 31.1986 68.298 31.1958C68.2979 31.1902 68.2977 31.1846 68.2974 31.179C68.2973 31.1757 68.2972 31.1723 68.2969 31.169C68.2966 31.1618 68.2962 31.1546 68.2956 31.1475C68.2953 31.1425 68.2948 31.1376 68.2944 31.1327C68.2941 31.1301 68.2939 31.1274 68.2937 31.1249C68.2729 30.902 68.1864 30.6982 68.0538 30.533C68.0519 30.5306 68.05 30.5283 68.0481 30.5259C68.0454 30.5227 68.0428 30.5195 68.0401 30.5163C68.0373 30.5129 68.0345 30.5096 68.0316 30.5062C68.0295 30.5038 68.0275 30.5013 68.0254 30.499C68.0204 30.4932 68.0153 30.4874 68.01 30.4817C68.009 30.4806 68.008 30.4795 68.0069 30.4784C68.0022 30.4733 67.9975 30.4682 67.9927 30.4632C67.9916 30.4619 67.9904 30.4608 67.9892 30.4596C67.9839 30.454 67.9785 30.4485 67.9731 30.443C67.9727 30.4427 67.9724 30.4423 67.9721 30.442C67.966 30.4359 67.9597 30.4298 67.9534 30.4237C67.9532 30.4235 67.9529 30.4234 67.9528 30.4232C67.947 30.4177 67.9412 30.4123 67.9353 30.4069C67.9342 30.4059 67.9331 30.4049 67.932 30.4039C67.9267 30.3991 67.9212 30.3942 67.9157 30.3896C67.9149 30.3888 67.914 30.3879 67.913 30.3871C67.9068 30.3819 67.9007 30.3767 67.8945 30.3715C67.8927 30.3701 67.8909 30.3686 67.8892 30.3673C67.8851 30.364 67.8809 30.3605 67.8767 30.3572C67.8739 30.3549 67.871 30.3527 67.8682 30.3505C67.865 30.348 67.8619 30.3456 67.8586 30.3431C67.7845 30.2867 67.7031 30.2394 67.6159 30.2028L53.954 24.0969C53.665 23.9677 53.3345 23.9677 53.0455 24.0969L39.3831 30.2025C39.2961 30.2392 39.2147 30.2865 39.1405 30.3429C39.1373 30.3454 39.1341 30.3478 39.131 30.3503C39.1281 30.3525 39.1253 30.3547 39.1225 30.3569C39.1183 30.3603 39.1142 30.3636 39.1099 30.3671C39.1081 30.3685 39.1064 30.3699 39.1047 30.3713C39.0985 30.3764 39.0923 30.3817 39.0862 30.3869C39.0853 30.3877 39.0844 30.3885 39.0834 30.3893C39.078 30.394 39.0725 30.3989 39.0672 30.4037C39.0661 30.4047 39.0649 30.4057 39.0638 30.4067C39.0579 30.4121 39.0521 30.4175 39.0464 30.423C39.0461 30.4232 39.046 30.4233 39.0458 30.4235C39.0395 30.4295 39.0332 30.4357 39.0271 30.4418C39.0268 30.4421 39.0264 30.4424 39.0261 30.4428C39.0206 30.4482 39.0153 30.4538 39.01 30.4594C39.0088 30.4606 39.0076 30.4617 39.0065 30.4629C39.0017 30.4679 38.9969 30.4731 38.9923 30.4782C38.9912 30.4793 38.9901 30.4804 38.9891 30.4815C38.984 30.4872 38.9789 30.493 38.9738 30.4988C38.9717 30.5011 38.9697 30.5036 38.9675 30.506C38.9648 30.5094 38.9619 30.5127 38.9591 30.516C38.9564 30.5193 38.9537 30.5225 38.9511 30.5257C38.9492 30.5281 38.9473 30.5304 38.9455 30.5327C38.8128 30.6979 38.7263 30.9017 38.7056 31.1247C38.7054 31.1272 38.7051 31.1299 38.7049 31.1325C38.7045 31.1375 38.704 31.1424 38.7037 31.1473C38.7031 31.1544 38.7027 31.1616 38.7024 31.1688C38.7021 31.1721 38.702 31.1754 38.7019 31.1788C38.7017 31.1843 38.7015 31.19 38.7012 31.1956C38.7011 31.1984 38.7011 31.201 38.701 31.2038C38.7008 31.2122 38.7007 31.2206 38.7007 31.229V48.7184L25.6959 54.5304C25.6956 54.5305 25.6952 54.5306 25.6949 54.5308C25.2836 54.7033 25.0149 55.1053 25.0149 55.5513V55.5565V73.7676C25.0149 74.2066 25.273 74.6048 25.674 74.7839C25.674 74.7839 39.3613 80.9007 39.3621 80.901L39.3685 80.9039C39.6504 81.0313 39.9735 81.032 40.2558 80.9055L40.2682 80.8999L53.4998 74.9869L66.7313 80.9001C66.7314 80.9003 66.7486 80.9067 66.7762 80.9172C67.0551 81.0232 67.3652 81.0173 67.6395 80.9001C67.6397 80.9001 67.6397 80.9 67.6397 80.9L81.3254 74.7839C81.7263 74.6048 81.9845 74.2066 81.9845 73.7676V55.5565V55.4815ZM67.1855 60.4534L56.2283 55.5565L67.1855 50.6597L78.1428 55.5565L67.1855 60.4534ZM53.4998 41.7636C54.1145 41.7636 54.6129 41.2652 54.6129 40.6505V38.0673L66.0723 32.9462V48.7185L54.6129 53.8397V50.7154C54.6129 50.1005 54.1145 49.6021 53.4998 49.6021C52.885 49.6021 52.3866 50.1005 52.3866 50.7154V53.8397L40.9272 48.7185V32.9462L52.3866 38.0673V40.6505C52.3865 41.2653 52.885 41.7636 53.4998 41.7636V41.7636ZM53.4998 26.3325L64.4571 31.2294L53.4998 36.1261L42.5424 31.2293L53.4998 26.3325ZM39.814 50.6597L50.7713 55.5565L39.814 60.4534L28.8567 55.5565L39.814 50.6597ZM27.2413 57.2734L38.7309 62.4081C38.7111 62.491 38.7007 62.5774 38.7007 62.6664V78.1669L27.2413 73.0457V57.2734ZM40.897 62.408L52.3865 57.2734V73.0458L40.9271 78.167V62.6663C40.9271 62.5774 40.9167 62.4909 40.897 62.408V62.408ZM54.6129 57.2734L66.1024 62.4081C66.0827 62.491 66.0723 62.5774 66.0723 62.6664V78.1669L54.6129 73.0457V57.2734ZM68.2987 78.1669V62.6663C68.2987 62.5773 68.2883 62.4908 68.2685 62.408L79.7581 57.2733V73.0457L68.2987 78.1669Z" fill="#5B7A78"/>
<path d="M53.4996 46.7752C53.0285 46.7752 52.5965 46.4664 52.4453 46.0197C52.3028 45.5989 52.4309 45.1183 52.7655 44.8253C53.1303 44.5059 53.6752 44.4626 54.087 44.7173C54.4817 44.9616 54.6859 45.4445 54.5866 45.8978C54.4758 46.4034 54.018 46.7752 53.4996 46.7752V46.7752Z" fill="#5B7A78"/>
</svg>
