<?xml version="1.0" encoding="utf-8"?>
<!-- Generator: Adobe Illustrator 25.2.1, SVG Export Plug-In . SVG Version: 6.00 Build 0)  -->
<svg version="1.1" id="Layer_1" xmlns="http://www.w3.org/2000/svg" xmlns:xlink="http://www.w3.org/1999/xlink" x="0px" y="0px"
	 viewBox="0 0 107 107" style="enable-background:new 0 0 107 107;" xml:space="preserve">
<style type="text/css">
	.st0{fill:none;}
	.st1{fill:#B89473;}
	.st2{fill:#5B7A78;}
</style>
<g>
	<path class="st0" d="M53.5,2C25.1,2,2,25.1,2,53.5S25.1,105,53.5,105S105,81.9,105,53.5S81.9,2,53.5,2z M66.4,75H42.7V32.9H53v34.2
		h13.4V75z"/>
	<path class="st1" d="M53.5,0C24,0,0,24,0,53.5S24,107,53.5,107S107,83,107,53.5S83,0,53.5,0z M53.5,105C25.1,105,2,81.9,2,53.5
		S25.1,2,53.5,2S105,25.1,105,53.5S81.9,105,53.5,105z"/>
	<polygon class="st2" points="53,32.9 42.7,32.9 42.7,75 66.4,75 66.4,67.1 53,67.1 	"/>
</g>
</svg>
