<svg width="107" height="107" viewBox="0 0 107 107" fill="none" xmlns="http://www.w3.org/2000/svg">
<path fill-rule="evenodd" clip-rule="evenodd" d="M53.5 105C81.9427 105 105 81.9427 105 53.5C105 25.0573 81.9427 2 53.5 2C25.0573 2 2 25.0573 2 53.5C2 81.9427 25.0573 105 53.5 105ZM53.5 107C83.0472 107 107 83.0472 107 53.5C107 23.9528 83.0472 0 53.5 0C23.9528 0 0 23.9528 0 53.5C0 83.0472 23.9528 107 53.5 107Z" fill="#B89473"/>
<path d="M52.98 67.08H66.42V75H42.72V32.88H52.98V67.08Z" fill="#5B7A78"/>
</svg>
