<svg width="107" height="138" viewBox="0 0 107 138" fill="none" xmlns="http://www.w3.org/2000/svg">
<path d="M15.628 137H13.576L7.40201 127.658V137H5.35001V124.472H7.40201L13.576 133.796V124.472H15.628V137Z" fill="#3A2B1B"/>
<path d="M22.6247 137.162C21.6887 137.162 20.8427 136.952 20.0867 136.532C19.3307 136.1 18.7367 135.5 18.3047 134.732C17.8727 133.952 17.6567 133.052 17.6567 132.032C17.6567 131.024 17.8787 130.13 18.3227 129.35C18.7667 128.57 19.3727 127.97 20.1407 127.55C20.9087 127.13 21.7667 126.92 22.7147 126.92C23.6627 126.92 24.5207 127.13 25.2887 127.55C26.0567 127.97 26.6627 128.57 27.1067 129.35C27.5507 130.13 27.7727 131.024 27.7727 132.032C27.7727 133.04 27.5447 133.934 27.0887 134.714C26.6327 135.494 26.0087 136.1 25.2167 136.532C24.4367 136.952 23.5727 137.162 22.6247 137.162ZM22.6247 135.38C23.1527 135.38 23.6447 135.254 24.1007 135.002C24.5687 134.75 24.9467 134.372 25.2347 133.868C25.5227 133.364 25.6667 132.752 25.6667 132.032C25.6667 131.312 25.5287 130.706 25.2527 130.214C24.9767 129.71 24.6107 129.332 24.1547 129.08C23.6987 128.828 23.2067 128.702 22.6787 128.702C22.1507 128.702 21.6587 128.828 21.2027 129.08C20.7587 129.332 20.4047 129.71 20.1407 130.214C19.8767 130.706 19.7447 131.312 19.7447 132.032C19.7447 133.1 20.0147 133.928 20.5547 134.516C21.1067 135.092 21.7967 135.38 22.6247 135.38Z" fill="#3A2B1B"/>
<path d="M36.529 123.68V137H34.477V123.68H36.529Z" fill="#3A2B1B"/>
<path d="M38.5391 131.996C38.5391 131 38.7431 130.118 39.1511 129.35C39.5711 128.582 40.1351 127.988 40.8431 127.568C41.5631 127.136 42.3551 126.92 43.2191 126.92C43.9991 126.92 44.6771 127.076 45.2531 127.388C45.8411 127.688 46.3091 128.066 46.6571 128.522V127.082H48.7271V137H46.6571V135.524C46.3091 135.992 45.8351 136.382 45.2351 136.694C44.6351 137.006 43.9511 137.162 43.1831 137.162C42.3311 137.162 41.5511 136.946 40.8431 136.514C40.1351 136.07 39.5711 135.458 39.1511 134.678C38.7431 133.886 38.5391 132.992 38.5391 131.996ZM46.6571 132.032C46.6571 131.348 46.5131 130.754 46.2251 130.25C45.9491 129.746 45.5831 129.362 45.1271 129.098C44.6711 128.834 44.1791 128.702 43.6511 128.702C43.1231 128.702 42.6311 128.834 42.1751 129.098C41.7191 129.35 41.3471 129.728 41.0591 130.232C40.7831 130.724 40.6451 131.312 40.6451 131.996C40.6451 132.68 40.7831 133.28 41.0591 133.796C41.3471 134.312 41.7191 134.708 42.1751 134.984C42.6431 135.248 43.1351 135.38 43.6511 135.38C44.1791 135.38 44.6711 135.248 45.1271 134.984C45.5831 134.72 45.9491 134.336 46.2251 133.832C46.5131 133.316 46.6571 132.716 46.6571 132.032Z" fill="#3A2B1B"/>
<path d="M50.7383 132.032C50.7383 131.012 50.9423 130.118 51.3503 129.35C51.7703 128.57 52.3463 127.97 53.0783 127.55C53.8103 127.13 54.6503 126.92 55.5983 126.92C56.7983 126.92 57.7883 127.208 58.5683 127.784C59.3603 128.348 59.8943 129.158 60.1703 130.214H57.9563C57.7763 129.722 57.4883 129.338 57.0923 129.062C56.6963 128.786 56.1983 128.648 55.5983 128.648C54.7583 128.648 54.0863 128.948 53.5823 129.548C53.0903 130.136 52.8443 130.964 52.8443 132.032C52.8443 133.1 53.0903 133.934 53.5823 134.534C54.0863 135.134 54.7583 135.434 55.5983 135.434C56.7863 135.434 57.5723 134.912 57.9563 133.868H60.1703C59.8823 134.876 59.3423 135.68 58.5503 136.28C57.7583 136.868 56.7743 137.162 55.5983 137.162C54.6503 137.162 53.8103 136.952 53.0783 136.532C52.3463 136.1 51.7703 135.5 51.3503 134.732C50.9423 133.952 50.7383 133.052 50.7383 132.032Z" fill="#3A2B1B"/>
<path d="M64.6092 128.756V134.246C64.6092 134.618 64.6932 134.888 64.8612 135.056C65.0412 135.212 65.3412 135.29 65.7612 135.29H67.0212V137H65.4012C64.4772 137 63.7692 136.784 63.2772 136.352C62.7852 135.92 62.5392 135.218 62.5392 134.246V128.756H61.3692V127.082H62.5392V124.616H64.6092V127.082H67.0212V128.756H64.6092Z" fill="#3A2B1B"/>
<path d="M73.2145 137.162C72.2785 137.162 71.4325 136.952 70.6765 136.532C69.9205 136.1 69.3265 135.5 68.8945 134.732C68.4625 133.952 68.2465 133.052 68.2465 132.032C68.2465 131.024 68.4685 130.13 68.9125 129.35C69.3565 128.57 69.9625 127.97 70.7305 127.55C71.4985 127.13 72.3565 126.92 73.3045 126.92C74.2525 126.92 75.1105 127.13 75.8785 127.55C76.6465 127.97 77.2525 128.57 77.6965 129.35C78.1405 130.13 78.3625 131.024 78.3625 132.032C78.3625 133.04 78.1345 133.934 77.6785 134.714C77.2225 135.494 76.5985 136.1 75.8065 136.532C75.0265 136.952 74.1625 137.162 73.2145 137.162ZM73.2145 135.38C73.7425 135.38 74.2345 135.254 74.6905 135.002C75.1585 134.75 75.5365 134.372 75.8245 133.868C76.1125 133.364 76.2565 132.752 76.2565 132.032C76.2565 131.312 76.1185 130.706 75.8425 130.214C75.5665 129.71 75.2005 129.332 74.7445 129.08C74.2885 128.828 73.7965 128.702 73.2685 128.702C72.7405 128.702 72.2485 128.828 71.7925 129.08C71.3485 129.332 70.9945 129.71 70.7305 130.214C70.4665 130.706 70.3345 131.312 70.3345 132.032C70.3345 133.1 70.6045 133.928 71.1445 134.516C71.6965 135.092 72.3865 135.38 73.2145 135.38Z" fill="#3A2B1B"/>
<path d="M83.991 137.162C83.211 137.162 82.509 137.024 81.885 136.748C81.273 136.46 80.787 136.076 80.427 135.596C80.067 135.104 79.875 134.558 79.851 133.958H81.975C82.011 134.378 82.209 134.732 82.569 135.02C82.941 135.296 83.403 135.434 83.955 135.434C84.531 135.434 84.975 135.326 85.287 135.11C85.611 134.882 85.773 134.594 85.773 134.246C85.773 133.874 85.593 133.598 85.233 133.418C84.885 133.238 84.327 133.04 83.559 132.824C82.815 132.62 82.209 132.422 81.741 132.23C81.273 132.038 80.865 131.744 80.517 131.348C80.181 130.952 80.013 130.43 80.013 129.782C80.013 129.254 80.169 128.774 80.481 128.342C80.793 127.898 81.237 127.55 81.813 127.298C82.401 127.046 83.073 126.92 83.829 126.92C84.957 126.92 85.863 127.208 86.547 127.784C87.243 128.348 87.615 129.122 87.663 130.106H85.611C85.575 129.662 85.395 129.308 85.071 129.044C84.747 128.78 84.309 128.648 83.757 128.648C83.217 128.648 82.803 128.75 82.515 128.954C82.227 129.158 82.083 129.428 82.083 129.764C82.083 130.028 82.179 130.25 82.371 130.43C82.563 130.61 82.797 130.754 83.073 130.862C83.349 130.958 83.757 131.084 84.297 131.24C85.017 131.432 85.605 131.63 86.061 131.834C86.529 132.026 86.931 132.314 87.267 132.698C87.603 133.082 87.777 133.592 87.789 134.228C87.789 134.792 87.633 135.296 87.321 135.74C87.009 136.184 86.565 136.532 85.989 136.784C85.425 137.036 84.759 137.162 83.991 137.162Z" fill="#3A2B1B"/>
<path d="M99.0963 131.798C99.0963 132.17 99.0723 132.506 99.0243 132.806H91.4463C91.5063 133.598 91.8003 134.234 92.3283 134.714C92.8563 135.194 93.5043 135.434 94.2723 135.434C95.3763 135.434 96.1563 134.972 96.6123 134.048H98.8263C98.5263 134.96 97.9803 135.71 97.1883 136.298C96.4083 136.874 95.4363 137.162 94.2723 137.162C93.3243 137.162 92.4723 136.952 91.7163 136.532C90.9723 136.1 90.3843 135.5 89.9523 134.732C89.5323 133.952 89.3223 133.052 89.3223 132.032C89.3223 131.012 89.5263 130.118 89.9343 129.35C90.3543 128.57 90.9363 127.97 91.6803 127.55C92.4363 127.13 93.3003 126.92 94.2723 126.92C95.2083 126.92 96.0423 127.124 96.7743 127.532C97.5063 127.94 98.0763 128.516 98.4843 129.26C98.8923 129.992 99.0963 130.838 99.0963 131.798ZM96.9543 131.15C96.9423 130.394 96.6723 129.788 96.1443 129.332C95.6163 128.876 94.9623 128.648 94.1823 128.648C93.4743 128.648 92.8683 128.876 92.3643 129.332C91.8603 129.776 91.5603 130.382 91.4643 131.15H96.9543Z" fill="#3A2B1B"/>
<path fill-rule="evenodd" clip-rule="evenodd" d="M53.5 105C81.9427 105 105 81.9427 105 53.5C105 25.0573 81.9427 2 53.5 2C25.0573 2 2 25.0573 2 53.5C2 81.9427 25.0573 105 53.5 105ZM53.5 107C83.0472 107 107 83.0472 107 53.5C107 23.9528 83.0472 0 53.5 0C23.9528 0 0 23.9528 0 53.5C0 83.0472 23.9528 107 53.5 107Z" fill="#B89473"/>
<path d="M52.98 67.08H66.42V75H42.72V32.88H52.98V67.08Z" fill="#5B7A78"/>
</svg>
