<svg width="107" height="142" viewBox="0 0 107 142" fill="none" xmlns="http://www.w3.org/2000/svg">
<path d="M21.056 137.126C19.892 137.126 18.818 136.856 17.834 136.316C16.862 135.764 16.088 135.002 15.512 134.03C14.948 133.046 14.666 131.942 14.666 130.718C14.666 129.494 14.948 128.396 15.512 127.424C16.088 126.452 16.862 125.696 17.834 125.156C18.818 124.604 19.892 124.328 21.056 124.328C22.232 124.328 23.306 124.604 24.278 125.156C25.262 125.696 26.036 126.452 26.6 127.424C27.164 128.396 27.446 129.494 27.446 130.718C27.446 131.942 27.164 133.046 26.6 134.03C26.036 135.002 25.262 135.764 24.278 136.316C23.306 136.856 22.232 137.126 21.056 137.126ZM21.056 135.344C21.884 135.344 22.622 135.158 23.27 134.786C23.918 134.402 24.422 133.862 24.782 133.166C25.154 132.458 25.34 131.642 25.34 130.718C25.34 129.794 25.154 128.984 24.782 128.288C24.422 127.592 23.918 127.058 23.27 126.686C22.622 126.314 21.884 126.128 21.056 126.128C20.228 126.128 19.49 126.314 18.842 126.686C18.194 127.058 17.684 127.592 17.312 128.288C16.952 128.984 16.772 129.794 16.772 130.718C16.772 131.642 16.952 132.458 17.312 133.166C17.684 133.862 18.194 134.402 18.842 134.786C19.49 135.158 20.228 135.344 21.056 135.344Z" fill="#3A2B1B"/>
<path d="M31.5173 128.522C31.8173 128.018 32.2132 127.628 32.7052 127.352C33.2092 127.064 33.8032 126.92 34.4872 126.92V129.044H33.9653C33.1612 129.044 32.5492 129.248 32.1292 129.656C31.7212 130.064 31.5173 130.772 31.5173 131.78V137H29.4653V127.082H31.5173V128.522Z" fill="#3A2B1B"/>
<path d="M40.3695 126.92C41.1375 126.92 41.8155 127.076 42.4035 127.388C43.0035 127.688 43.4715 128.066 43.8075 128.522V127.082H45.8775V137.162C45.8775 138.074 45.6855 138.884 45.3015 139.592C44.9175 140.312 44.3595 140.876 43.6275 141.284C42.9075 141.692 42.0435 141.896 41.0355 141.896C39.6915 141.896 38.5755 141.578 37.6875 140.942C36.7995 140.318 36.2955 139.466 36.1755 138.386H38.2095C38.3655 138.902 38.6955 139.316 39.1995 139.628C39.7155 139.952 40.3275 140.114 41.0355 140.114C41.8635 140.114 42.5295 139.862 43.0335 139.358C43.5495 138.854 43.8075 138.122 43.8075 137.162V135.506C43.4595 135.974 42.9855 136.37 42.3855 136.694C41.7975 137.006 41.1255 137.162 40.3695 137.162C39.5055 137.162 38.7135 136.946 37.9935 136.514C37.2855 136.07 36.7215 135.458 36.3015 134.678C35.8935 133.886 35.6895 132.992 35.6895 131.996C35.6895 131 35.8935 130.118 36.3015 129.35C36.7215 128.582 37.2855 127.988 37.9935 127.568C38.7135 127.136 39.5055 126.92 40.3695 126.92ZM43.8075 132.032C43.8075 131.348 43.6635 130.754 43.3755 130.25C43.0995 129.746 42.7335 129.362 42.2775 129.098C41.8215 128.834 41.3295 128.702 40.8015 128.702C40.2735 128.702 39.7815 128.834 39.3255 129.098C38.8695 129.35 38.4975 129.728 38.2095 130.232C37.9335 130.724 37.7955 131.312 37.7955 131.996C37.7955 132.68 37.9335 133.28 38.2095 133.796C38.4975 134.312 38.8695 134.708 39.3255 134.984C39.7935 135.248 40.2855 135.38 40.8015 135.38C41.3295 135.38 41.8215 135.248 42.2775 134.984C42.7335 134.72 43.0995 134.336 43.3755 133.832C43.6635 133.316 43.8075 132.716 43.8075 132.032Z" fill="#3A2B1B"/>
<path d="M47.8887 131.996C47.8887 131 48.0927 130.118 48.5007 129.35C48.9207 128.582 49.4847 127.988 50.1927 127.568C50.9127 127.136 51.7047 126.92 52.5687 126.92C53.3487 126.92 54.0267 127.076 54.6027 127.388C55.1907 127.688 55.6587 128.066 56.0067 128.522V127.082H58.0767V137H56.0067V135.524C55.6587 135.992 55.1847 136.382 54.5847 136.694C53.9847 137.006 53.3007 137.162 52.5327 137.162C51.6807 137.162 50.9007 136.946 50.1927 136.514C49.4847 136.07 48.9207 135.458 48.5007 134.678C48.0927 133.886 47.8887 132.992 47.8887 131.996ZM56.0067 132.032C56.0067 131.348 55.8627 130.754 55.5747 130.25C55.2987 129.746 54.9327 129.362 54.4767 129.098C54.0207 128.834 53.5287 128.702 53.0007 128.702C52.4727 128.702 51.9807 128.834 51.5247 129.098C51.0687 129.35 50.6967 129.728 50.4087 130.232C50.1327 130.724 49.9947 131.312 49.9947 131.996C49.9947 132.68 50.1327 133.28 50.4087 133.796C50.6967 134.312 51.0687 134.708 51.5247 134.984C51.9927 135.248 52.4847 135.38 53.0007 135.38C53.5287 135.38 54.0207 135.248 54.4767 134.984C54.9327 134.72 55.2987 134.336 55.5747 133.832C55.8627 133.316 56.0067 132.716 56.0067 132.032Z" fill="#3A2B1B"/>
<path d="M65.7759 126.92C66.5559 126.92 67.2519 127.082 67.8639 127.406C68.4879 127.73 68.9739 128.21 69.3219 128.846C69.6699 129.482 69.8439 130.25 69.8439 131.15V137H67.8099V131.456C67.8099 130.568 67.5879 129.89 67.1439 129.422C66.6999 128.942 66.0939 128.702 65.3259 128.702C64.5579 128.702 63.9459 128.942 63.4899 129.422C63.0459 129.89 62.8239 130.568 62.8239 131.456V137H60.7719V127.082H62.8239V128.216C63.1599 127.808 63.5859 127.49 64.1019 127.262C64.6299 127.034 65.1879 126.92 65.7759 126.92Z" fill="#3A2B1B"/>
<path d="M73.5053 125.768C73.1333 125.768 72.8213 125.642 72.5693 125.39C72.3173 125.138 72.1913 124.826 72.1913 124.454C72.1913 124.082 72.3173 123.77 72.5693 123.518C72.8213 123.266 73.1333 123.14 73.5053 123.14C73.8653 123.14 74.1713 123.266 74.4233 123.518C74.6753 123.77 74.8013 124.082 74.8013 124.454C74.8013 124.826 74.6753 125.138 74.4233 125.39C74.1713 125.642 73.8653 125.768 73.5053 125.768ZM74.5133 127.082V137H72.4613V127.082H74.5133Z" fill="#3A2B1B"/>
<path d="M76.5234 132.032C76.5234 131.012 76.7274 130.118 77.1354 129.35C77.5554 128.57 78.1314 127.97 78.8634 127.55C79.5954 127.13 80.4354 126.92 81.3834 126.92C82.5834 126.92 83.5734 127.208 84.3534 127.784C85.1454 128.348 85.6794 129.158 85.9554 130.214H83.7414C83.5614 129.722 83.2734 129.338 82.8774 129.062C82.4814 128.786 81.9834 128.648 81.3834 128.648C80.5434 128.648 79.8714 128.948 79.3674 129.548C78.8754 130.136 78.6294 130.964 78.6294 132.032C78.6294 133.1 78.8754 133.934 79.3674 134.534C79.8714 135.134 80.5434 135.434 81.3834 135.434C82.5714 135.434 83.3574 134.912 83.7414 133.868H85.9554C85.6674 134.876 85.1274 135.68 84.3354 136.28C83.5434 136.868 82.5594 137.162 81.3834 137.162C80.4354 137.162 79.5954 136.952 78.8634 136.532C78.1314 136.1 77.5554 135.5 77.1354 134.732C76.7274 133.952 76.5234 133.052 76.5234 132.032Z" fill="#3A2B1B"/>
<path fill-rule="evenodd" clip-rule="evenodd" d="M53.5 105C81.9427 105 105 81.9427 105 53.5C105 25.0573 81.9427 2 53.5 2C25.0573 2 2 25.0573 2 53.5C2 81.9427 25.0573 105 53.5 105ZM53.5 107C83.0472 107 107 83.0472 107 53.5C107 23.9528 83.0472 0 53.5 0C23.9528 0 0 23.9528 0 53.5C0 83.0472 23.9528 107 53.5 107Z" fill="#B89473"/>
<path d="M65.9875 37.3648C56.0481 43.2635 47.3524 51.0802 40.3949 60.3703C37.6623 64.0439 35.2225 67.9311 33.0982 71.9951C30.6749 68.6844 29.258 64.7314 29.0209 60.6195C28.454 48.3616 39.5814 40.8194 40.2716 40.3657C51.3566 32.8881 64.5591 29.2882 77.8594 30.1167C78.4241 37.694 77.2829 45.3022 74.5217 52.3694C73.2201 55.6669 71.567 58.811 69.5915 61.7461C60.239 70.8052 48.0082 76.2112 35.0801 77C37.1991 72.3727 39.6373 67.9018 42.3768 63.6204C48.7934 53.637 56.7668 44.7703 65.9875 37.3648V37.3648Z" fill="#5B7A78"/>
</svg>
