<?xml version="1.0" encoding="utf-8"?>
<!-- Generator: Adobe Illustrator 25.2.1, SVG Export Plug-In . SVG Version: 6.00 Build 0)  -->
<svg version="1.1" id="Layer_1" xmlns="http://www.w3.org/2000/svg" xmlns:xlink="http://www.w3.org/1999/xlink" x="0px" y="0px"
	 viewBox="0 0 107 107" style="enable-background:new 0 0 107 107;" xml:space="preserve">
<style type="text/css">
	.st0{fill:none;}
	.st1{fill:#B89473;}
	.st2{fill:#5B7A78;}
</style>
<g>
	<path class="st0" d="M53.5,2C25.1,2,2,25.1,2,53.5S25.1,105,53.5,105S105,81.9,105,53.5S81.9,2,53.5,2z M74.5,52.4
		c-1.3,3.3-3,6.4-4.9,9.4C60.2,70.8,48,76.2,35.1,77c2.1-4.6,4.6-9.1,7.3-13.4c6.4-10,14.4-18.9,23.6-26.3
		c-9.9,5.9-18.6,13.7-25.6,23c-2.7,3.7-5.2,7.6-7.3,11.6c-2.4-3.3-3.8-7.3-4.1-11.4c-0.6-12.3,10.6-19.8,11.3-20.3
		c11.1-7.5,24.3-11.1,37.6-10.2C78.4,37.7,77.3,45.3,74.5,52.4z"/>
	<path class="st1" d="M53.5,0C24,0,0,24,0,53.5S24,107,53.5,107S107,83,107,53.5S83,0,53.5,0z M53.5,105C25.1,105,2,81.9,2,53.5
		S25.1,2,53.5,2S105,25.1,105,53.5S81.9,105,53.5,105z"/>
	<path class="st2" d="M40.3,40.4c-0.7,0.5-11.8,8-11.3,20.3c0.2,4.1,1.7,8.1,4.1,11.4c2.1-4.1,4.6-8,7.3-11.6
		c7-9.3,15.7-17.1,25.6-23c-9.2,7.4-17.2,16.3-23.6,26.3c-2.7,4.3-5.2,8.8-7.3,13.4c12.9-0.8,25.2-6.2,34.5-15.3
		c2-2.9,3.6-6.1,4.9-9.4c2.8-7.1,3.9-14.7,3.3-22.3C64.6,29.3,51.4,32.9,40.3,40.4z"/>
</g>
</svg>
