<svg width="107" height="107" viewBox="0 0 107 107" fill="none" xmlns="http://www.w3.org/2000/svg">
<path fill-rule="evenodd" clip-rule="evenodd" d="M53.5 105C81.9427 105 105 81.9427 105 53.5C105 25.0573 81.9427 2 53.5 2C25.0573 2 2 25.0573 2 53.5C2 81.9427 25.0573 105 53.5 105ZM53.5 107C83.0472 107 107 83.0472 107 53.5C107 23.9528 83.0472 0 53.5 0C23.9528 0 0 23.9528 0 53.5C0 83.0472 23.9528 107 53.5 107Z" fill="#B89473"/>
<path d="M65.9875 37.3648C56.0481 43.2635 47.3524 51.0802 40.3949 60.3703C37.6623 64.0439 35.2225 67.9311 33.0982 71.9951C30.6749 68.6844 29.258 64.7314 29.0209 60.6195C28.454 48.3616 39.5814 40.8194 40.2716 40.3657C51.3566 32.8881 64.5591 29.2882 77.8594 30.1167C78.4241 37.694 77.2829 45.3022 74.5217 52.3694C73.2201 55.6669 71.567 58.811 69.5915 61.7461C60.239 70.8052 48.0082 76.2112 35.0801 77C37.1991 72.3727 39.6373 67.9018 42.3768 63.6204C48.7934 53.637 56.7668 44.7703 65.9875 37.3648V37.3648Z" fill="#5B7A78"/>
</svg>
