<svg width="195" height="195" viewBox="0 0 195 195" fill="none" xmlns="http://www.w3.org/2000/svg">
<path d="M97.17 194.34C150.836 194.34 194.34 150.836 194.34 97.17C194.34 43.5045 150.836 0 97.17 0C43.5045 0 0 43.5045 0 97.17C0 150.836 43.5045 194.34 97.17 194.34Z" fill="white"/>
<path d="M114.19 167.714H76.8095C75.0035 167.714 73.2715 166.891 71.9945 165.426C70.7174 163.961 70 161.974 70 159.902V120.841C70 118.769 70.7174 116.782 71.9945 115.317C73.2715 113.852 75.0035 113.029 76.8095 113.029H114.19C115.996 113.029 117.728 113.852 119.006 115.317C120.283 116.782 121 118.769 121 120.841V159.902C121 161.974 120.283 163.961 119.006 165.426C117.728 166.891 115.996 167.714 114.19 167.714ZM76.8095 116.935C75.9065 116.935 75.0405 117.346 74.402 118.079C73.7635 118.811 73.4048 119.805 73.4048 120.841V159.902C73.4048 160.938 73.7635 161.932 74.402 162.664C75.0405 163.397 75.9065 163.808 76.8095 163.808H114.19C115.093 163.808 115.959 163.397 116.598 162.664C117.237 161.932 117.595 160.938 117.595 159.902V120.841C117.595 119.805 117.237 118.811 116.598 118.079C115.959 117.346 115.093 116.935 114.19 116.935H76.8095Z" fill="#B89473"/>
<path fill-rule="evenodd" clip-rule="evenodd" d="M114.19 169.214H76.8095C74.534 169.214 72.4011 168.176 70.8637 166.412C69.3321 164.655 68.5 162.311 68.5 159.902V120.841C68.5 118.433 69.3321 116.088 70.8637 114.331C72.4011 112.567 74.534 111.529 76.8095 111.529H114.19C116.466 111.529 118.599 112.567 120.136 114.331C121.668 116.088 122.5 118.433 122.5 120.841V159.902C122.5 162.311 121.668 164.655 120.136 166.412C118.599 168.176 116.466 169.214 114.19 169.214ZM76.8095 118.435C76.3761 118.435 75.9109 118.631 75.5327 119.064C75.1489 119.505 74.9048 120.141 74.9048 120.841V159.902C74.9048 160.602 75.1489 161.238 75.5327 161.679C75.9109 162.113 76.3761 162.308 76.8095 162.308H114.19C114.624 162.308 115.089 162.113 115.467 161.679C115.851 161.238 116.095 160.602 116.095 159.902V120.841C116.095 120.141 115.851 119.505 115.467 119.064C115.089 118.631 114.624 118.435 114.19 118.435H76.8095ZM76.8095 167.714H114.19C115.996 167.714 117.728 166.891 119.006 165.426C120.283 163.961 121 161.974 121 159.902V120.841C121 118.769 120.283 116.782 119.006 115.317C117.728 113.852 115.996 113.029 114.19 113.029H76.8095C75.0035 113.029 73.2715 113.852 71.9945 115.317C70.7174 116.782 70 118.769 70 120.841V159.902C70 161.974 70.7174 163.961 71.9945 165.426C73.2715 166.891 75.0035 167.714 76.8095 167.714ZM74.402 118.079C75.0405 117.346 75.9065 116.935 76.8095 116.935H114.19C115.093 116.935 115.959 117.346 116.598 118.079C117.237 118.811 117.595 119.805 117.595 120.841V159.902C117.595 160.938 117.237 161.932 116.598 162.664C115.959 163.397 115.093 163.808 114.19 163.808H76.8095C75.9065 163.808 75.0405 163.397 74.402 162.664C73.7635 161.932 73.4048 160.938 73.4048 159.902V120.841C73.4048 119.805 73.7635 118.811 74.402 118.079Z" fill="#B89473"/>
<path d="M113.715 91.3822H77.2851C75.353 91.3822 73.5 90.482 72.1338 88.8795C70.7675 87.2771 70 85.1038 70 82.8376C70 80.5714 70.7675 78.3981 72.1338 76.7956C73.5 75.1932 75.353 74.293 77.2851 74.293H113.715C115.647 74.293 117.5 75.1932 118.866 76.7956C120.232 78.3981 121 80.5714 121 82.8376C121 85.1038 120.232 87.2771 118.866 88.8795C117.5 90.482 115.647 91.3822 113.715 91.3822V91.3822ZM77.2851 78.2882C76.2559 78.2882 75.2689 78.7678 74.5412 79.6213C73.8135 80.4748 73.4047 81.6325 73.4047 82.8396C73.4047 84.0467 73.8135 85.2043 74.5412 86.0579C75.2689 86.9114 76.2559 87.3909 77.2851 87.3909H113.715C114.744 87.3909 115.731 86.9114 116.459 86.0579C117.187 85.2043 117.595 84.0467 117.595 82.8396C117.595 81.6325 117.187 80.4748 116.459 79.6213C115.731 78.7678 114.744 78.2882 113.715 78.2882H77.2851Z" fill="#B89473"/>
<path fill-rule="evenodd" clip-rule="evenodd" d="M113.715 92.8822H77.2851C74.8709 92.8822 72.6146 91.7554 70.9923 89.8527C69.3763 87.9573 68.5 85.4311 68.5 82.8376C68.5 80.244 69.3763 77.7178 70.9923 75.8224C72.6146 73.9197 74.8709 72.793 77.2851 72.793H113.715C116.129 72.793 118.385 73.9197 120.008 75.8224C121.624 77.7178 122.5 80.244 122.5 82.8376C122.5 85.4311 121.624 87.9573 120.008 89.8527C118.385 91.7554 116.129 92.8822 113.715 92.8822ZM77.2851 79.7882C76.738 79.7882 76.1544 80.0412 75.6827 80.5945C75.2047 81.1551 74.9047 81.9599 74.9047 82.8396C74.9047 83.7193 75.2047 84.5241 75.6827 85.0847C76.1544 85.6379 76.738 85.8909 77.2851 85.8909H113.715C114.262 85.8909 114.846 85.6379 115.317 85.0847C115.795 84.5241 116.095 83.7193 116.095 82.8396C116.095 81.9599 115.795 81.1551 115.317 80.5945C114.846 80.0412 114.262 79.7882 113.715 79.7882H77.2851ZM77.2851 91.3822H113.715C115.647 91.3822 117.5 90.482 118.866 88.8795C120.232 87.2771 121 85.1038 121 82.8376C121 80.5714 120.232 78.3981 118.866 76.7956C117.5 75.1932 115.647 74.293 113.715 74.293H77.2851C75.353 74.293 73.5 75.1932 72.1338 76.7956C70.7675 78.3981 70 80.5714 70 82.8376C70 85.1038 70.7675 87.2771 72.1338 88.8795C73.5 90.482 75.353 91.3822 77.2851 91.3822ZM74.5412 79.6213C75.2689 78.7678 76.2559 78.2882 77.2851 78.2882H113.715C114.744 78.2882 115.731 78.7678 116.459 79.6213C117.187 80.4748 117.595 81.6325 117.595 82.8396C117.595 84.0467 117.187 85.2043 116.459 86.0579C115.731 86.9114 114.744 87.3909 113.715 87.3909H77.2851C76.2559 87.3909 75.2689 86.9114 74.5412 86.0579C73.8135 85.2043 73.4047 84.0467 73.4047 82.8396C73.4047 81.6325 73.8135 80.4748 74.5412 79.6213Z" fill="#B89473"/>
<path d="M113.794 103.914H77.2058C75.2846 103.882 73.4521 103.028 72.1039 101.536C70.7557 100.044 70 98.0336 70 95.9394C70 93.8451 70.7557 91.8349 72.1039 90.3428C73.4521 88.8507 75.2846 87.9964 77.2058 87.9644H113.794C115.715 87.9964 117.548 88.8507 118.896 90.3428C120.244 91.8349 121 93.8451 121 95.9394C121 98.0336 120.244 100.044 118.896 101.536C117.548 103.028 115.715 103.882 113.794 103.914ZM77.2058 91.6914C76.1863 91.7147 75.2158 92.1725 74.5023 92.9666C73.7888 93.7607 73.3893 94.8279 73.3893 95.9394C73.3893 97.0509 73.7888 98.1181 74.5023 98.9122C75.2158 99.7063 76.1863 100.164 77.2058 100.187H113.794C114.814 100.164 115.784 99.7063 116.498 98.9122C117.211 98.1181 117.611 97.0509 117.611 95.9394C117.611 94.8279 117.211 93.7607 116.498 92.9666C115.784 92.1725 114.814 91.7147 113.794 91.6914H77.2058Z" fill="#B89473"/>
<path fill-rule="evenodd" clip-rule="evenodd" d="M113.807 105.414H77.1933L77.1808 105.414C74.8229 105.375 72.6031 104.326 70.9909 102.542C69.3825 100.761 68.5 98.3883 68.5 95.9394C68.5 93.4905 69.3825 91.1173 70.9909 89.3372C72.6031 87.5529 74.8229 86.5039 77.1808 86.4646L77.1933 86.4644H113.807L113.819 86.4646C116.177 86.5039 118.397 87.5529 120.009 89.3372C121.617 91.1173 122.5 93.4905 122.5 95.9394C122.5 98.3883 121.617 100.761 120.009 102.542C118.397 104.326 116.177 105.375 113.819 105.414L113.807 105.414ZM77.2253 93.1914C76.6456 93.2088 76.0658 93.4708 75.6181 93.9691C75.1629 94.4757 74.8893 95.1813 74.8893 95.9394C74.8893 96.6974 75.1629 97.4031 75.6181 97.9097C76.0658 98.408 76.6456 98.6699 77.2253 98.6873H113.775C114.354 98.6699 114.934 98.408 115.382 97.9097C115.837 97.4031 116.111 96.6974 116.111 95.9394C116.111 95.1813 115.837 94.4757 115.382 93.9691C114.934 93.4708 114.354 93.2088 113.775 93.1914H77.2253ZM77.2058 91.6914C76.1863 91.7147 75.2158 92.1725 74.5023 92.9666C73.7888 93.7607 73.3893 94.8279 73.3893 95.9394C73.3893 97.0509 73.7888 98.1181 74.5023 98.9122C75.2158 99.7063 76.1863 100.164 77.2058 100.187H113.794C114.814 100.164 115.784 99.7063 116.498 98.9122C117.211 98.1181 117.611 97.0509 117.611 95.9394C117.611 94.8279 117.211 93.7607 116.498 92.9666C115.784 92.1725 114.814 91.7147 113.794 91.6914H77.2058ZM77.2058 103.914H113.794C115.715 103.882 117.548 103.028 118.896 101.536C120.244 100.044 121 98.0336 121 95.9394C121 93.8451 120.244 91.8349 118.896 90.3428C117.548 88.8507 115.715 87.9964 113.794 87.9644H77.2058C75.2846 87.9964 73.4521 88.8507 72.1039 90.3428C70.7557 91.8349 70 93.8451 70 95.9394C70 98.0336 70.7557 100.044 72.1039 101.536C73.4521 103.028 75.2846 103.882 77.2058 103.914Z" fill="#B89473"/>
<path d="M113.715 116.447H77.2851C75.353 116.447 73.5 115.606 72.1338 114.111C70.7675 112.615 70 110.587 70 108.472C70 106.356 70.7675 104.328 72.1338 102.832C73.5 101.337 75.353 100.497 77.2851 100.497H113.715C115.647 100.497 117.5 101.337 118.866 102.832C120.232 104.328 121 106.356 121 108.472C121 110.587 120.232 112.615 118.866 114.111C117.5 115.606 115.647 116.447 113.715 116.447V116.447ZM77.2851 104.224C76.2559 104.224 75.2689 104.671 74.5412 105.468C73.8135 106.264 73.4047 107.345 73.4047 108.472C73.4047 109.598 73.8135 110.679 74.5412 111.475C75.2689 112.272 76.2559 112.719 77.2851 112.719H113.715C114.744 112.719 115.731 112.272 116.459 111.475C117.187 110.679 117.595 109.598 117.595 108.472C117.595 107.345 117.187 106.264 116.459 105.468C115.731 104.671 114.744 104.224 113.715 104.224H77.2851Z" fill="#B89473"/>
<path fill-rule="evenodd" clip-rule="evenodd" d="M113.715 117.947H77.2851C74.9091 117.947 72.6611 116.912 71.0263 115.122C69.3956 113.337 68.5 110.943 68.5 108.472C68.5 106 69.3956 103.606 71.0263 101.821C72.6611 100.031 74.9091 98.9966 77.2851 98.9966H113.715C116.091 98.9966 118.339 100.031 119.974 101.821C121.604 103.606 122.5 106 122.5 108.472C122.5 110.943 121.604 113.337 119.974 115.122C118.339 116.912 116.091 117.947 113.715 117.947ZM77.2851 105.724C76.6998 105.724 76.1078 105.977 75.6487 106.48C75.1855 106.987 74.9047 107.701 74.9047 108.472C74.9047 109.242 75.1855 109.957 75.6487 110.464C76.1078 110.966 76.6998 111.219 77.2851 111.219H113.715C114.3 111.219 114.892 110.966 115.351 110.464C115.815 109.957 116.095 109.242 116.095 108.472C116.095 107.701 115.815 106.987 115.351 106.48C114.892 105.977 114.3 105.724 113.715 105.724H77.2851ZM77.2851 116.447H113.715C115.647 116.447 117.5 115.606 118.866 114.111C120.232 112.615 121 110.587 121 108.472C121 106.356 120.232 104.328 118.866 102.832C117.5 101.337 115.647 100.497 113.715 100.497H77.2851C75.353 100.497 73.5 101.337 72.1338 102.832C70.7675 104.328 70 106.356 70 108.472C70 110.587 70.7675 112.615 72.1338 114.111C73.5 115.606 75.353 116.447 77.2851 116.447ZM74.5412 105.468C75.2689 104.671 76.2559 104.224 77.2851 104.224H113.715C114.744 104.224 115.731 104.671 116.459 105.468C117.187 106.264 117.595 107.345 117.595 108.472C117.595 109.598 117.187 110.679 116.459 111.475C115.731 112.272 114.744 112.719 113.715 112.719H77.2851C76.2559 112.719 75.2689 112.272 74.5412 111.475C73.8135 110.679 73.4047 109.598 73.4047 108.472C73.4047 107.345 73.8135 106.264 74.5412 105.468Z" fill="#B89473"/>
<path fill-rule="evenodd" clip-rule="evenodd" d="M85.0456 42.75H106.344L121.131 62.6009L121.291 63.2181C122.309 67.1573 122.638 71.0864 121.677 74.2376C121.181 75.8665 120.296 77.4208 118.853 78.5627C117.386 79.7231 115.605 80.25 113.707 80.25H77.2246C74.7465 80.25 72.6854 79.3184 71.2246 77.6539C69.8661 76.1058 69.2462 74.1773 68.9679 72.469C68.4156 69.0791 69.0103 65.3224 69.6735 63.1013L69.8452 62.5264L85.0456 42.75ZM88.2478 49.25L75.7538 65.5052C75.351 67.128 75.0715 69.5103 75.3833 71.4237C75.5555 72.4807 75.8579 73.0791 76.1102 73.3665C76.2602 73.5374 76.4983 73.75 77.2246 73.75H113.707C114.377 73.75 114.674 73.5807 114.819 73.4654C114.988 73.3317 115.25 73.031 115.46 72.3426C115.885 70.9467 115.892 68.6019 115.147 65.4479L103.081 49.25H88.2478Z" fill="#B89473"/>
<path d="M108.446 48.0894H82.554C81.6119 48.0878 80.7087 47.6579 80.0425 46.8938C79.3762 46.1298 79.0014 45.0939 79 44.0134V35.0759C79.0014 33.9954 79.3762 32.9596 80.0425 32.1955C80.7087 31.4315 81.6119 31.0016 82.554 31H108.446C109.388 31.0016 110.291 31.4315 110.958 32.1955C111.624 32.9596 111.999 33.9954 112 35.0759V44.0134C111.999 45.0939 111.624 46.1298 110.958 46.8938C110.291 47.6579 109.388 48.0878 108.446 48.0894ZM82.554 34.9476L82.4422 35.0759V44.0134L108.448 44.1417L108.56 35.0779L82.554 34.9476Z" fill="#5B7A78"/>
<path fill-rule="evenodd" clip-rule="evenodd" d="M82.5515 49.5894C81.141 49.587 79.838 48.9417 78.9119 47.8796C77.9914 46.824 77.5018 45.4317 77.5 44.0153L77.5 44.0134L77.5 35.074C77.5018 33.6576 77.9914 32.2654 78.9119 31.2097C79.838 30.1476 81.141 29.5023 82.5515 29.5L82.554 29.5L108.448 29.5C109.859 29.5023 111.162 30.1476 112.088 31.2097C113.009 32.2654 113.498 33.6576 113.5 35.074L113.5 35.0759V44.0153C113.498 45.4317 113.009 46.824 112.088 47.8796C111.162 48.9417 109.859 49.587 108.448 49.5894L108.446 49.5894L82.5515 49.5894ZM112 44.0134C111.999 45.0939 111.624 46.1298 110.958 46.8938C110.291 47.6579 109.388 48.0878 108.446 48.0894H82.554C81.6119 48.0878 80.7087 47.6579 80.0425 46.8938C79.3762 46.1298 79.0014 45.0939 79 44.0134V35.0759C79.0014 33.9954 79.3762 32.9596 80.0425 32.1955C80.7087 31.4315 81.6119 31.0016 82.554 31H108.446C109.388 31.0016 110.291 31.4315 110.958 32.1955C111.624 32.9596 111.999 33.9954 112 35.0759V44.0134ZM83.9422 36.4546L107.041 36.5703L106.966 42.6344L83.9422 42.5208V36.4546ZM82.4422 44.0134V35.0759L82.554 34.9476L108.56 35.0779L108.448 44.1417L82.4422 44.0134Z" fill="#5B7A78"/>
</svg>
