<?xml version="1.0" encoding="utf-8"?>
<!-- Generator: Adobe Illustrator 25.2.1, SVG Export Plug-In . SVG Version: 6.00 Build 0)  -->
<svg version="1.1" id="Layer_1" xmlns="http://www.w3.org/2000/svg" xmlns:xlink="http://www.w3.org/1999/xlink" x="0px" y="0px"
	 viewBox="0 0 195 195" style="enable-background:new 0 0 195 195;" xml:space="preserve">
<style type="text/css">
	.st0{fill:#FFFFFF;}
	.st1{fill:#5B7A78;}
</style>
<g>
	<path class="st0" d="M97.2,0C43.5,0,0,43.5,0,97.2c0,53.7,43.5,97.2,97.2,97.2c53.7,0,97.2-43.5,97.2-97.2
		C194.3,43.5,150.8,0,97.2,0z M131.4,145H62.6h0c-0.3,0-0.6,0-0.8,0c-0.1,0-0.2,0-0.3,0c-0.2,0-0.4-0.1-0.5-0.1
		c-0.1,0-0.2,0-0.3-0.1c-0.2,0-0.3-0.1-0.5-0.1c-0.1,0-0.2-0.1-0.3-0.1c-0.2-0.1-0.3-0.1-0.5-0.2c-0.1,0-0.2-0.1-0.3-0.1
		c-0.2-0.1-0.3-0.2-0.5-0.3c-0.1,0-0.1-0.1-0.2-0.1c-0.2-0.1-0.4-0.3-0.6-0.4c-0.1,0-0.1-0.1-0.2-0.1c-0.1-0.1-0.3-0.2-0.4-0.4
		c-0.1-0.1-0.1-0.1-0.2-0.2c-0.1-0.1-0.2-0.2-0.3-0.3c-0.1-0.1-0.1-0.2-0.2-0.2c-0.1-0.1-0.2-0.2-0.3-0.4c-0.1-0.1-0.1-0.2-0.2-0.3
		c-0.1-0.1-0.2-0.3-0.3-0.4c-0.1-0.1-0.1-0.2-0.2-0.3c-0.1-0.2-0.2-0.4-0.3-0.5c0-0.1-0.1-0.1-0.1-0.2c-0.1-0.2-0.2-0.4-0.3-0.6
		c0-0.1-0.1-0.2-0.1-0.3c0-0.2-0.1-0.3-0.1-0.5c0-0.1,0-0.2-0.1-0.3c0-0.1,0-0.2-0.1-0.3h0c-0.1-0.7-0.1-1.4-0.1-2.2l0.1-1.2l0,0
		l0.5-4.8c0.7-6.9,8.2-79.6,9.9-95.8c0.2-1.8,1.7-3.1,3.4-3.1h5.2c2,0,3.6,1.8,3.4,3.8l-2,19.4c-0.2,2,1.4,3.8,3.4,3.8h34.4
		c2.1,0,3.7-1.8,3.4-3.9l-2.6-19.2c-0.3-2.1,1.3-3.9,3.4-3.9h1.3h3.9c0.6,0,1.3,0.2,1.8,0.5c0.9,0.5,1.5,1.4,1.6,2.5
		c1,7.3,3.4,25.2,3.6,26.1l0,0l10.3,75.6C140.2,140.6,136.3,145,131.4,145z"/>
	<path class="st1" d="M129.2,60.1L129.2,60.1c-0.1-0.9-2.6-18.9-3.6-26.1c-0.1-1.1-0.8-2-1.6-2.5c-0.5-0.3-1.1-0.5-1.8-0.5h-3.9H117
		c-2.1,0-3.7,1.8-3.4,3.9l2.6,19.2c0.3,2.1-1.3,3.9-3.4,3.9H78.5c-2,0-3.6-1.8-3.4-3.8l2-19.4c0.2-2-1.4-3.8-3.4-3.8h-5.2
		c-1.8,0-3.2,1.3-3.4,3.1c-1.7,16.2-9.2,88.9-9.9,95.8l-0.5,4.8l0,0l-0.1,1.2c-0.1,0.7,0,1.5,0.1,2.2h0c0,0.1,0,0.2,0.1,0.3
		c0,0.1,0,0.2,0.1,0.3c0,0.2,0.1,0.3,0.1,0.5c0,0.1,0.1,0.2,0.1,0.3c0.1,0.2,0.2,0.4,0.3,0.6c0,0.1,0.1,0.1,0.1,0.2
		c0.1,0.2,0.2,0.4,0.3,0.5c0.1,0.1,0.1,0.2,0.2,0.3c0.1,0.1,0.2,0.3,0.3,0.4c0.1,0.1,0.1,0.2,0.2,0.3c0.1,0.1,0.2,0.2,0.3,0.4
		c0.1,0.1,0.1,0.2,0.2,0.2c0.1,0.1,0.2,0.2,0.3,0.3c0.1,0.1,0.1,0.1,0.2,0.2c0.1,0.1,0.3,0.2,0.4,0.4c0.1,0,0.1,0.1,0.2,0.1
		c0.2,0.2,0.4,0.3,0.6,0.4c0.1,0,0.1,0.1,0.2,0.1c0.2,0.1,0.3,0.2,0.5,0.3c0.1,0,0.2,0.1,0.3,0.1c0.2,0.1,0.3,0.1,0.5,0.2
		c0.1,0,0.2,0.1,0.3,0.1c0.2,0.1,0.3,0.1,0.5,0.1c0.1,0,0.2,0,0.3,0.1c0.2,0,0.4,0.1,0.5,0.1c0.1,0,0.2,0,0.3,0c0.3,0,0.6,0,0.8,0h0
		h68.7c5,0,8.8-4.4,8.1-9.3L129.2,60.1z"/>
</g>
</svg>
