<?xml version="1.0" encoding="utf-8"?>
<!-- Generator: Adobe Illustrator 25.2.1, SVG Export Plug-In . SVG Version: 6.00 Build 0)  -->
<svg version="1.1" id="Layer_1" xmlns="http://www.w3.org/2000/svg" xmlns:xlink="http://www.w3.org/1999/xlink" x="0px" y="0px"
	 viewBox="0 0 195 195" style="enable-background:new 0 0 195 195;" xml:space="preserve">
<style type="text/css">
	.st0{fill:#FFFFFF;}
	.st1{fill:#B89473;}
	.st2{fill:#5B7A78;}
</style>
<g>
	<path class="st0" d="M75.8,65.5c-0.4,1.6-0.7,4-0.4,5.9c0.1,0.7,0.3,1.2,0.5,1.5c0.5-0.1,1-0.1,1.4-0.1h36.4c0.5,0,1,0.1,1.5,0.2
		c0.1-0.2,0.2-0.3,0.2-0.6c0.4-1.4,0.4-3.7-0.3-6.9l-11.8-15.9H88L75.8,65.5z"/>
	<path class="st0" d="M74.9,159.9c0,0.7,0.2,1.3,0.6,1.8c0.4,0.4,0.8,0.6,1.3,0.6h37.4c0.4,0,0.9-0.2,1.3-0.6
		c0.4-0.4,0.6-1.1,0.6-1.8v-39.1c0-0.7-0.2-1.3-0.6-1.8c-0.4-0.4-0.8-0.6-1.3-0.6H76.8c-0.4,0-0.9,0.2-1.3,0.6
		c-0.4,0.4-0.6,1.1-0.6,1.8V159.9z"/>
	<polygon class="st0" points="107,36.6 83.9,36.5 83.9,42.5 107,42.6 	"/>
	<path class="st0" d="M77.3,111.2h36.4c0.6,0,1.2-0.3,1.6-0.8c0.5-0.5,0.7-1.2,0.7-2c0-0.8-0.3-1.5-0.7-2c-0.5-0.5-1.1-0.8-1.6-0.8
		H77.3c-0.6,0-1.2,0.3-1.6,0.8c-0.5,0.5-0.7,1.2-0.7,2c0,0.8,0.3,1.5,0.7,2C76.1,111,76.7,111.2,77.3,111.2z"/>
	<path class="st0" d="M75.6,97.9c0.4,0.5,1,0.8,1.6,0.8h36.5c0.6,0,1.2-0.3,1.6-0.8c0.5-0.5,0.7-1.2,0.7-2c0-0.8-0.3-1.5-0.7-2
		c-0.4-0.5-1-0.8-1.6-0.8H77.2c-0.6,0-1.2,0.3-1.6,0.8c-0.5,0.5-0.7,1.2-0.7,2C74.9,96.7,75.2,97.4,75.6,97.9z"/>
	<path class="st0" d="M77.2,80.2c-0.4,0-0.7,0-1.1-0.1c-0.2,0.1-0.3,0.2-0.5,0.4c-0.5,0.6-0.8,1.4-0.8,2.2s0.3,1.7,0.8,2.2
		c0.5,0.6,1.1,0.8,1.6,0.8h36.4c0.5,0,1.1-0.3,1.6-0.8c0.5-0.6,0.8-1.4,0.8-2.2s-0.3-1.7-0.8-2.2c-0.1-0.2-0.3-0.3-0.5-0.4
		c-0.4,0-0.8,0.1-1.1,0.1H77.2z"/>
	<path class="st0" d="M97.2,0C43.5,0,0,43.5,0,97.2c0,53.7,43.5,97.2,97.2,97.2c53.7,0,97.2-43.5,97.2-97.2
		C194.3,43.5,150.8,0,97.2,0z M122.5,95.9c0,2.3-0.8,4.5-2.2,6.3c1.4,1.7,2.2,4,2.2,6.3c0,2.3-0.8,4.4-2.1,6.2
		c1.4,1.7,2.1,3.9,2.1,6.2v39.1c0,2.4-0.8,4.8-2.4,6.5c-1.5,1.8-3.7,2.8-5.9,2.8H76.8c-2.3,0-4.4-1-5.9-2.8
		c-1.5-1.8-2.4-4.1-2.4-6.5v-39.1c0-2.3,0.8-4.5,2.1-6.2c-1.4-1.7-2.1-3.9-2.1-6.2c0-2.3,0.8-4.5,2.2-6.3c-1.4-1.7-2.2-4-2.2-6.3
		c0-2.3,0.8-4.6,2.3-6.4c-1.5-1.9-2.3-4.3-2.3-6.7c0-2.3,0.7-4.5,1.9-6.3c-0.8-1.3-1.2-2.8-1.5-4.1c-0.6-3.4,0-7.1,0.7-9.4l0.2-0.6
		L80.3,49c-0.5-0.3-1-0.6-1.3-1.1c-0.9-1.1-1.4-2.4-1.4-3.9v0v-8.9c0-1.4,0.5-2.8,1.4-3.9c0.9-1.1,2.2-1.7,3.6-1.7h0h25.9
		c1.4,0,2.7,0.6,3.6,1.7c0.9,1.1,1.4,2.4,1.4,3.9v0V44c0,1.4-0.5,2.8-1.4,3.9c-0.3,0.4-0.7,0.7-1.2,1l10.2,13.7l0.2,0.6
		c1,3.9,1.3,7.9,0.4,11c-0.3,0.8-0.6,1.6-1.1,2.4c1.2,1.8,1.9,4,1.9,6.2c0,2.5-0.8,4.9-2.3,6.7C121.7,91.3,122.5,93.6,122.5,95.9z"
		/>
	<path class="st1" d="M116.1,117.6c0.2,0.1,0.4,0.3,0.5,0.5c0.6,0.7,1,1.7,1,2.8v39.1c0,1-0.4,2-1,2.8c-0.6,0.7-1.5,1.1-2.4,1.1
		H76.8c-0.9,0-1.8-0.4-2.4-1.1c-0.6-0.7-1-1.7-1-2.8v-39.1c0-1,0.4-2,1-2.8c0.2-0.2,0.3-0.3,0.5-0.5c-1.2-0.4-2.3-1-3.3-1.8
		c-1.1,1.4-1.7,3.2-1.7,5.1v39.1c0,2.1,0.7,4.1,2,5.5c1.3,1.5,3,2.3,4.8,2.3h37.4c1.8,0,3.5-0.8,4.8-2.3c1.3-1.5,2-3.5,2-5.5v-39.1
		c0-1.9-0.6-3.7-1.7-5.1C118.4,116.6,117.3,117.2,116.1,117.6z"/>
	<path class="st1" d="M120.6,76.6c-0.3,0.4-0.6,0.9-1,1.2c0.9,1.4,1.4,3.2,1.4,5c0,2.1-0.7,4.1-1.9,5.7c-1-0.9-2.2-1.5-3.4-1.8
		c0.3-0.2,0.5-0.4,0.7-0.7c0.7-0.9,1.1-2,1.1-3.2c0-1.1-0.4-2.2-1-3c-0.6,0.2-1.1,0.3-1.7,0.4c0.2,0.1,0.3,0.2,0.5,0.4
		c0.5,0.6,0.8,1.4,0.8,2.2s-0.3,1.7-0.8,2.2c-0.5,0.6-1.1,0.8-1.6,0.8H77.3c-0.5,0-1.1-0.3-1.6-0.8c-0.5-0.6-0.8-1.4-0.8-2.2
		s0.3-1.7,0.8-2.2c0.1-0.2,0.3-0.3,0.5-0.4c-0.6-0.1-1.2-0.2-1.7-0.4c-0.6,0.8-1,1.9-1,3c0,1.2,0.4,2.4,1.1,3.2
		c0.2,0.3,0.5,0.5,0.7,0.7c-1.3,0.3-2.4,0.9-3.4,1.8C70.7,87,70,84.9,70,82.8c0-1.8,0.5-3.6,1.4-5c-0.1-0.1-0.1-0.1-0.2-0.2
		c-0.3-0.3-0.6-0.7-0.8-1.1c-1.3,1.8-1.9,4-1.9,6.3c0,2.5,0.8,4.9,2.3,6.7c-1.5,1.8-2.3,4-2.3,6.4c0,2.3,0.8,4.5,2.2,6.3
		c-1.4,1.7-2.2,4-2.2,6.3c0,2.3,0.8,4.4,2.1,6.2c-1.4,1.7-2.1,3.9-2.1,6.2v39.1c0,2.4,0.8,4.8,2.4,6.5c1.5,1.8,3.7,2.8,5.9,2.8h37.4
		c2.3,0,4.4-1,5.9-2.8c1.5-1.8,2.4-4.1,2.4-6.5v-39.1c0-2.3-0.8-4.5-2.1-6.2c1.4-1.7,2.1-3.9,2.1-6.2c0-2.3-0.8-4.5-2.2-6.3
		c1.4-1.7,2.2-4,2.2-6.3c0-2.3-0.8-4.6-2.3-6.4c1.5-1.9,2.3-4.3,2.3-6.7C122.5,80.6,121.8,78.4,120.6,76.6z M121,159.9
		c0,2.1-0.7,4.1-2,5.5c-1.3,1.5-3,2.3-4.8,2.3H76.8c-1.8,0-3.5-0.8-4.8-2.3c-1.3-1.5-2-3.5-2-5.5v-39.1c0-1.9,0.6-3.7,1.7-5.1
		c1,0.9,2.1,1.5,3.3,1.8c-0.2,0.1-0.4,0.3-0.5,0.5c-0.6,0.7-1,1.7-1,2.8v39.1c0,1,0.4,2,1,2.8c0.6,0.7,1.5,1.1,2.4,1.1h37.4
		c0.9,0,1.8-0.4,2.4-1.1c0.6-0.7,1-1.7,1-2.8v-39.1c0-1-0.4-2-1-2.8c-0.2-0.2-0.3-0.3-0.5-0.5c1.2-0.4,2.3-1,3.3-1.8
		c1.1,1.4,1.7,3.2,1.7,5.1V159.9z M76.8,118.4h37.4c0.4,0,0.9,0.2,1.3,0.6c0.4,0.4,0.6,1.1,0.6,1.8v39.1c0,0.7-0.2,1.3-0.6,1.8
		c-0.4,0.4-0.8,0.6-1.3,0.6H76.8c-0.4,0-0.9-0.2-1.3-0.6c-0.4-0.4-0.6-1.1-0.6-1.8v-39.1c0-0.7,0.2-1.3,0.6-1.8
		C75.9,118.6,76.4,118.4,76.8,118.4z M118.9,114.1c-1.4,1.5-3.2,2.3-5.2,2.3H77.3c-1.9,0-3.8-0.8-5.2-2.3c-1.4-1.5-2.1-3.5-2.1-5.6
		c0-2.1,0.8-4.1,2.1-5.6c1.4-1.5,3.2-2.3,5.2-2.3h36.4c1.9,0,3.8,0.8,5.2,2.3c1.4,1.5,2.1,3.5,2.1,5.6
		C121,110.6,120.2,112.6,118.9,114.1z M77.2,93.2h36.5c0.6,0,1.2,0.3,1.6,0.8c0.5,0.5,0.7,1.2,0.7,2c0,0.8-0.3,1.5-0.7,2
		c-0.4,0.5-1,0.8-1.6,0.8H77.2c-0.6,0-1.2-0.3-1.6-0.8c-0.5-0.5-0.7-1.2-0.7-2c0-0.8,0.3-1.5,0.7-2C76.1,93.5,76.6,93.2,77.2,93.2z
		 M119.2,101.1c-0.9-0.8-2-1.4-3.2-1.8c0.2-0.1,0.3-0.3,0.5-0.4c0.7-0.8,1.1-1.9,1.1-3s-0.4-2.2-1.1-3c-0.7-0.8-1.7-1.3-2.7-1.3
		H77.2c-1,0-2,0.5-2.7,1.3c-0.7,0.8-1.1,1.9-1.1,3s0.4,2.2,1.1,3c0.1,0.2,0.3,0.3,0.5,0.4c-1.2,0.3-2.3,0.9-3.2,1.8
		c-1.1-1.4-1.8-3.3-1.8-5.2c0-2.1,0.8-4.1,2.1-5.6c1.3-1.5,3.2-2.3,5.1-2.4h36.6c1.9,0,3.8,0.9,5.1,2.4c1.3,1.5,2.1,3.5,2.1,5.6
		C121,97.8,120.4,99.7,119.2,101.1z"/>
	<path class="st1" d="M77.3,72.8c-0.5,0-1,0.1-1.4,0.1c0.1,0.2,0.2,0.3,0.3,0.4c0.1,0.2,0.4,0.4,1.1,0.4h36.5c0.7,0,1-0.2,1.1-0.3
		c0.1-0.1,0.2-0.2,0.4-0.5c-0.5-0.1-1-0.2-1.5-0.2H77.3z"/>
	<path class="st1" d="M118.9,90.3c-1.3-1.5-3.2-2.3-5.1-2.4H77.2c-1.9,0-3.8,0.9-5.1,2.4c-1.3,1.5-2.1,3.5-2.1,5.6
		c0,1.9,0.6,3.7,1.8,5.2c0.9-0.8,2-1.4,3.2-1.8c-0.2-0.1-0.3-0.3-0.5-0.4c-0.7-0.8-1.1-1.9-1.1-3s0.4-2.2,1.1-3
		c0.7-0.8,1.7-1.3,2.7-1.3h36.6c1,0,2,0.5,2.7,1.3c0.7,0.8,1.1,1.9,1.1,3s-0.4,2.2-1.1,3c-0.1,0.2-0.3,0.3-0.5,0.4
		c1.2,0.3,2.3,0.9,3.2,1.8c1.1-1.4,1.8-3.3,1.8-5.2C121,93.8,120.2,91.8,118.9,90.3z"/>
	<path class="st1" d="M118.9,102.8c-1.4-1.5-3.2-2.3-5.2-2.3H77.3c-1.9,0-3.8,0.8-5.2,2.3c-1.4,1.5-2.1,3.5-2.1,5.6
		c0,2.1,0.8,4.1,2.1,5.6c1.4,1.5,3.2,2.3,5.2,2.3h36.4c1.9,0,3.8-0.8,5.2-2.3c1.4-1.5,2.1-3.5,2.1-5.6
		C121,106.4,120.2,104.3,118.9,102.8z M113.7,112.7H77.3c-1,0-2-0.4-2.7-1.2c-0.7-0.8-1.1-1.9-1.1-3c0-1.1,0.4-2.2,1.1-3
		c0.7-0.8,1.7-1.2,2.7-1.2h36.4c1,0,2,0.4,2.7,1.2c0.7,0.8,1.1,1.9,1.1,3c0,1.1-0.4,2.2-1.1,3C115.7,112.3,114.7,112.7,113.7,112.7z
		"/>
	<path class="st1" d="M117.6,108.5c0-1.1-0.4-2.2-1.1-3c-0.7-0.8-1.7-1.2-2.7-1.2H77.3c-1,0-2,0.4-2.7,1.2c-0.7,0.8-1.1,1.9-1.1,3
		c0,1.1,0.4,2.2,1.1,3c0.7,0.8,1.7,1.2,2.7,1.2h36.4c1,0,2-0.4,2.7-1.2C117.2,110.7,117.6,109.6,117.6,108.5z M75.6,106.5
		c0.5-0.5,1.1-0.8,1.6-0.8h36.4c0.6,0,1.2,0.3,1.6,0.8c0.5,0.5,0.7,1.2,0.7,2c0,0.8-0.3,1.5-0.7,2c-0.5,0.5-1.1,0.8-1.6,0.8H77.3
		c-0.6,0-1.2-0.3-1.6-0.8c-0.5-0.5-0.7-1.2-0.7-2C74.9,107.7,75.2,107,75.6,106.5z"/>
	<path class="st1" d="M71.4,77.8c-0.9,1.4-1.4,3.2-1.4,5c0,2.1,0.7,4.1,1.9,5.7c1-0.9,2.2-1.5,3.4-1.8c-0.3-0.2-0.5-0.4-0.7-0.7
		c-0.7-0.9-1.1-2-1.1-3.2c0-1.1,0.4-2.2,1-3c0.5,0.2,1.1,0.3,1.7,0.4c0.4,0,0.7,0.1,1.1,0.1h36.5c0.4,0,0.8,0,1.1-0.1
		c0.6-0.1,1.2-0.2,1.7-0.4c0.6,0.8,1,1.9,1,3c0,1.2-0.4,2.4-1.1,3.2c-0.2,0.3-0.5,0.5-0.7,0.7c1.3,0.3,2.4,0.9,3.4,1.8
		c1.2-1.6,1.9-3.6,1.9-5.7c0-1.8-0.5-3.5-1.4-5c0.4-0.4,0.7-0.8,1-1.2c0.5-0.7,0.8-1.5,1.1-2.4c1-3.2,0.6-7.1-0.4-11l-0.2-0.6
		l-10.2-13.7c-0.7,0.5-1.6,0.7-2.5,0.7h0h-5.1l11.8,15.9c0.7,3.2,0.7,5.5,0.3,6.9c-0.1,0.3-0.2,0.4-0.2,0.6
		c-0.1,0.3-0.3,0.4-0.4,0.5c-0.1,0.1-0.4,0.3-1.1,0.3H77.2c-0.7,0-1-0.2-1.1-0.4c-0.1-0.1-0.2-0.2-0.3-0.4c-0.2-0.3-0.3-0.8-0.5-1.5
		c-0.3-1.9,0-4.3,0.4-5.9L88,49.6h-5.4c-0.8,0-1.6-0.2-2.3-0.6L69.8,62.5l-0.2,0.6c-0.7,2.2-1.3,6-0.7,9.4c0.2,1.3,0.6,2.8,1.5,4.1
		c0.2,0.4,0.5,0.7,0.8,1.1C71.3,77.7,71.3,77.8,71.4,77.8z"/>
	<path class="st2" d="M108.4,48.1c0.9,0,1.8-0.4,2.5-1.2c0.7-0.8,1-1.8,1-2.9v-8.9c0-1.1-0.4-2.1-1-2.9c-0.7-0.8-1.6-1.2-2.5-1.2
		H82.6c-0.9,0-1.8,0.4-2.5,1.2c-0.7,0.8-1,1.8-1,2.9V44c0,1.1,0.4,2.1,1,2.9c0.7,0.8,1.6,1.2,2.5,1.2H108.4z M82.4,44v-8.9l0.1-0.1
		l26,0.1l-0.1,9.1L82.4,44z"/>
	<path class="st2" d="M108.4,44.1l0.1-9.1l-26-0.1l-0.1,0.1V44L108.4,44.1z M83.9,36.5l23.1,0.1l-0.1,6.1l-23-0.1V36.5z"/>
	<path class="st2" d="M88,49.6h15.3h5.1h0c0.9,0,1.7-0.3,2.5-0.7c0.4-0.3,0.8-0.6,1.2-1c0.9-1.1,1.4-2.4,1.4-3.9v-8.9v0
		c0-1.4-0.5-2.8-1.4-3.9c-0.9-1.1-2.2-1.7-3.6-1.7H82.6h0c-1.4,0-2.7,0.6-3.6,1.7c-0.9,1.1-1.4,2.4-1.4,3.9V44v0
		c0,1.4,0.5,2.8,1.4,3.9c0.4,0.4,0.8,0.8,1.3,1.1c0.7,0.4,1.5,0.6,2.3,0.6H88z M80,46.9c-0.7-0.8-1-1.8-1-2.9v-8.9
		c0-1.1,0.4-2.1,1-2.9c0.7-0.8,1.6-1.2,2.5-1.2h25.9c0.9,0,1.8,0.4,2.5,1.2c0.7,0.8,1,1.8,1,2.9V44c0,1.1-0.4,2.1-1,2.9
		c-0.7,0.8-1.6,1.2-2.5,1.2H82.6C81.6,48.1,80.7,47.7,80,46.9z"/>
</g>
</svg>
