<?xml version="1.0" encoding="utf-8"?>
<!-- Generator: Adobe Illustrator 25.2.1, SVG Export Plug-In . SVG Version: 6.00 Build 0)  -->
<svg version="1.1" id="Layer_1" xmlns="http://www.w3.org/2000/svg" xmlns:xlink="http://www.w3.org/1999/xlink" x="0px" y="0px"
	 viewBox="0 0 195 195" style="enable-background:new 0 0 195 195;" xml:space="preserve">
<style type="text/css">
	.st0{fill:#FFFFFF;}
	.st1{fill:#5B7A78;}
	.st2{fill:#B89473;}
</style>
<g>
	<path class="st0" d="M97.2,0C43.5,0,0,43.5,0,97.2c0,53.7,43.5,97.2,97.2,97.2c53.7,0,97.2-43.5,97.2-97.2
		C194.3,43.5,150.8,0,97.2,0z M129.6,141.2c0,6.3-5.1,11.4-11.4,11.4H72.4c-6.3,0-11.4-5.1-11.4-11.4v-14.2
		c0-12.6,5.3-24.8,14.6-33.4c7.7-7.2,12.1-17.3,12.1-27.8v0c0-0.5,0.4-0.8,0.9-0.8h31.7c0.4,0,0.8,0.3,0.8,0.7
		C130.5,113,129.6,103.8,129.6,141.2z M119.9,57.7H85.4c-0.9,8.1-4.6,15.9-10.4,21.8c-1.5,1.5-3.9,1.5-5.4,0c-1.5-1.5-1.5-3.9,0-5.4
		c4.4-4.4,7.3-10.2,8.1-16.4h-5.5c-2.1,0-3.8-1.7-3.8-3.8V52h-3.8c-2.1,0-3.8-1.7-3.8-3.8v-7.6c0-2.1,1.7-3.8,3.8-3.8h3.8v-1.9
		c0-2.1,1.7-3.8,3.8-3.8h47.7c7.4,0,13.3,6,13.3,13.3C133.2,51.7,127.2,57.7,119.9,57.7z"/>
	<path class="st1" d="M119.9,31H72.2c-2.1,0-3.8,1.7-3.8,3.8v1.9h-3.8c-2.1,0-3.8,1.7-3.8,3.8v7.6c0,2.1,1.7,3.8,3.8,3.8h3.8v1.9
		c0,2.1,1.7,3.8,3.8,3.8h5.5c-0.9,6.1-3.7,11.9-8.1,16.4c-1.5,1.5-1.5,3.9,0,5.4c1.5,1.5,3.9,1.5,5.4,0c5.9-5.9,9.6-13.6,10.4-21.8
		h34.5c7.4,0,13.3-6,13.3-13.3C133.2,37,127.2,31,119.9,31z"/>
	<path class="st2" d="M120.2,65H88.5c-0.5,0-0.9,0.4-0.9,0.8v0c0,10.5-4.4,20.7-12.1,27.8c-9.3,8.6-14.6,20.8-14.6,33.4v14.2
		c0,6.3,5.1,11.4,11.4,11.4h45.8c6.3,0,11.4-5.1,11.4-11.4c0-37.4,0.9-28.3-8.6-75.6C121,65.3,120.6,65,120.2,65z"/>
</g>
</svg>
