<?xml version="1.0" encoding="utf-8"?>
<!-- Generator: Adobe Illustrator 25.2.1, SVG Export Plug-In . SVG Version: 6.00 Build 0)  -->
<svg version="1.1" id="Layer_1" xmlns="http://www.w3.org/2000/svg" xmlns:xlink="http://www.w3.org/1999/xlink" x="0px" y="0px"
	 viewBox="0 0 159 159" style="enable-background:new 0 0 159 159;" xml:space="preserve">
<style type="text/css">
	.st0{fill:#FFFFFF;}
	.st1{fill:#B89473;}
	.st2{fill:#5B7A74;}
	.st3{fill:#9ECD64;}
</style>
<g>
	<path class="st0" d="M83.5,88.9c1.2-0.6,2.3-1.4,3.2-2.4c-2.4,1.5-5.2,2.4-8,2.6c0,0,0,0,0,0c-1-1.8-2.4-3.3-4.2-4.3
		c0.6,0.7,1.2,1.5,1.8,2.2c0.8,1,1.5,2,2.2,3C80.2,90.1,81.9,89.7,83.5,88.9z"/>
	<rect x="57.5" y="34.4" class="st0" width="43.9" height="3.8"/>
	<path class="st0" d="M104,43.1H54.9c-4.2,0-7.5,3.4-7.5,7.5v65.8c0,4.2,3.4,7.5,7.5,7.5H104c4.2,0,7.5-3.4,7.5-7.5V50.7
		C111.6,46.5,108.2,43.1,104,43.1z M72.3,61c1.7-1.8,4.1-2.8,6.5-2.9c2.5-0.1,4.9,0.8,6.7,2.5c2.4,2.5,4.1,5.7,4.9,9.1l4.5-0.9
		L91,79.6l-9.9-5.3l3.6-1.7c-0.9-2.5-2.2-4.9-3.9-6.9c-0.6-0.4-1.2-0.6-1.9-0.6c-0.7,0-1.4,0.2-1.9,0.7l-4.8,8.3l-7.4,0L72.3,61z
		 M60.8,104.7c-2.4-0.6-4.5-2.1-5.8-4.2c-1.3-2.1-1.7-4.7-1.1-7.1c1-3.4,2.9-6.4,5.5-8.7l-3-3.4l11.3-1.9L68,90.5l-3.2-2.3
		c-1,1.2-1.9,2.4-2.6,3.8c-0.5,1-1,2-1.4,3c-0.1,0.7,0.1,1.4,0.5,2c0.4,0.6,0.9,1,1.5,1.3l9.6,0l3.7,6.4H60.8z M76.3,90.5
		c-2.9-0.6-4.4-3.2-4.6-3.6c-0.6-1.2-1-2.6-1-4c-0.1-1.4,0.1-2.8,0.6-4.1c1.2,0.6,2.4,1.3,3.6,2.1c0.9,0.6,1.8,1.3,2.6,1.9
		c0.6,0.7,1,1.5,1.3,2.4c0.1,0.4,0.2,0.8,0.2,1.2c0.1-0.2,0.1-0.3,0.2-0.4c0.6-1.3,1.7-2.2,3-2.7c1.2-0.2,2.5-0.4,3.8-0.5
		c1.5-0.1,3-0.2,4.5-0.1c-0.2,1.2-0.6,2.3-1,3.4c-0.7,1.5-1.6,2.9-2.7,4.1c-2,2.1-4.6,2.8-6.5,1.8c-0.6-0.4-1.2-0.9-1.5-1.6
		C77.8,90.7,77.1,90.7,76.3,90.5z M103.9,100.4c-1.2,2.2-3.2,3.8-5.5,4.5c-1.5,0.4-3.1,0.5-4.7,0.5c-1.9,0-3.8-0.3-5.6-0.9l-1.5,4.4
		l-7.3-8.8l9.5-5.9l-0.4,4c1.5,0.3,3.1,0.4,4.6,0.4c1.1,0,2.2-0.1,3.3-0.3c0.6-0.3,1.2-0.8,1.5-1.4c0.3-0.6,0.5-1.3,0.4-2l-4.8-8.3
		c1.2-2.1,2.4-4.3,3.7-6.4l7.6,13.1C105.4,95.7,105.1,98.2,103.9,100.4z"/>
	<path class="st0" d="M79.5,0C35.6,0,0,35.6,0,79.5c0,43.9,35.6,79.5,79.5,79.5c43.9,0,79.5-35.6,79.5-79.5
		C158.9,35.6,123.4,0,79.5,0z M116.6,116.5c0,6.9-5.6,12.5-12.5,12.5H54.9c-6.9,0-12.5-5.6-12.5-12.5V50.7c0-6.1,4.4-11.2,10.1-12.3
		v-6.8c-0.1-0.4-0.2-0.8-0.2-1.3v-2c0-2.2,1.8-4,4-4h46.3c2.2,0,4,1.8,4,4v2c0,0.4-0.1,0.8-0.2,1.2v6.8c5.8,1.1,10.1,6.2,10.1,12.3
		V116.5z"/>
	<path class="st1" d="M106.4,38.4v-6.8c-0.5,1.6-2,2.8-3.8,2.8h-1.2v3.8H57.5v-3.8h-1.2c-1.8,0-3.3-1.2-3.8-2.8v6.8
		c-5.8,1.1-10.1,6.2-10.1,12.3v65.8c0,6.9,5.6,12.5,12.5,12.5H104c6.9,0,12.5-5.6,12.5-12.5V50.7C116.6,44.6,112.2,39.5,106.4,38.4z
		 M111.6,116.5c0,4.2-3.4,7.5-7.5,7.5H54.9c-4.2,0-7.5-3.4-7.5-7.5V50.7c0-4.2,3.4-7.5,7.5-7.5H104c4.2,0,7.5,3.4,7.5,7.5V116.5z"/>
	<path class="st2" d="M56.3,34.4h1.2h43.9h1.2c1.8,0,3.3-1.2,3.8-2.8c0.1-0.4,0.2-0.8,0.2-1.2v-2c0-2.2-1.8-4-4-4H56.3
		c-2.2,0-4,1.8-4,4v2c0,0.4,0.1,0.9,0.2,1.3C53.1,33.2,54.5,34.4,56.3,34.4z"/>
	<path class="st3" d="M80.1,92.1c1.9,1,4.5,0.3,6.5-1.8c1.1-1.2,2.1-2.6,2.7-4.1c0.5-1.1,0.8-2.3,1-3.4c-1.5-0.1-3,0-4.5,0.1
		c-1.3,0.1-2.5,0.3-3.8,0.5c-1.3,0.5-2.4,1.4-3,2.7c-0.1,0.1-0.1,0.3-0.2,0.4c0-0.4-0.1-0.8-0.2-1.2c-0.3-0.9-0.7-1.7-1.3-2.4
		c-0.8-0.6-1.6-1.3-2.6-1.9c-1.2-0.8-2.4-1.5-3.6-2.1c-0.5,1.3-0.7,2.7-0.6,4.1c0.1,1.4,0.4,2.7,1,4c0.3,0.5,1.7,3.1,4.6,3.6
		c0.7,0.2,1.5,0.2,2.2,0C78.9,91.2,79.4,91.7,80.1,92.1z M76.3,87.1c-0.6-0.8-1.2-1.5-1.8-2.2c1.8,1,3.3,2.5,4.2,4.3c0,0,0,0,0,0
		c2.8-0.2,5.6-1.1,8-2.6c-0.9,1-2,1.8-3.2,2.4c-1.5,0.8-3.2,1.2-5,1.2C77.8,89.1,77.1,88.1,76.3,87.1z"/>
	<path class="st2" d="M62.7,98.3c-0.6-0.3-1.2-0.7-1.5-1.3c-0.4-0.6-0.5-1.3-0.5-2c0.4-1,0.9-2.1,1.4-3c0.8-1.4,1.6-2.6,2.6-3.8
		l3.2,2.3l-0.3-11.2l-11.3,1.9l3,3.4c-2.6,2.4-4.5,5.4-5.5,8.7c-0.6,2.4-0.2,5,1.1,7.1c1.3,2.1,3.4,3.6,5.8,4.2h15.1l-3.7-6.4
		L62.7,98.3z"/>
	<path class="st2" d="M76.9,65.8c0.5-0.4,1.2-0.7,1.9-0.7c0.7,0,1.4,0.2,1.9,0.6c1.7,2.1,3,4.4,3.9,6.9l-3.6,1.7l9.9,5.3l3.9-10.8
		l-4.5,0.9c-0.8-3.4-2.5-6.6-4.9-9.1c-1.8-1.7-4.2-2.6-6.7-2.5c-2.5,0.1-4.8,1.1-6.5,2.9l-7.5,13.1l7.4,0L76.9,65.8z"/>
	<path class="st2" d="M97.1,80.2c-1.2,2.1-2.4,4.3-3.7,6.4l4.8,8.3c0.1,0.7,0,1.4-0.4,2c-0.3,0.6-0.9,1.1-1.5,1.4
		c-1.1,0.2-2.2,0.3-3.3,0.3c-1.5,0-3.1-0.1-4.6-0.4l0.4-4l-9.5,5.9l7.3,8.8l1.5-4.4c1.8,0.6,3.7,0.9,5.6,0.9c1.6,0,3.2-0.2,4.7-0.5
		c2.4-0.7,4.4-2.3,5.5-4.5c1.2-2.2,1.5-4.7,0.8-7.1L97.1,80.2z"/>
</g>
</svg>
