<svg width="159" height="159" viewBox="0 0 159 159" fill="none" xmlns="http://www.w3.org/2000/svg">
<path d="M79.4687 158.937C123.358 158.937 158.937 123.358 158.937 79.4687C158.937 35.5793 123.358 0 79.4687 0C35.5793 0 0 35.5793 0 79.4687C0 123.358 35.5793 158.937 79.4687 158.937Z" fill="white"/>
<path fill-rule="evenodd" clip-rule="evenodd" d="M54.9145 43.1225C50.7549 43.1225 47.3828 46.4946 47.3828 50.6542V116.456C47.3828 120.616 50.7549 123.988 54.9145 123.988H104.023C108.182 123.988 111.554 120.616 111.554 116.456V50.6542C111.554 46.4946 108.182 43.1225 104.023 43.1225H54.9145ZM42.3828 50.6542C42.3828 43.7331 47.9934 38.1225 54.9145 38.1225H104.023C110.944 38.1225 116.554 43.7331 116.554 50.6542V116.456C116.554 123.377 110.944 128.988 104.023 128.988H54.9145C47.9934 128.988 42.3828 123.377 42.3828 116.456V50.6542Z" fill="#B89473"/>
<path fill-rule="evenodd" clip-rule="evenodd" d="M52.5205 28.917H106.416V43.1166H52.5205V28.917ZM57.5205 33.917V38.1166H101.416V33.917H57.5205Z" fill="#B89473"/>
<path d="M102.6 24.2473H56.3307C54.1048 24.2473 52.3003 26.0517 52.3003 28.2776V30.3253C52.3003 32.5512 54.1048 34.3557 56.3307 34.3557H102.6C104.826 34.3557 106.631 32.5512 106.631 30.3253V28.2776C106.631 26.0517 104.826 24.2473 102.6 24.2473Z" fill="#5B7A74"/>
<path d="M78.8317 90.5036C78.0104 90.6736 77.1629 90.6736 76.3415 90.5036C73.4264 89.9135 71.963 87.3524 71.6915 86.8568C71.0868 85.6085 70.7367 84.2523 70.6618 82.8674C70.5868 81.4824 70.7884 80.0963 71.2549 78.7901C72.5004 79.4235 73.7046 80.135 74.8604 80.9204C75.8045 81.5636 76.6307 82.2068 77.4155 82.8382C78.0118 83.5456 78.454 84.3696 78.7137 85.2576C79.084 86.5153 79.084 87.8532 78.7137 89.1109C77.758 87.3039 76.2958 85.815 74.5063 84.8268C75.0964 85.5507 75.6865 86.2981 76.2766 87.0692C77.1736 88.2317 78.0233 89.3765 78.8317 90.5036Z" fill="#9ECD64"/>
<path d="M78.7132 89.1051C78.5324 88.0716 78.6703 87.0075 79.1086 86.0543C79.7134 84.802 80.7823 83.8346 82.0886 83.3575C83.3362 83.1264 84.5947 82.959 85.8593 82.8559C87.3528 82.7323 88.8523 82.6968 90.35 82.7497C90.1444 83.9369 89.7936 85.0943 89.3055 86.1959C88.6327 87.7148 87.7113 89.1108 86.5793 90.3266C84.6142 92.4273 81.9411 93.0942 80.0882 92.0969C79.2948 91.6367 78.6732 90.9302 78.3179 90.0846C80.1101 90.1059 81.8817 89.7014 83.4871 88.9044C84.7045 88.2933 85.8003 87.4654 86.7209 86.4614C84.3058 87.9795 81.5575 88.8868 78.7132 89.1051Z" fill="#9ECD64"/>
<path d="M72.2341 98.3399L75.9223 104.707H60.8275C58.4227 104.103 56.3518 102.578 55.0622 100.46C53.7726 98.3426 53.3677 95.8026 53.9351 93.389C54.9442 90.036 56.8354 87.0156 59.4113 84.6437L56.3663 81.1975L67.6491 79.2738L67.9854 90.4857L64.7458 88.1902C63.7391 89.3662 62.8515 90.6392 62.0962 91.9905C61.5481 92.9651 61.0727 93.9789 60.6741 95.0236C60.6117 95.7159 60.7708 96.4102 61.1285 97.0063C61.4883 97.5913 62.02 98.0509 62.6509 98.3222L72.2341 98.3399Z" fill="#5B7A74"/>
<path d="M72.1691 74.1105L64.8105 74.1518L72.3048 61.0457C74.0223 59.259 76.3734 58.2193 78.8508 58.1508C81.3282 58.0824 83.7331 58.9907 85.5466 60.6799C87.9554 63.2206 89.6386 66.3608 90.4209 69.7733L94.9233 68.841L90.9933 79.5926L81.0914 74.3171L84.6969 72.6412C83.7987 70.1269 82.4754 67.7856 80.7845 65.7193C80.2182 65.3218 79.54 65.115 78.8483 65.1288C78.1565 65.1426 77.4871 65.3763 76.9371 65.796L72.1691 74.1105Z" fill="#5B7A74"/>
<path d="M93.4481 86.6383C94.6677 84.51 95.8853 82.3798 97.1009 80.2476L104.684 93.3065C105.367 95.6882 105.087 98.2432 103.903 100.42C102.72 102.597 100.728 104.222 98.3578 104.943C96.8236 105.312 95.2502 105.492 93.6724 105.48C91.7654 105.464 89.8709 105.169 88.0487 104.607L86.5971 108.962L79.2681 100.175L88.7923 94.2742L88.4382 98.2279C89.9598 98.5089 91.5057 98.6374 93.0528 98.6115C94.1696 98.5942 95.2837 98.4976 96.3868 98.3223C97.017 98.0237 97.5373 97.5345 97.8739 96.9238C98.2016 96.3221 98.3317 95.6326 98.2457 94.9528L93.4481 86.6383Z" fill="#5B7A74"/>
</svg>
