<svg width="107" height="107" viewBox="0 0 107 107" fill="none" xmlns="http://www.w3.org/2000/svg">
<path fill-rule="evenodd" clip-rule="evenodd" d="M53.5 105C81.9427 105 105 81.9427 105 53.5C105 25.0573 81.9427 2 53.5 2C25.0573 2 2 25.0573 2 53.5C2 81.9427 25.0573 105 53.5 105ZM53.5 107C83.0472 107 107 83.0472 107 53.5C107 23.9528 83.0472 0 53.5 0C23.9528 0 0 23.9528 0 53.5C0 83.0472 23.9528 107 53.5 107Z" fill="#B89473"/>
<path d="M75.9508 26.2549C71.597 24.2903 65.7529 34.1416 62.9863 40.2725C62.743 40.8116 62.5043 41.3614 62.2768 41.9063C61.958 42.6698 62.3186 43.5473 63.082 43.8661C63.8453 44.1851 64.7228 43.8245 65.0418 43.0609C65.2583 42.5419 65.4859 42.0186 65.7174 41.5052C67.3714 37.8401 69.318 34.509 71.1987 32.1251C73.1285 29.6789 74.3416 29.0575 74.7099 29.0051C74.9143 29.3159 75.2511 30.6365 74.6936 33.7022C74.1504 36.6895 72.9403 40.3532 71.2863 44.0183C69.9724 46.9299 68.462 49.6486 66.9513 51.8385C63.4442 47.7875 58.2663 45.2206 52.5 45.2206C49.6669 45.2206 46.9762 45.8411 44.5554 46.9519C43.8946 44.8035 43.0294 42.5231 42.0137 40.2725C39.2471 34.1418 33.4036 24.2895 29.0492 26.2549C24.6953 28.2197 28.216 39.1197 30.9826 45.2506C32.5407 48.7034 34.3713 51.9134 36.1852 54.3874C34.4114 57.2864 33.3879 60.692 33.3879 64.3326C33.3879 74.871 41.9613 83.4445 52.4998 83.4445C63.0383 83.4445 71.6117 74.871 71.6117 64.3326C71.6117 60.6922 70.5884 57.2868 68.8148 54.3878C70.6284 51.9142 72.4603 48.7004 74.0172 45.2506C76.784 39.1197 80.3047 28.2197 75.9508 26.2549V26.2549ZM33.7137 44.0181C32.0597 40.353 30.8498 36.6893 30.3064 33.702C29.7489 30.6365 30.0857 29.3158 30.2901 29.0049C30.6584 29.0573 31.8715 29.6789 33.8014 32.1249C35.682 34.5088 37.6287 37.8399 39.2826 41.505C40.3467 43.8631 41.2358 46.2482 41.8776 48.4521C40.4548 49.4069 39.1666 50.5471 38.0483 51.8387C36.5382 49.6494 35.0288 46.9323 33.7137 44.0181ZM49.0011 73.9971C48.9867 73.9755 48.9669 73.9458 48.9959 73.8914C49.0251 73.8371 49.0608 73.8371 49.0868 73.8371H55.913C55.939 73.8371 55.9747 73.8371 56.0039 73.8914C56.0331 73.9458 56.0131 73.9755 55.9987 73.9973L52.5 79.2455L49.0011 73.9971ZM55.4873 80.1661L58.4918 75.6593C59.1271 74.7064 59.1862 73.4871 58.6459 72.4776C58.1055 71.468 57.0584 70.8406 55.9132 70.8406H49.087C47.9418 70.8406 46.8947 71.4678 46.3543 72.4776C45.814 73.4873 45.8729 74.7064 46.5084 75.6593L49.5129 80.1661C42.0496 78.7609 36.3846 72.1977 36.3846 64.3326C36.3846 55.4463 43.6141 48.2168 52.5002 48.2168C61.3863 48.2168 68.6158 55.4463 68.6158 64.3326C68.6156 72.1977 62.9506 78.7609 55.4873 80.1661Z" fill="#5B7A78"/>
<path d="M42.8922 62.8347C42.0648 62.8347 41.394 63.5055 41.394 64.3329V65.9341C41.394 66.7615 42.0648 67.4323 42.8922 67.4323C43.7196 67.4323 44.3904 66.7615 44.3904 65.9341V64.3329C44.3904 63.5055 43.7196 62.8347 42.8922 62.8347Z" fill="#5B7A78"/>
<path d="M62.107 62.8347C61.2797 62.8347 60.6089 63.5055 60.6089 64.3329V65.9341C60.6089 66.7615 61.2797 67.4323 62.107 67.4323C62.9344 67.4323 63.6052 66.7615 63.6052 65.9341V64.3329C63.6052 63.5055 62.9344 62.8347 62.107 62.8347Z" fill="#5B7A78"/>
</svg>
