<?xml version="1.0" encoding="utf-8"?>
<!-- Generator: Adobe Illustrator 25.2.1, SVG Export Plug-In . SVG Version: 6.00 Build 0)  -->
<svg version="1.1" id="Layer_1" xmlns="http://www.w3.org/2000/svg" xmlns:xlink="http://www.w3.org/1999/xlink" x="0px" y="0px"
	 viewBox="0 0 107 107" style="enable-background:new 0 0 107 107;" xml:space="preserve">
<style type="text/css">
	.st0{fill:none;}
	.st1{fill:#B89473;}
	.st2{fill:#5B7A78;}
</style>
<g>
	<path class="st0" d="M56,73.9C56,73.8,55.9,73.8,56,73.9l-6.9-0.1c0,0-0.1,0-0.1,0.1c0,0.1,0,0.1,0,0.1l3.5,5.2L56,74
		C56,74,56,73.9,56,73.9z"/>
	<path class="st0" d="M41.9,48.5c-0.6-2.2-1.5-4.6-2.6-6.9c-1.7-3.7-3.6-7-5.5-9.4c-1.9-2.4-3.1-3.1-3.5-3.1c-0.2,0.3-0.5,1.6,0,4.7
		c0.5,3,1.8,6.7,3.4,10.3c1.3,2.9,2.8,5.6,4.3,7.8C39.2,50.5,40.5,49.4,41.9,48.5z"/>
	<path class="st0" d="M52.5,48.2c-8.9,0-16.1,7.2-16.1,16.1c0,7.9,5.7,14.4,13.1,15.8l-3-4.5c-0.6-1-0.7-2.2-0.2-3.2
		c0.5-1,1.6-1.6,2.7-1.6h6.8c1.1,0,2.2,0.6,2.7,1.6c0.5,1,0.5,2.2-0.2,3.2l-3,4.5c7.5-1.4,13.1-8,13.1-15.8
		C68.6,55.4,61.4,48.2,52.5,48.2z M44.4,65.9c0,0.8-0.7,1.5-1.5,1.5s-1.5-0.7-1.5-1.5v-1.6c0-0.8,0.7-1.5,1.5-1.5s1.5,0.7,1.5,1.5
		V65.9z M63.6,65.9c0,0.8-0.7,1.5-1.5,1.5c-0.8,0-1.5-0.7-1.5-1.5v-1.6c0-0.8,0.7-1.5,1.5-1.5c0.8,0,1.5,0.7,1.5,1.5V65.9z"/>
	<path class="st0" d="M53.5,2C25.1,2,2,25.1,2,53.5S25.1,105,53.5,105S105,81.9,105,53.5S81.9,2,53.5,2z M74,45.3
		c-1.6,3.4-3.4,6.7-5.2,9.1c1.8,2.9,2.8,6.3,2.8,9.9c0,10.5-8.6,19.1-19.1,19.1s-19.1-8.6-19.1-19.1c0-3.6,1-7,2.8-9.9
		c-1.8-2.5-3.6-5.7-5.2-9.1c-2.8-6.1-6.3-17-1.9-19c4.4-2,10.2,7.9,13,14c1,2.3,1.9,4.5,2.5,6.7c2.4-1.1,5.1-1.7,7.9-1.7
		c5.8,0,10.9,2.6,14.5,6.6c1.5-2.2,3-4.9,4.3-7.8c1.7-3.7,2.9-7.3,3.4-10.3c0.6-3.1,0.2-4.4,0-4.7c-0.4,0.1-1.6,0.7-3.5,3.1
		c-1.9,2.4-3.8,5.7-5.5,9.4c-0.2,0.5-0.5,1-0.7,1.6c-0.3,0.8-1.2,1.1-2,0.8c-0.8-0.3-1.1-1.2-0.8-2c0.2-0.5,0.5-1.1,0.7-1.6
		c2.8-6.1,8.6-16,13-14C80.3,28.2,76.8,39.1,74,45.3z"/>
	<path class="st1" d="M53.5,0C24,0,0,24,0,53.5S24,107,53.5,107S107,83,107,53.5S83,0,53.5,0z M53.5,105C25.1,105,2,81.9,2,53.5
		S25.1,2,53.5,2S105,25.1,105,53.5S81.9,105,53.5,105z"/>
	<path class="st2" d="M76,26.3c-4.4-2-10.2,7.9-13,14c-0.2,0.5-0.5,1.1-0.7,1.6c-0.3,0.8,0,1.6,0.8,2c0.8,0.3,1.6,0,2-0.8
		c0.2-0.5,0.4-1,0.7-1.6c1.7-3.7,3.6-7,5.5-9.4c1.9-2.4,3.1-3.1,3.5-3.1c0.2,0.3,0.5,1.6,0,4.7c-0.5,3-1.8,6.7-3.4,10.3
		c-1.3,2.9-2.8,5.6-4.3,7.8c-3.5-4.1-8.7-6.6-14.5-6.6c-2.8,0-5.5,0.6-7.9,1.7c-0.7-2.1-1.5-4.4-2.5-6.7c-2.8-6.1-8.6-16-13-14
		c-4.4,2-0.8,12.9,1.9,19c1.6,3.5,3.4,6.7,5.2,9.1c-1.8,2.9-2.8,6.3-2.8,9.9c0,10.5,8.6,19.1,19.1,19.1s19.1-8.6,19.1-19.1
		c0-3.6-1-7-2.8-9.9c1.8-2.5,3.6-5.7,5.2-9.1C76.8,39.1,80.3,28.2,76,26.3z M33.7,44c-1.7-3.7-2.9-7.3-3.4-10.3
		c-0.6-3.1-0.2-4.4,0-4.7c0.4,0.1,1.6,0.7,3.5,3.1c1.9,2.4,3.8,5.7,5.5,9.4c1.1,2.4,2,4.7,2.6,6.9c-1.4,1-2.7,2.1-3.8,3.4
		C36.5,49.6,35,46.9,33.7,44z M49,74c0,0,0-0.1,0-0.1c0-0.1,0.1-0.1,0.1-0.1h6.8c0,0,0.1,0,0.1,0.1c0,0.1,0,0.1,0,0.1l-3.5,5.2
		L49,74z M55.5,80.2l3-4.5c0.6-1,0.7-2.2,0.2-3.2c-0.5-1-1.6-1.6-2.7-1.6h-6.8c-1.1,0-2.2,0.6-2.7,1.6c-0.5,1-0.5,2.2,0.2,3.2l3,4.5
		c-7.5-1.4-13.1-8-13.1-15.8c0-8.9,7.2-16.1,16.1-16.1s16.1,7.2,16.1,16.1C68.6,72.2,63,78.8,55.5,80.2z"/>
	<path class="st2" d="M42.9,62.8c-0.8,0-1.5,0.7-1.5,1.5v1.6c0,0.8,0.7,1.5,1.5,1.5s1.5-0.7,1.5-1.5v-1.6
		C44.4,63.5,43.7,62.8,42.9,62.8z"/>
	<path class="st2" d="M62.1,62.8c-0.8,0-1.5,0.7-1.5,1.5v1.6c0,0.8,0.7,1.5,1.5,1.5c0.8,0,1.5-0.7,1.5-1.5v-1.6
		C63.6,63.5,62.9,62.8,62.1,62.8z"/>
</g>
</svg>
