<svg width="138" height="142" viewBox="0 0 138 142" fill="none" xmlns="http://www.w3.org/2000/svg">
<path d="M12.132 124.49L7.43404 137H5.05804L0.342041 124.49H2.53804L6.24604 134.894L9.97204 124.49H12.132Z" fill="#3A2B1B"/>
<path d="M22.9381 131.798C22.9381 132.17 22.9141 132.506 22.8661 132.806H15.2881C15.3481 133.598 15.6421 134.234 16.1701 134.714C16.6981 135.194 17.3461 135.434 18.1141 135.434C19.2181 135.434 19.9981 134.972 20.4541 134.048H22.6681C22.3681 134.96 21.8221 135.71 21.0301 136.298C20.2501 136.874 19.2781 137.162 18.1141 137.162C17.1661 137.162 16.3141 136.952 15.5581 136.532C14.8141 136.1 14.2261 135.5 13.7941 134.732C13.3741 133.952 13.1641 133.052 13.1641 132.032C13.1641 131.012 13.3681 130.118 13.7761 129.35C14.1961 128.57 14.7781 127.97 15.5221 127.55C16.2781 127.13 17.1421 126.92 18.1141 126.92C19.0501 126.92 19.8841 127.124 20.6161 127.532C21.3481 127.94 21.9181 128.516 22.3261 129.26C22.7341 129.992 22.9381 130.838 22.9381 131.798ZM20.7961 131.15C20.7841 130.394 20.5141 129.788 19.9861 129.332C19.4581 128.876 18.8041 128.648 18.0241 128.648C17.3161 128.648 16.7101 128.876 16.2061 129.332C15.7021 129.776 15.4021 130.382 15.3061 131.15H20.7961Z" fill="#3A2B1B"/>
<path d="M28.9535 126.92C29.7215 126.92 30.3995 127.076 30.9875 127.388C31.5875 127.688 32.0555 128.066 32.3915 128.522V127.082H34.4615V137.162C34.4615 138.074 34.2695 138.884 33.8855 139.592C33.5015 140.312 32.9435 140.876 32.2115 141.284C31.4915 141.692 30.6275 141.896 29.6195 141.896C28.2755 141.896 27.1595 141.578 26.2715 140.942C25.3835 140.318 24.8795 139.466 24.7595 138.386H26.7935C26.9495 138.902 27.2795 139.316 27.7835 139.628C28.2995 139.952 28.9115 140.114 29.6195 140.114C30.4475 140.114 31.1135 139.862 31.6175 139.358C32.1335 138.854 32.3915 138.122 32.3915 137.162V135.506C32.0435 135.974 31.5695 136.37 30.9695 136.694C30.3815 137.006 29.7095 137.162 28.9535 137.162C28.0895 137.162 27.2975 136.946 26.5775 136.514C25.8695 136.07 25.3055 135.458 24.8855 134.678C24.4775 133.886 24.2735 132.992 24.2735 131.996C24.2735 131 24.4775 130.118 24.8855 129.35C25.3055 128.582 25.8695 127.988 26.5775 127.568C27.2975 127.136 28.0895 126.92 28.9535 126.92ZM32.3915 132.032C32.3915 131.348 32.2475 130.754 31.9595 130.25C31.6835 129.746 31.3175 129.362 30.8615 129.098C30.4055 128.834 29.9135 128.702 29.3855 128.702C28.8575 128.702 28.3655 128.834 27.9095 129.098C27.4535 129.35 27.0815 129.728 26.7935 130.232C26.5175 130.724 26.3795 131.312 26.3795 131.996C26.3795 132.68 26.5175 133.28 26.7935 133.796C27.0815 134.312 27.4535 134.708 27.9095 134.984C28.3775 135.248 28.8695 135.38 29.3855 135.38C29.9135 135.38 30.4055 135.248 30.8615 134.984C31.3175 134.72 31.6835 134.336 31.9595 133.832C32.2475 133.316 32.3915 132.716 32.3915 132.032Z" fill="#3A2B1B"/>
<path d="M36.4727 131.996C36.4727 131 36.6767 130.118 37.0847 129.35C37.5047 128.582 38.0687 127.988 38.7767 127.568C39.4967 127.136 40.2887 126.92 41.1527 126.92C41.9327 126.92 42.6107 127.076 43.1867 127.388C43.7747 127.688 44.2427 128.066 44.5907 128.522V127.082H46.6607V137H44.5907V135.524C44.2427 135.992 43.7687 136.382 43.1687 136.694C42.5687 137.006 41.8847 137.162 41.1167 137.162C40.2647 137.162 39.4847 136.946 38.7767 136.514C38.0687 136.07 37.5047 135.458 37.0847 134.678C36.6767 133.886 36.4727 132.992 36.4727 131.996ZM44.5907 132.032C44.5907 131.348 44.4467 130.754 44.1587 130.25C43.8827 129.746 43.5167 129.362 43.0607 129.098C42.6047 128.834 42.1127 128.702 41.5847 128.702C41.0567 128.702 40.5647 128.834 40.1087 129.098C39.6527 129.35 39.2807 129.728 38.9927 130.232C38.7167 130.724 38.5787 131.312 38.5787 131.996C38.5787 132.68 38.7167 133.28 38.9927 133.796C39.2807 134.312 39.6527 134.708 40.1087 134.984C40.5767 135.248 41.0687 135.38 41.5847 135.38C42.1127 135.38 42.6047 135.248 43.0607 134.984C43.5167 134.72 43.8827 134.336 44.1587 133.832C44.4467 133.316 44.5907 132.716 44.5907 132.032Z" fill="#3A2B1B"/>
<path d="M54.3599 126.92C55.1399 126.92 55.8359 127.082 56.4479 127.406C57.0719 127.73 57.5579 128.21 57.9059 128.846C58.2539 129.482 58.4279 130.25 58.4279 131.15V137H56.3939V131.456C56.3939 130.568 56.1719 129.89 55.7279 129.422C55.2839 128.942 54.6779 128.702 53.9099 128.702C53.1419 128.702 52.5299 128.942 52.0739 129.422C51.6299 129.89 51.4079 130.568 51.4079 131.456V137H49.3559V127.082H51.4079V128.216C51.7439 127.808 52.1699 127.49 52.6859 127.262C53.2139 127.034 53.7719 126.92 54.3599 126.92Z" fill="#3A2B1B"/>
<path d="M68.6593 129.62V131.348H61.2614V129.62H68.6593Z" fill="#3A2B1B"/>
<path d="M75.7327 128.756H73.8966V137H71.8266V128.756H70.6566V127.082H71.8266V126.38C71.8266 125.24 72.1266 124.412 72.7266 123.896C73.3386 123.368 74.2926 123.104 75.5886 123.104V124.814C74.9646 124.814 74.5267 124.934 74.2747 125.174C74.0227 125.402 73.8966 125.804 73.8966 126.38V127.082H75.7327V128.756Z" fill="#3A2B1B"/>
<path d="M79.6032 128.522C79.9032 128.018 80.2992 127.628 80.7912 127.352C81.2952 127.064 81.8892 126.92 82.5732 126.92V129.044H82.0512C81.2472 129.044 80.6352 129.248 80.2152 129.656C79.8072 130.064 79.6032 130.772 79.6032 131.78V137H77.5512V127.082H79.6032V128.522Z" fill="#3A2B1B"/>
<path d="M85.5034 125.768C85.1314 125.768 84.8194 125.642 84.5674 125.39C84.3154 125.138 84.1894 124.826 84.1894 124.454C84.1894 124.082 84.3154 123.77 84.5674 123.518C84.8194 123.266 85.1314 123.14 85.5034 123.14C85.8634 123.14 86.1694 123.266 86.4214 123.518C86.6734 123.77 86.7994 124.082 86.7994 124.454C86.7994 124.826 86.6734 125.138 86.4214 125.39C86.1694 125.642 85.8634 125.768 85.5034 125.768ZM86.5114 127.082V137H84.4594V127.082H86.5114Z" fill="#3A2B1B"/>
<path d="M98.2955 131.798C98.2955 132.17 98.2715 132.506 98.2235 132.806H90.6455C90.7055 133.598 90.9995 134.234 91.5275 134.714C92.0555 135.194 92.7035 135.434 93.4715 135.434C94.5755 135.434 95.3555 134.972 95.8115 134.048H98.0255C97.7255 134.96 97.1795 135.71 96.3875 136.298C95.6075 136.874 94.6355 137.162 93.4715 137.162C92.5235 137.162 91.6715 136.952 90.9155 136.532C90.1715 136.1 89.5835 135.5 89.1515 134.732C88.7315 133.952 88.5215 133.052 88.5215 132.032C88.5215 131.012 88.7255 130.118 89.1335 129.35C89.5535 128.57 90.1355 127.97 90.8795 127.55C91.6355 127.13 92.4995 126.92 93.4715 126.92C94.4075 126.92 95.2415 127.124 95.9735 127.532C96.7055 127.94 97.2755 128.516 97.6835 129.26C98.0915 129.992 98.2955 130.838 98.2955 131.798ZM96.1535 131.15C96.1415 130.394 95.8715 129.788 95.3435 129.332C94.8155 128.876 94.1615 128.648 93.3815 128.648C92.6735 128.648 92.0675 128.876 91.5635 129.332C91.0595 129.776 90.7595 130.382 90.6635 131.15H96.1535Z" fill="#3A2B1B"/>
<path d="M105.319 126.92C106.099 126.92 106.795 127.082 107.407 127.406C108.031 127.73 108.517 128.21 108.865 128.846C109.213 129.482 109.387 130.25 109.387 131.15V137H107.353V131.456C107.353 130.568 107.131 129.89 106.687 129.422C106.243 128.942 105.637 128.702 104.869 128.702C104.101 128.702 103.489 128.942 103.033 129.422C102.589 129.89 102.367 130.568 102.367 131.456V137H100.315V127.082H102.367V128.216C102.703 127.808 103.129 127.49 103.645 127.262C104.173 127.034 104.731 126.92 105.319 126.92Z" fill="#3A2B1B"/>
<path d="M111.32 131.996C111.32 131 111.524 130.118 111.932 129.35C112.352 128.582 112.916 127.988 113.624 127.568C114.344 127.136 115.142 126.92 116.018 126.92C116.666 126.92 117.302 127.064 117.926 127.352C118.562 127.628 119.066 128 119.438 128.468V123.68H121.508V137H119.438V135.506C119.102 135.986 118.634 136.382 118.034 136.694C117.446 137.006 116.768 137.162 116 137.162C115.136 137.162 114.344 136.946 113.624 136.514C112.916 136.07 112.352 135.458 111.932 134.678C111.524 133.886 111.32 132.992 111.32 131.996ZM119.438 132.032C119.438 131.348 119.294 130.754 119.006 130.25C118.73 129.746 118.364 129.362 117.908 129.098C117.452 128.834 116.96 128.702 116.432 128.702C115.904 128.702 115.412 128.834 114.956 129.098C114.5 129.35 114.128 129.728 113.84 130.232C113.564 130.724 113.426 131.312 113.426 131.996C113.426 132.68 113.564 133.28 113.84 133.796C114.128 134.312 114.5 134.708 114.956 134.984C115.424 135.248 115.916 135.38 116.432 135.38C116.96 135.38 117.452 135.248 117.908 134.984C118.364 134.72 118.73 134.336 119.006 133.832C119.294 133.316 119.438 132.716 119.438 132.032Z" fill="#3A2B1B"/>
<path d="M126.256 123.68V137H124.204V123.68H126.256Z" fill="#3A2B1B"/>
<path d="M137.878 127.082L131.794 141.662H129.67L131.686 136.838L127.78 127.082H130.066L132.856 134.642L135.754 127.082H137.878Z" fill="#3A2B1B"/>
<path fill-rule="evenodd" clip-rule="evenodd" d="M70.5 105C98.9427 105 122 81.9427 122 53.5C122 25.0573 98.9427 2 70.5 2C42.0573 2 19 25.0573 19 53.5C19 81.9427 42.0573 105 70.5 105ZM70.5 107C100.047 107 124 83.0472 124 53.5C124 23.9528 100.047 0 70.5 0C40.9528 0 17 23.9528 17 53.5C17 83.0472 40.9528 107 70.5 107Z" fill="#B89473"/>
<path d="M92.9508 26.2549C88.597 24.2903 82.7529 34.1416 79.9863 40.2725C79.743 40.8116 79.5043 41.3614 79.2768 41.9063C78.958 42.6698 79.3186 43.5473 80.082 43.8661C80.8453 44.1851 81.7228 43.8245 82.0418 43.0609C82.2583 42.5419 82.4859 42.0186 82.7174 41.5052C84.3714 37.8401 86.318 34.509 88.1987 32.1251C90.1285 29.6789 91.3416 29.0575 91.7099 29.0051C91.9143 29.3159 92.2511 30.6365 91.6936 33.7022C91.1504 36.6895 89.9403 40.3532 88.2863 44.0183C86.9724 46.9299 85.462 49.6486 83.9513 51.8385C80.4442 47.7875 75.2663 45.2206 69.5 45.2206C66.6669 45.2206 63.9762 45.8411 61.5554 46.9519C60.8946 44.8035 60.0294 42.5231 59.0137 40.2725C56.2471 34.1418 50.4036 24.2895 46.0492 26.2549C41.6953 28.2197 45.216 39.1197 47.9826 45.2506C49.5407 48.7034 51.3713 51.9134 53.1852 54.3874C51.4114 57.2864 50.3879 60.692 50.3879 64.3326C50.3879 74.871 58.9613 83.4445 69.4998 83.4445C80.0383 83.4445 88.6117 74.871 88.6117 64.3326C88.6117 60.6922 87.5884 57.2868 85.8148 54.3878C87.6284 51.9142 89.4603 48.7004 91.0172 45.2506C93.784 39.1197 97.3047 28.2197 92.9508 26.2549V26.2549ZM50.7137 44.0181C49.0597 40.353 47.8498 36.6893 47.3064 33.702C46.7489 30.6365 47.0857 29.3158 47.2901 29.0049C47.6584 29.0573 48.8715 29.6789 50.8014 32.1249C52.682 34.5088 54.6287 37.8399 56.2826 41.505C57.3467 43.8631 58.2358 46.2482 58.8776 48.4521C57.4548 49.4069 56.1666 50.5471 55.0483 51.8387C53.5382 49.6494 52.0288 46.9323 50.7137 44.0181ZM66.0011 73.9971C65.9867 73.9755 65.9669 73.9458 65.9959 73.8914C66.0251 73.8371 66.0608 73.8371 66.0868 73.8371H72.913C72.939 73.8371 72.9747 73.8371 73.0039 73.8914C73.0331 73.9458 73.0131 73.9755 72.9987 73.9973L69.5 79.2455L66.0011 73.9971ZM72.4873 80.1661L75.4918 75.6593C76.1271 74.7064 76.1862 73.4871 75.6459 72.4776C75.1055 71.468 74.0584 70.8406 72.9132 70.8406H66.087C64.9418 70.8406 63.8947 71.4678 63.3543 72.4776C62.814 73.4873 62.8729 74.7064 63.5084 75.6593L66.5129 80.1661C59.0496 78.7609 53.3846 72.1977 53.3846 64.3326C53.3846 55.4463 60.6141 48.2168 69.5002 48.2168C78.3863 48.2168 85.6158 55.4463 85.6158 64.3326C85.6156 72.1977 79.9506 78.7609 72.4873 80.1661Z" fill="#5B7A78"/>
<path d="M59.8922 62.8347C59.0648 62.8347 58.394 63.5055 58.394 64.3329V65.9341C58.394 66.7615 59.0648 67.4323 59.8922 67.4323C60.7196 67.4323 61.3904 66.7615 61.3904 65.9341V64.3329C61.3904 63.5055 60.7196 62.8347 59.8922 62.8347Z" fill="#5B7A78"/>
<path d="M79.107 62.8347C78.2797 62.8347 77.6089 63.5055 77.6089 64.3329V65.9341C77.6089 66.7615 78.2797 67.4323 79.107 67.4323C79.9344 67.4323 80.6052 66.7615 80.6052 65.9341V64.3329C80.6052 63.5055 79.9344 62.8347 79.107 62.8347Z" fill="#5B7A78"/>
</svg>
