<?xml version="1.0" encoding="utf-8"?>
<!-- Generator: Adobe Illustrator 23.0.6, SVG Export Plug-In . SVG Version: 6.00 Build 0)  -->
<svg version="1.1" id="Layer_1" xmlns="http://www.w3.org/2000/svg" xmlns:xlink="http://www.w3.org/1999/xlink" x="0px" y="0px"
	 viewBox="0 0 384.6 117.3" style="enable-background:new 0 0 384.6 117.3;" xml:space="preserve">
<style type="text/css">
	.st0{fill:#293D3B;}
	.st1{fill:#FFFFFF;}
	.st2{fill-rule:evenodd;clip-rule:evenodd;fill:#FFFFFF;}
</style>
<rect x="-0.1" y="-0.3" class="st0" width="386" height="118"/>
<path class="st1" d="M200.1,25.7c1,1-1.4,5-2.1,5.8c-0.8,0.8-4.7,3.1-5.7,2.1s1.3-5,2-5.7C195.1,27.1,199.1,24.7,200.1,25.7z"/>
<path class="st1" d="M196.8,34.4c0.6,1-3.3,4.5-4.3,5.1c-1,0.6-5.8,2.3-6.4,1.3s3.1-4.4,4.2-5C191.3,35.2,196.2,33.4,196.8,34.4z"/>
<path class="st1" d="M191,29.1c1.1,0.5,0.1,5.5-0.4,6.7s-3.3,5.3-4.4,4.9c-1.1-0.5-0.1-5.4,0.3-6.5S189.9,28.6,191,29.1z"/>
<path class="st1" d="M184,34.1c1.2,0.1,1.6,5.3,1.5,6.5c-0.1,1.2-1.7,6-2.9,5.9c-1.2-0.1-1.6-5.2-1.5-6.4
	C181.2,38.9,182.8,34,184,34.1z"/>
<path class="st1" d="M193.6,41.1c0.5,1.1-3.7,4.1-4.8,4.6c-1.1,0.5-6,1.7-6.5,0.6c-0.5-1.1,3.6-4,4.7-4.5
	C188.1,41.3,193.1,40,193.6,41.1z"/>
<path class="st2" d="M190.1,37c-1.6,2-3.5,4.8-6.7,9.8l-1-0.7c3.2-5,5.1-7.9,6.8-9.9c1.7-2,3-3.2,4.8-4.7l0.8,0.9
	C193,33.9,191.7,35,190.1,37z"/>
<path class="st1" d="M98.5,49.7c2.1,0,3.9,0.4,5.4,1.3c1.6,0.8,2.8,1.9,3.6,3.3v-4.1h9v29.2c0,2.7-0.5,5.1-1.6,7.3
	c-1,2.2-2.7,3.9-4.9,5.2c-2.2,1.3-4.9,1.9-8.1,1.9c-4.3,0-7.8-1-10.5-3.1c-2.7-2-4.2-4.8-4.6-8.3h8.9c0.3,1.1,0.9,2,2,2.6
	c1,0.7,2.3,1,3.9,1c1.9,0,3.3-0.5,4.4-1.6c1.1-1,1.7-2.7,1.7-5.1v-4.1c-0.9,1.4-2.1,2.5-3.6,3.4c-1.5,0.8-3.3,1.3-5.4,1.3
	c-2.4,0-4.6-0.6-6.6-1.8c-2-1.3-3.5-3-4.7-5.3c-1.1-2.3-1.7-5-1.7-8c0-3,0.6-5.6,1.7-7.9c1.2-2.3,2.7-4,4.7-5.2
	C93.9,50.3,96.1,49.7,98.5,49.7z M107.5,64.7c0-2.2-0.6-4-1.9-5.3c-1.2-1.3-2.7-1.9-4.5-1.9c-1.8,0-3.3,0.6-4.6,1.9
	c-1.2,1.3-1.8,3-1.8,5.2c0,2.2,0.6,4,1.8,5.3c1.3,1.3,2.8,1.9,4.6,1.9c1.8,0,3.3-0.6,4.5-1.9C106.9,68.7,107.5,67,107.5,64.7z"/>
<path class="st1" d="M131.9,55c1-1.6,2.4-2.9,3.9-3.8c1.6-0.9,3.3-1.4,5.2-1.4v9.5h-2.5c-2.2,0-3.9,0.5-5,1.5
	c-1.1,0.9-1.7,2.6-1.7,5v13.6h-9V50.1h9V55z"/>
<path class="st1" d="M143.6,64.7c0-3,0.6-5.6,1.7-7.9c1.2-2.3,2.7-4,4.7-5.2c2-1.2,4.1-1.8,6.6-1.8c2.1,0,3.9,0.4,5.4,1.3
	c1.6,0.8,2.8,1.9,3.6,3.3v-4.1h9v29.3h-9v-4.1c-0.9,1.4-2.1,2.5-3.7,3.3c-1.5,0.8-3.3,1.3-5.4,1.3c-2.4,0-4.5-0.6-6.5-1.8
	c-2-1.3-3.5-3-4.7-5.3C144.2,70.4,143.6,67.7,143.6,64.7z M165.5,64.7c0-2.2-0.6-4-1.9-5.3c-1.2-1.3-2.7-1.9-4.5-1.9
	c-1.8,0-3.3,0.6-4.6,1.9c-1.2,1.3-1.8,3-1.8,5.2c0,2.2,0.6,4,1.8,5.3c1.3,1.3,2.8,1.9,4.6,1.9c1.8,0,3.3-0.6,4.5-1.9
	C164.9,68.7,165.5,67,165.5,64.7z"/>
<path class="st1" d="M189.9,50.1v29.3h-9V50.1H189.9z"/>
<path class="st1" d="M214.3,49.8c3.4,0,6.2,1.1,8.2,3.4c2.1,2.2,3.1,5.2,3.1,9.1v17.1h-8.9V63.5c0-2-0.5-3.5-1.5-4.6
	c-1-1.1-2.4-1.6-4.1-1.6c-1.7,0-3.1,0.5-4.1,1.6c-1,1.1-1.5,2.6-1.5,4.6v15.9h-9V50.1h9V54c0.9-1.3,2.1-2.3,3.7-3
	C210.6,50.2,212.3,49.8,214.3,49.8z"/>
<path class="st1" d="M236.2,47.1c-1.6,0-2.9-0.5-3.9-1.4c-1-0.9-1.5-2.1-1.5-3.5c0-1.4,0.5-2.6,1.5-3.5c1-0.9,2.3-1.4,3.9-1.4
	c1.5,0,2.8,0.5,3.8,1.4c1,0.9,1.5,2.1,1.5,3.5c0,1.4-0.5,2.5-1.5,3.5C239,46.6,237.7,47.1,236.2,47.1z M240.7,83.1
	c0,3.6-0.9,6.2-2.7,7.8c-1.8,1.6-4.4,2.4-7.6,2.4h-3.5v-7.6h2.1c1,0,1.7-0.2,2.1-0.6c0.4-0.4,0.6-1,0.6-1.9V50.1h9V83.1z"/>
<path class="st1" d="M245.4,64.7c0-3,0.6-5.6,1.7-7.9c1.2-2.3,2.7-4,4.7-5.2c2-1.2,4.1-1.8,6.6-1.8c2.1,0,3.9,0.4,5.4,1.3
	c1.6,0.8,2.8,1.9,3.6,3.3v-4.1h9v29.3h-9v-4.1c-0.9,1.4-2.1,2.5-3.7,3.3c-1.5,0.8-3.3,1.3-5.4,1.3c-2.4,0-4.5-0.6-6.5-1.8
	c-2-1.3-3.5-3-4.7-5.3C245.9,70.4,245.4,67.7,245.4,64.7z M267.3,64.7c0-2.2-0.6-4-1.9-5.3c-1.2-1.3-2.7-1.9-4.5-1.9
	c-1.8,0-3.3,0.6-4.6,1.9c-1.2,1.3-1.8,3-1.8,5.2c0,2.2,0.6,4,1.8,5.3c1.3,1.3,2.8,1.9,4.6,1.9c1.8,0,3.3-0.6,4.5-1.9
	C266.7,68.7,267.3,67,267.3,64.7z"/>
<path class="st1" d="M291.7,55c1-1.6,2.4-2.9,3.9-3.8c1.6-0.9,3.3-1.4,5.2-1.4v9.5h-2.5c-2.2,0-3.9,0.5-5,1.5
	c-1.1,0.9-1.7,2.6-1.7,5v13.6h-9V50.1h9V55z"/>
</svg>
