<?xml version="1.0" encoding="utf-8"?>
<!-- Generator: Adobe Illustrator 23.0.6, SVG Export Plug-In . SVG Version: 6.00 Build 0)  -->
<svg version="1.1" id="Layer_1" xmlns="http://www.w3.org/2000/svg" xmlns:xlink="http://www.w3.org/1999/xlink" x="0px" y="0px"
	 viewBox="0 0 384.6 117" style="enable-background:new 0 0 384.6 117;" xml:space="preserve">
<style type="text/css">
	.st0{fill:none;stroke:#C12034;stroke-width:2;}
	.st1{fill:#293D3B;}
	.st2{fill:#B2966F;}
	.st3{fill-rule:evenodd;clip-rule:evenodd;fill:#B2966F;}
</style>
<line class="st0" x1="-2.2" y1="117.2" x2="383.9" y2="-1.2"/>
<rect x="-1.9" y="0.2" class="st1" width="386" height="118"/>
<path class="st2" d="M198.3,26.2c1,1-1.4,5-2.1,5.8c-0.8,0.8-4.7,3.1-5.7,2.1c-1-1,1.3-5,2-5.7C193.3,27.7,197.3,25.3,198.3,26.2z"
	/>
<path class="st2" d="M195,35c0.6,1-3.3,4.5-4.3,5.1c-1,0.6-5.8,2.3-6.4,1.3c-0.6-1,3.1-4.4,4.2-5C189.5,35.7,194.4,34,195,35z"/>
<path class="st2" d="M189.2,29.7c1.1,0.5,0.1,5.5-0.4,6.7s-3.3,5.3-4.4,4.9c-1.1-0.5-0.1-5.4,0.3-6.5
	C185.2,33.5,188.1,29.2,189.2,29.7z"/>
<path class="st2" d="M182.2,34.7c1.2,0.1,1.6,5.3,1.5,6.5c-0.1,1.2-1.7,6-2.9,5.9c-1.2-0.1-1.6-5.2-1.5-6.4
	C179.4,39.5,181,34.5,182.2,34.7z"/>
<path class="st2" d="M191.8,41.7c0.5,1.1-3.7,4.1-4.8,4.6c-1.1,0.5-6,1.7-6.5,0.6c-0.5-1.1,3.6-4,4.7-4.5
	C186.3,41.8,191.3,40.6,191.8,41.7z"/>
<path class="st3" d="M188.3,37.6c-1.6,2-3.5,4.8-6.7,9.8l-1-0.7c3.2-5,5.1-7.9,6.8-9.9c1.7-2,3-3.2,4.8-4.7l0.8,0.9
	C191.2,34.5,189.9,35.6,188.3,37.6z"/>
<path class="st2" d="M96.7,50.3c2.1,0,3.9,0.4,5.4,1.3c1.6,0.8,2.8,1.9,3.6,3.3v-4.1h9v29.2c0,2.7-0.5,5.1-1.6,7.3
	c-1,2.2-2.7,3.9-4.9,5.2c-2.2,1.3-4.9,1.9-8.1,1.9c-4.3,0-7.8-1-10.5-3.1c-2.7-2-4.2-4.8-4.6-8.3h8.9c0.3,1.1,0.9,2,2,2.6
	c1,0.7,2.3,1,3.9,1c1.9,0,3.3-0.5,4.4-1.6c1.1-1,1.7-2.7,1.7-5.1v-4.1c-0.9,1.4-2.1,2.5-3.6,3.4c-1.5,0.8-3.3,1.3-5.4,1.3
	c-2.4,0-4.6-0.6-6.6-1.8c-2-1.3-3.5-3-4.7-5.3c-1.1-2.3-1.7-5-1.7-8c0-3,0.6-5.6,1.7-7.9c1.2-2.3,2.7-4,4.7-5.2
	C92.1,50.9,94.3,50.3,96.7,50.3z M105.7,65.3c0-2.2-0.6-4-1.9-5.3c-1.2-1.3-2.7-1.9-4.5-1.9c-1.8,0-3.3,0.6-4.6,1.9
	c-1.2,1.3-1.8,3-1.8,5.2c0,2.2,0.6,4,1.8,5.3c1.3,1.3,2.8,1.9,4.6,1.9c1.8,0,3.3-0.6,4.5-1.9C105.1,69.3,105.7,67.6,105.7,65.3z"/>
<path class="st2" d="M130.1,55.6c1-1.6,2.4-2.9,3.9-3.8c1.6-0.9,3.3-1.4,5.2-1.4v9.5h-2.5c-2.2,0-3.9,0.5-5,1.5
	c-1.1,0.9-1.7,2.6-1.7,5v13.6h-9V50.7h9V55.6z"/>
<path class="st2" d="M141.8,65.3c0-3,0.6-5.6,1.7-7.9c1.2-2.3,2.7-4,4.7-5.2c2-1.2,4.1-1.8,6.6-1.8c2.1,0,3.9,0.4,5.4,1.3
	c1.6,0.8,2.8,1.9,3.6,3.3v-4.1h9v29.3h-9v-4.1c-0.9,1.4-2.1,2.5-3.7,3.3c-1.5,0.8-3.3,1.3-5.4,1.3c-2.4,0-4.5-0.6-6.5-1.8
	c-2-1.3-3.5-3-4.7-5.3C142.4,70.9,141.8,68.3,141.8,65.3z M163.7,65.3c0-2.2-0.6-4-1.9-5.3c-1.2-1.3-2.7-1.9-4.5-1.9
	c-1.8,0-3.3,0.6-4.6,1.9c-1.2,1.3-1.8,3-1.8,5.2c0,2.2,0.6,4,1.8,5.3c1.3,1.3,2.8,1.9,4.6,1.9c1.8,0,3.3-0.6,4.5-1.9
	C163.1,69.3,163.7,67.6,163.7,65.3z"/>
<path class="st2" d="M188.1,50.7v29.3h-9V50.7H188.1z"/>
<path class="st2" d="M212.4,50.4c3.4,0,6.2,1.1,8.2,3.4c2.1,2.2,3.1,5.2,3.1,9.1v17.1h-8.9V64.1c0-2-0.5-3.5-1.5-4.6
	c-1-1.1-2.4-1.6-4.1-1.6c-1.7,0-3.1,0.5-4.1,1.6c-1,1.1-1.5,2.6-1.5,4.6v15.9h-9V50.7h9v3.9c0.9-1.3,2.1-2.3,3.7-3
	C208.8,50.8,210.5,50.4,212.4,50.4z"/>
<path class="st2" d="M234.4,47.6c-1.6,0-2.9-0.5-3.9-1.4c-1-0.9-1.5-2.1-1.5-3.5c0-1.4,0.5-2.6,1.5-3.5c1-0.9,2.3-1.4,3.9-1.4
	c1.5,0,2.8,0.5,3.8,1.4c1,0.9,1.5,2.1,1.5,3.5c0,1.4-0.5,2.5-1.5,3.5C237.2,47.2,235.9,47.6,234.4,47.6z M238.9,83.7
	c0,3.6-0.9,6.2-2.7,7.8c-1.8,1.6-4.4,2.4-7.6,2.4h-3.5v-7.6h2.1c1,0,1.7-0.2,2.1-0.6c0.4-0.4,0.6-1,0.6-1.9V50.7h9V83.7z"/>
<path class="st2" d="M243.6,65.3c0-3,0.6-5.6,1.7-7.9c1.2-2.3,2.7-4,4.7-5.2c2-1.2,4.1-1.8,6.6-1.8c2.1,0,3.9,0.4,5.4,1.3
	c1.6,0.8,2.8,1.9,3.6,3.3v-4.1h9v29.3h-9v-4.1c-0.9,1.4-2.1,2.5-3.7,3.3c-1.5,0.8-3.3,1.3-5.4,1.3c-2.4,0-4.5-0.6-6.5-1.8
	c-2-1.3-3.5-3-4.7-5.3C244.1,70.9,243.6,68.3,243.6,65.3z M265.5,65.3c0-2.2-0.6-4-1.9-5.3c-1.2-1.3-2.7-1.9-4.5-1.9
	c-1.8,0-3.3,0.6-4.6,1.9c-1.2,1.3-1.8,3-1.8,5.2c0,2.2,0.6,4,1.8,5.3c1.3,1.3,2.8,1.9,4.6,1.9c1.8,0,3.3-0.6,4.5-1.9
	C264.9,69.3,265.5,67.6,265.5,65.3z"/>
<path class="st2" d="M289.9,55.6c1-1.6,2.4-2.9,3.9-3.8c1.6-0.9,3.3-1.4,5.2-1.4v9.5h-2.5c-2.2,0-3.9,0.5-5,1.5
	c-1.1,0.9-1.7,2.6-1.7,5v13.6h-9V50.7h9V55.6z"/>
<line class="st0" x1="-2.2" y1="117.2" x2="383.9" y2="-1.2"/>
</svg>
