<?xml version="1.0" encoding="utf-8"?>
<!-- Generator: Adobe Illustrator 23.0.6, SVG Export Plug-In . SVG Version: 6.00 Build 0)  -->
<svg version="1.1" id="Layer_1" xmlns="http://www.w3.org/2000/svg" xmlns:xlink="http://www.w3.org/1999/xlink" x="0px" y="0px"
	 viewBox="0 0 384.6 236.2" style="enable-background:new 0 0 384.6 236.2;" xml:space="preserve">
<style type="text/css">
	.st0{fill:#FFFFFF;stroke:#848484;}
	.st1{fill:#293D3B;}
	.st2{fill-rule:evenodd;clip-rule:evenodd;fill:#293D3B;}
	.st3{fill:#FFFFFF;}
	.st4{fill-rule:evenodd;clip-rule:evenodd;fill:#FFFFFF;}
</style>
<rect x="-0.4" y="0.3" class="st0" width="385" height="117"/>
<path class="st1" d="M198.7,26.3c1,1-1.4,5-2.1,5.8c-0.8,0.8-4.7,3.1-5.7,2.1c-1-1,1.3-5,2-5.7C193.7,27.8,197.7,25.3,198.7,26.3z"
	/>
<path class="st1" d="M195.4,35.1c0.6,1-3.3,4.5-4.3,5.1c-1,0.6-5.8,2.3-6.4,1.3c-0.6-1,3.1-4.4,4.2-5
	C189.9,35.8,194.8,34,195.4,35.1z"/>
<path class="st1" d="M189.6,29.7c1.1,0.5,0.1,5.5-0.4,6.7c-0.5,1.1-3.3,5.3-4.4,4.9c-1.1-0.5-0.1-5.4,0.3-6.5
	C185.6,33.6,188.5,29.3,189.6,29.7z"/>
<path class="st1" d="M182.5,34.7c1.2,0.1,1.6,5.3,1.5,6.5c-0.1,1.2-1.7,6-2.9,5.9c-1.2-0.1-1.6-5.2-1.5-6.4
	C179.8,39.6,181.3,34.6,182.5,34.7z"/>
<path class="st1" d="M192.2,41.8c0.5,1.1-3.7,4.1-4.8,4.6c-1.1,0.5-6,1.7-6.5,0.6c-0.5-1.1,3.6-4,4.7-4.5
	C186.7,41.9,191.7,40.7,192.2,41.8z"/>
<path class="st2" d="M188.7,37.6c-1.6,2-3.5,4.8-6.7,9.8l-1-0.7c3.2-5,5.1-7.9,6.8-9.9c1.7-2,3-3.2,4.8-4.7l0.8,0.9
	C191.6,34.6,190.3,35.7,188.7,37.6z"/>
<path class="st1" d="M97.1,50.3c2.1,0,3.9,0.4,5.4,1.3c1.6,0.8,2.8,1.9,3.6,3.3v-4.1h9V80c0,2.7-0.5,5.1-1.6,7.3
	c-1,2.2-2.7,3.9-4.9,5.2c-2.2,1.3-4.9,1.9-8.1,1.9c-4.3,0-7.8-1-10.5-3.1c-2.7-2-4.2-4.8-4.6-8.3h8.9c0.3,1.1,0.9,2,2,2.6
	c1,0.7,2.3,1,3.9,1c1.9,0,3.3-0.5,4.4-1.6c1.1-1,1.7-2.7,1.7-5.1v-4.1c-0.9,1.4-2.1,2.5-3.6,3.4c-1.5,0.8-3.3,1.3-5.4,1.3
	c-2.4,0-4.6-0.6-6.6-1.8c-2-1.3-3.5-3-4.7-5.3c-1.1-2.3-1.7-5-1.7-8c0-3,0.6-5.6,1.7-7.9c1.2-2.3,2.7-4,4.7-5.2
	C92.5,51,94.7,50.3,97.1,50.3z M106.1,65.4c0-2.2-0.6-4-1.9-5.3c-1.2-1.3-2.7-1.9-4.5-1.9c-1.8,0-3.3,0.6-4.6,1.9
	c-1.2,1.3-1.8,3-1.8,5.2c0,2.2,0.6,4,1.8,5.3c1.3,1.3,2.8,1.9,4.6,1.9c1.8,0,3.3-0.6,4.5-1.9C105.5,69.4,106.1,67.6,106.1,65.4z"/>
<path class="st1" d="M130.5,55.6c1-1.6,2.4-2.9,3.9-3.8c1.6-0.9,3.3-1.4,5.2-1.4v9.5h-2.5c-2.2,0-3.9,0.5-5,1.5
	c-1.1,0.9-1.7,2.6-1.7,5V80h-9V50.8h9V55.6z"/>
<path class="st1" d="M142.2,65.3c0-3,0.6-5.6,1.7-7.9c1.2-2.3,2.7-4,4.7-5.2c2-1.2,4.1-1.8,6.6-1.8c2.1,0,3.9,0.4,5.4,1.3
	c1.6,0.8,2.8,1.9,3.6,3.3v-4.1h9V80h-9v-4.1c-0.9,1.4-2.1,2.5-3.7,3.3c-1.5,0.8-3.3,1.3-5.4,1.3c-2.4,0-4.5-0.6-6.5-1.8
	c-2-1.3-3.5-3-4.7-5.3C142.8,71,142.2,68.3,142.2,65.3z M164.1,65.4c0-2.2-0.6-4-1.9-5.3c-1.2-1.3-2.7-1.9-4.5-1.9
	c-1.8,0-3.3,0.6-4.6,1.9c-1.2,1.3-1.8,3-1.8,5.2c0,2.2,0.6,4,1.8,5.3c1.3,1.3,2.8,1.9,4.6,1.9c1.8,0,3.3-0.6,4.5-1.9
	C163.5,69.4,164.1,67.6,164.1,65.4z"/>
<path class="st1" d="M188.5,50.8V80h-9V50.8H188.5z"/>
<path class="st1" d="M212.8,50.4c3.4,0,6.2,1.1,8.2,3.4c2.1,2.2,3.1,5.2,3.1,9.1V80h-8.9V64.1c0-2-0.5-3.5-1.5-4.6
	c-1-1.1-2.4-1.6-4.1-1.6c-1.7,0-3.1,0.5-4.1,1.6c-1,1.1-1.5,2.6-1.5,4.6V80h-9V50.8h9v3.9c0.9-1.3,2.1-2.3,3.7-3
	C209.2,50.8,210.9,50.4,212.8,50.4z"/>
<path class="st1" d="M234.8,47.7c-1.6,0-2.9-0.5-3.9-1.4c-1-0.9-1.5-2.1-1.5-3.5c0-1.4,0.5-2.6,1.5-3.5c1-0.9,2.3-1.4,3.9-1.4
	c1.5,0,2.8,0.5,3.8,1.4c1,0.9,1.5,2.1,1.5,3.5c0,1.4-0.5,2.5-1.5,3.5C237.6,47.3,236.3,47.7,234.8,47.7z M239.3,83.8
	c0,3.6-0.9,6.2-2.7,7.8c-1.8,1.6-4.4,2.4-7.6,2.4h-3.5v-7.6h2.1c1,0,1.7-0.2,2.1-0.6c0.4-0.4,0.6-1,0.6-1.9V50.8h9V83.8z"/>
<path class="st1" d="M244,65.3c0-3,0.6-5.6,1.7-7.9c1.2-2.3,2.7-4,4.7-5.2c2-1.2,4.1-1.8,6.6-1.8c2.1,0,3.9,0.4,5.4,1.3
	c1.6,0.8,2.8,1.9,3.6,3.3v-4.1h9V80h-9v-4.1c-0.9,1.4-2.1,2.5-3.7,3.3c-1.5,0.8-3.3,1.3-5.4,1.3c-2.4,0-4.5-0.6-6.5-1.8
	c-2-1.3-3.5-3-4.7-5.3C244.5,71,244,68.3,244,65.3z M265.9,65.4c0-2.2-0.6-4-1.9-5.3c-1.2-1.3-2.7-1.9-4.5-1.9
	c-1.8,0-3.3,0.6-4.6,1.9c-1.2,1.3-1.8,3-1.8,5.2c0,2.2,0.6,4,1.8,5.3c1.3,1.3,2.8,1.9,4.6,1.9c1.8,0,3.3-0.6,4.5-1.9
	C265.3,69.4,265.9,67.6,265.9,65.4z"/>
<path class="st1" d="M290.3,55.6c1-1.6,2.4-2.9,3.9-3.8c1.6-0.9,3.3-1.4,5.2-1.4v9.5H297c-2.2,0-3.9,0.5-5,1.5
	c-1.1,0.9-1.7,2.6-1.7,5V80h-9V50.8h9V55.6z"/>
<rect x="-1.8" y="118.2" class="st1" width="386" height="118"/>
<path class="st3" d="M198.5,144.2c1,1-1.4,5-2.1,5.8c-0.8,0.8-4.7,3.1-5.7,2.1c-1-1,1.3-5,2-5.7
	C193.5,145.6,197.5,143.2,198.5,144.2z"/>
<path class="st3" d="M195.2,152.9c0.6,1-3.3,4.5-4.3,5.1c-1,0.6-5.8,2.3-6.4,1.3s3.1-4.4,4.2-5C189.7,153.7,194.6,151.9,195.2,152.9
	z"/>
<path class="st3" d="M189.4,147.6c1.1,0.5,0.1,5.5-0.4,6.7c-0.5,1.1-3.3,5.3-4.4,4.9c-1.1-0.5-0.1-5.4,0.3-6.5
	C185.4,151.5,188.2,147.1,189.4,147.6z"/>
<path class="st3" d="M182.3,152.6c1.2,0.1,1.6,5.3,1.5,6.5c-0.1,1.2-1.7,6-2.9,5.9c-1.2-0.1-1.6-5.2-1.5-6.4
	C179.6,157.4,181.1,152.5,182.3,152.6z"/>
<path class="st3" d="M192,159.6c0.5,1.1-3.7,4.1-4.8,4.6c-1.1,0.5-6,1.7-6.5,0.6c-0.5-1.1,3.6-4,4.7-4.5
	C186.5,159.8,191.5,158.5,192,159.6z"/>
<path class="st4" d="M188.5,155.5c-1.6,2-3.5,4.8-6.7,9.8l-1-0.7c3.2-5,5.1-7.9,6.8-9.9c1.7-2,3-3.2,4.8-4.7l0.8,0.9
	C191.3,152.5,190.1,153.6,188.5,155.5z"/>
<path class="st3" d="M96.9,168.2c2.1,0,3.9,0.4,5.4,1.3c1.6,0.8,2.8,1.9,3.6,3.3v-4.1h9v29.2c0,2.7-0.5,5.1-1.6,7.3
	c-1,2.2-2.7,3.9-4.9,5.2c-2.2,1.3-4.9,1.9-8.1,1.9c-4.3,0-7.8-1-10.5-3.1c-2.7-2-4.2-4.8-4.6-8.3h8.9c0.3,1.1,0.9,2,2,2.6
	c1,0.7,2.3,1,3.9,1c1.9,0,3.3-0.5,4.4-1.6c1.1-1,1.7-2.7,1.7-5.1v-4.1c-0.9,1.4-2.1,2.5-3.6,3.4c-1.5,0.8-3.3,1.3-5.4,1.3
	c-2.4,0-4.6-0.6-6.6-1.8c-2-1.3-3.5-3-4.7-5.3c-1.1-2.3-1.7-5-1.7-8c0-3,0.6-5.6,1.7-7.9c1.2-2.3,2.7-4,4.7-5.2
	C92.3,168.8,94.5,168.2,96.9,168.2z M105.9,183.3c0-2.2-0.6-4-1.9-5.3c-1.2-1.3-2.7-1.9-4.5-1.9c-1.8,0-3.3,0.6-4.6,1.9
	c-1.2,1.3-1.8,3-1.8,5.2c0,2.2,0.6,4,1.8,5.3c1.3,1.3,2.8,1.9,4.6,1.9c1.8,0,3.3-0.6,4.5-1.9C105.3,187.3,105.9,185.5,105.9,183.3z"
	/>
<path class="st3" d="M130.3,173.5c1-1.6,2.4-2.9,3.9-3.8c1.6-0.9,3.3-1.4,5.2-1.4v9.5H137c-2.2,0-3.9,0.5-5,1.5
	c-1.1,0.9-1.7,2.6-1.7,5v13.6h-9v-29.3h9V173.5z"/>
<path class="st3" d="M142,183.2c0-3,0.6-5.6,1.7-7.9c1.2-2.3,2.7-4,4.7-5.2c2-1.2,4.1-1.8,6.6-1.8c2.1,0,3.9,0.4,5.4,1.3
	c1.6,0.8,2.8,1.9,3.6,3.3v-4.1h9v29.3h-9v-4.1c-0.9,1.4-2.1,2.5-3.7,3.3c-1.5,0.8-3.3,1.3-5.4,1.3c-2.4,0-4.5-0.6-6.5-1.8
	c-2-1.3-3.5-3-4.7-5.3C142.5,188.9,142,186.2,142,183.2z M163.9,183.3c0-2.2-0.6-4-1.9-5.3c-1.2-1.3-2.7-1.9-4.5-1.9
	c-1.8,0-3.3,0.6-4.6,1.9c-1.2,1.3-1.8,3-1.8,5.2c0,2.2,0.6,4,1.8,5.3c1.3,1.3,2.8,1.9,4.6,1.9c1.8,0,3.3-0.6,4.5-1.9
	C163.3,187.3,163.9,185.5,163.9,183.3z"/>
<path class="st3" d="M188.3,168.6v29.3h-9v-29.3H188.3z"/>
<path class="st3" d="M212.6,168.3c3.4,0,6.2,1.1,8.2,3.4c2.1,2.2,3.1,5.2,3.1,9.1v17.1H215V182c0-2-0.5-3.5-1.5-4.6
	c-1-1.1-2.4-1.6-4.1-1.6c-1.7,0-3.1,0.5-4.1,1.6c-1,1.1-1.5,2.6-1.5,4.6v15.9h-9v-29.3h9v3.9c0.9-1.3,2.1-2.3,3.7-3
	C209,168.7,210.7,168.3,212.6,168.3z"/>
<path class="st3" d="M234.6,165.6c-1.6,0-2.9-0.5-3.9-1.4c-1-0.9-1.5-2.1-1.5-3.5c0-1.4,0.5-2.6,1.5-3.5c1-0.9,2.3-1.4,3.9-1.4
	c1.5,0,2.8,0.5,3.8,1.4c1,0.9,1.5,2.1,1.5,3.5c0,1.4-0.5,2.5-1.5,3.5C237.4,165.1,236.1,165.6,234.6,165.6z M239.1,201.7
	c0,3.6-0.9,6.2-2.7,7.8c-1.8,1.6-4.4,2.4-7.6,2.4h-3.5v-7.6h2.1c1,0,1.7-0.2,2.1-0.6c0.4-0.4,0.6-1,0.6-1.9v-33.1h9V201.7z"/>
<path class="st3" d="M243.8,183.2c0-3,0.6-5.6,1.7-7.9c1.2-2.3,2.7-4,4.7-5.2c2-1.2,4.1-1.8,6.6-1.8c2.1,0,3.9,0.4,5.4,1.3
	c1.6,0.8,2.8,1.9,3.6,3.3v-4.1h9v29.3h-9v-4.1c-0.9,1.4-2.1,2.5-3.7,3.3c-1.5,0.8-3.3,1.3-5.4,1.3c-2.4,0-4.5-0.6-6.5-1.8
	c-2-1.3-3.5-3-4.7-5.3C244.3,188.9,243.8,186.2,243.8,183.2z M265.7,183.3c0-2.2-0.6-4-1.9-5.3c-1.2-1.3-2.7-1.9-4.5-1.9
	c-1.8,0-3.3,0.6-4.6,1.9c-1.2,1.3-1.8,3-1.8,5.2c0,2.2,0.6,4,1.8,5.3c1.3,1.3,2.8,1.9,4.6,1.9c1.8,0,3.3-0.6,4.5-1.9
	C265,187.3,265.7,185.5,265.7,183.3z"/>
<path class="st3" d="M290.1,173.5c1-1.6,2.4-2.9,3.9-3.8c1.6-0.9,3.3-1.4,5.2-1.4v9.5h-2.5c-2.2,0-3.9,0.5-5,1.5
	c-1.1,0.9-1.7,2.6-1.7,5v13.6h-9v-29.3h9V173.5z"/>
</svg>
