<?xml version="1.0" encoding="utf-8"?>
<!-- Generator: Adobe Illustrator 23.0.6, SVG Export Plug-In . SVG Version: 6.00 Build 0)  -->
<svg version="1.1" id="Layer_1" xmlns="http://www.w3.org/2000/svg" xmlns:xlink="http://www.w3.org/1999/xlink" x="0px" y="0px"
	 viewBox="0 0 110 44" style="enable-background:new 0 0 110 44;" xml:space="preserve">
<style type="text/css">
	.st0{stroke:#000000;stroke-miterlimit:10;}
	.st1{fill-rule:evenodd;clip-rule:evenodd;stroke:#000000;stroke-miterlimit:10;}
</style>
<path class="st0" d="M59.1,7.7c0.5,0.5-0.6,2.3-1,2.6c-0.3,0.3-2.1,1.4-2.6,1c-0.5-0.5,0.6-2.3,0.9-2.6C56.8,8.4,58.7,7.3,59.1,7.7z
	"/>
<path class="st0" d="M57.6,11.7c0.3,0.5-1.5,2-2,2.3c-0.5,0.3-2.6,1.1-2.9,0.6c-0.3-0.5,1.4-2,1.9-2.3C55.1,12,57.3,11.2,57.6,11.7z
	"/>
<path class="st0" d="M55,9.3c0.5,0.2,0,2.5-0.2,3c-0.2,0.5-1.5,2.4-2,2.2c-0.5-0.2-0.1-2.5,0.2-3C53.2,11,54.5,9.1,55,9.3z"/>
<path class="st0" d="M51.8,11.6c0.5,0.1,0.7,2.4,0.7,3c-0.1,0.5-0.8,2.7-1.3,2.7c-0.5-0.1-0.7-2.4-0.7-2.9
	C50.5,13.7,51.2,11.5,51.8,11.6z"/>
<path class="st0" d="M56.2,14.8c0.2,0.5-1.7,1.9-2.2,2.1c-0.5,0.2-2.7,0.8-3,0.3c-0.2-0.5,1.6-1.8,2.1-2.1
	C53.6,14.8,55.9,14.3,56.2,14.8z"/>
<path class="st1" d="M54.6,12.9c-0.7,0.9-1.6,2.2-3,4.5L51.1,17c1.4-2.3,2.3-3.6,3.1-4.5c0.8-0.9,1.3-1.5,2.2-2.1l0.4,0.4
	C55.9,11.5,55.3,12,54.6,12.9z"/>
<path class="st0" d="M12.9,18.7c0.9,0,1.8,0.2,2.5,0.6c0.7,0.4,1.3,0.9,1.6,1.5v-1.9h4.1v13.3c0,1.2-0.2,2.3-0.7,3.3
	c-0.5,1-1.2,1.8-2.2,2.4c-1,0.6-2.2,0.9-3.7,0.9c-2,0-3.6-0.5-4.8-1.4c-1.2-0.9-1.9-2.2-2.1-3.8h4c0.1,0.5,0.4,0.9,0.9,1.2
	c0.5,0.3,1.1,0.5,1.8,0.5c0.8,0,1.5-0.2,2-0.7c0.5-0.5,0.8-1.2,0.8-2.3v-1.9c-0.4,0.6-0.9,1.1-1.6,1.5c-0.7,0.4-1.5,0.6-2.5,0.6
	c-1.1,0-2.1-0.3-3-0.8c-0.9-0.6-1.6-1.4-2.1-2.4c-0.5-1-0.8-2.3-0.8-3.6c0-1.4,0.3-2.6,0.8-3.6c0.5-1,1.2-1.8,2.1-2.4
	C10.8,18.9,11.8,18.7,12.9,18.7z M17,25.5c0-1-0.3-1.8-0.9-2.4c-0.6-0.6-1.2-0.9-2.1-0.9c-0.8,0-1.5,0.3-2.1,0.9
	c-0.6,0.6-0.8,1.4-0.8,2.4s0.3,1.8,0.8,2.4c0.6,0.6,1.3,0.9,2.1,0.9c0.8,0,1.5-0.3,2.1-0.9C16.7,27.3,17,26.5,17,25.5z"/>
<path class="st0" d="M28.1,21.1c0.5-0.7,1.1-1.3,1.8-1.7c0.7-0.4,1.5-0.6,2.4-0.6V23h-1.1c-1,0-1.8,0.2-2.3,0.7
	c-0.5,0.4-0.8,1.2-0.8,2.3v6.2H24V18.9h4.1V21.1z"/>
<path class="st0" d="M33.4,25.5c0-1.4,0.3-2.6,0.8-3.6c0.5-1,1.2-1.8,2.1-2.4c0.9-0.6,1.9-0.8,3-0.8c0.9,0,1.8,0.2,2.5,0.6
	c0.7,0.4,1.3,0.9,1.6,1.5v-1.9h4.1v13.3h-4.1v-1.9c-0.4,0.6-1,1.1-1.7,1.5c-0.7,0.4-1.5,0.6-2.5,0.6c-1.1,0-2.1-0.3-3-0.8
	c-0.9-0.6-1.6-1.4-2.1-2.4C33.7,28.1,33.4,26.9,33.4,25.5z M43.4,25.5c0-1-0.3-1.8-0.9-2.4c-0.6-0.6-1.2-0.9-2.1-0.9
	s-1.5,0.3-2.1,0.9c-0.6,0.6-0.8,1.4-0.8,2.4s0.3,1.8,0.8,2.4c0.6,0.6,1.3,0.9,2.1,0.9s1.5-0.3,2.1-0.9
	C43.1,27.3,43.4,26.5,43.4,25.5z"/>
<path class="st0" d="M54.5,18.9v13.3h-4.1V18.9H54.5z"/>
<path class="st0" d="M65.6,18.7c1.6,0,2.8,0.5,3.7,1.5c0.9,1,1.4,2.4,1.4,4.2v7.8h-4.1v-7.2c0-0.9-0.2-1.6-0.7-2.1
	c-0.5-0.5-1.1-0.7-1.9-0.7c-0.8,0-1.4,0.2-1.9,0.7c-0.5,0.5-0.7,1.2-0.7,2.1v7.2h-4.1V18.9h4.1v1.8c0.4-0.6,1-1.1,1.7-1.4
	C63.9,18.9,64.7,18.7,65.6,18.7z"/>
<path class="st0" d="M75.6,17.5c-0.7,0-1.3-0.2-1.8-0.6c-0.4-0.4-0.7-1-0.7-1.6c0-0.6,0.2-1.2,0.7-1.6c0.5-0.4,1.1-0.6,1.8-0.6
	c0.7,0,1.3,0.2,1.7,0.6c0.5,0.4,0.7,0.9,0.7,1.6c0,0.6-0.2,1.1-0.7,1.6C76.8,17.3,76.3,17.5,75.6,17.5z M77.6,33.9
	c0,1.6-0.4,2.8-1.2,3.5c-0.8,0.7-2,1.1-3.5,1.1h-1.6v-3.5h1c0.4,0,0.8-0.1,1-0.3c0.2-0.2,0.3-0.5,0.3-0.9V18.9h4.1V33.9z"/>
<path class="st0" d="M79.7,25.5c0-1.4,0.3-2.6,0.8-3.6c0.5-1,1.2-1.8,2.1-2.4c0.9-0.6,1.9-0.8,3-0.8c0.9,0,1.8,0.2,2.5,0.6
	c0.7,0.4,1.3,0.9,1.6,1.5v-1.9h4.1v13.3h-4.1v-1.9c-0.4,0.6-1,1.1-1.7,1.5c-0.7,0.4-1.5,0.6-2.5,0.6c-1.1,0-2.1-0.3-3-0.8
	c-0.9-0.6-1.6-1.4-2.1-2.4C80,28.1,79.7,26.9,79.7,25.5z M89.7,25.5c0-1-0.3-1.8-0.9-2.4c-0.6-0.6-1.2-0.9-2.1-0.9s-1.5,0.3-2.1,0.9
	c-0.6,0.6-0.8,1.4-0.8,2.4s0.3,1.8,0.8,2.4c0.6,0.6,1.3,0.9,2.1,0.9s1.5-0.3,2.1-0.9C89.4,27.3,89.7,26.5,89.7,25.5z"/>
<path class="st0" d="M100.8,21.1c0.5-0.7,1.1-1.3,1.8-1.7c0.7-0.4,1.5-0.6,2.4-0.6V23h-1.1c-1,0-1.8,0.2-2.3,0.7
	c-0.5,0.4-0.8,1.2-0.8,2.3v6.2h-4.1V18.9h4.1V21.1z"/>
</svg>
