<?xml version="1.0" encoding="utf-8"?>
<!-- Generator: Adobe Illustrator 23.0.6, SVG Export Plug-In . SVG Version: 6.00 Build 0)  -->
<svg version="1.1" id="Layer_1" xmlns="http://www.w3.org/2000/svg" xmlns:xlink="http://www.w3.org/1999/xlink" x="0px" y="0px"
	 viewBox="0 0 98 31.7" style="enable-background:new 0 0 98 31.7;" xml:space="preserve">
<style type="text/css">
	.st0{fill:#FFFFFF;}
	.st1{fill-rule:evenodd;clip-rule:evenodd;fill:#FFFFFF;}
</style>
<path class="st0" d="M52.1,0.9c0.5,0.4-0.6,2.3-1,2.6S49,5,48.6,4.5c-0.5-0.4,0.6-2.2,0.9-2.6C49.8,1.6,51.7,0.5,52.1,0.9z"/>
<path class="st0" d="M50.6,4.9c0.3,0.5-1.5,2-2,2.3c-0.5,0.3-2.6,1.1-2.9,0.6c-0.3-0.5,1.4-2,1.9-2.3C48.1,5.2,50.3,4.4,50.6,4.9z"
	/>
<path class="st0" d="M48,2.5c0.5,0.2,0,2.5-0.2,3c-0.2,0.5-1.5,2.4-2,2.2c-0.5-0.2-0.1-2.5,0.2-3C46.2,4.2,47.5,2.3,48,2.5z"/>
<path class="st0" d="M44.8,4.7c0.5,0.1,0.7,2.4,0.7,2.9c-0.1,0.5-0.8,2.7-1.3,2.7c-0.5-0.1-0.7-2.3-0.7-2.9
	C43.5,6.9,44.2,4.7,44.8,4.7z"/>
<path class="st0" d="M49.2,7.9c0.2,0.5-1.7,1.9-2.2,2.1c-0.5,0.2-2.7,0.8-3,0.3c-0.2-0.5,1.6-1.8,2.1-2.1C46.6,8,48.9,7.4,49.2,7.9z
	"/>
<path class="st1" d="M47.6,6.1c-0.7,0.9-1.6,2.2-3,4.4l-0.5-0.3c1.4-2.2,2.3-3.6,3.1-4.5c0.8-0.9,1.3-1.4,2.2-2.1L49.7,4
	C48.9,4.7,48.3,5.2,47.6,6.1z"/>
<path class="st0" d="M5.9,11.8c0.9,0,1.8,0.2,2.5,0.6c0.7,0.4,1.3,0.9,1.6,1.5V12h4.1v13.2c0,1.2-0.2,2.3-0.7,3.3
	c-0.5,1-1.2,1.8-2.2,2.4c-1,0.6-2.2,0.9-3.7,0.9c-2,0-3.6-0.5-4.8-1.4c-1.2-0.9-1.9-2.2-2.1-3.7h4c0.1,0.5,0.4,0.9,0.9,1.2
	c0.5,0.3,1.1,0.4,1.8,0.4c0.8,0,1.5-0.2,2-0.7C9.7,27,10,26.2,10,25.2v-1.9c-0.4,0.6-0.9,1.1-1.6,1.5c-0.7,0.4-1.5,0.6-2.5,0.6
	c-1.1,0-2.1-0.3-3-0.8C2,24,1.3,23.2,0.8,22.2c-0.5-1-0.8-2.2-0.8-3.6C0,17.2,0.3,16,0.8,15c0.5-1,1.2-1.8,2.1-2.4
	C3.8,12.1,4.8,11.8,5.9,11.8z M10,18.6c0-1-0.3-1.8-0.9-2.4c-0.6-0.6-1.2-0.9-2.1-0.9c-0.8,0-1.5,0.3-2.1,0.9
	c-0.6,0.6-0.8,1.4-0.8,2.4S4.4,20.4,5,21c0.6,0.6,1.3,0.9,2.1,0.9c0.8,0,1.5-0.3,2.1-0.9C9.7,20.4,10,19.6,10,18.6z"/>
<path class="st0" d="M21.1,14.2c0.5-0.7,1.1-1.3,1.8-1.7c0.7-0.4,1.5-0.6,2.4-0.6v4.3h-1.1c-1,0-1.8,0.2-2.3,0.7
	c-0.5,0.4-0.8,1.2-0.8,2.3v6.1H17V12h4.1V14.2z"/>
<path class="st0" d="M26.4,18.6c0-1.4,0.3-2.5,0.8-3.6c0.5-1,1.2-1.8,2.1-2.4c0.9-0.6,1.9-0.8,3-0.8c0.9,0,1.8,0.2,2.5,0.6
	c0.7,0.4,1.3,0.9,1.6,1.5V12h4.1v13.2h-4.1v-1.9c-0.4,0.6-1,1.1-1.7,1.5c-0.7,0.4-1.5,0.6-2.5,0.6c-1.1,0-2.1-0.3-3-0.8
	c-0.9-0.6-1.6-1.4-2.1-2.4C26.7,21.1,26.4,19.9,26.4,18.6z M36.4,18.6c0-1-0.3-1.8-0.9-2.4c-0.6-0.6-1.2-0.9-2.1-0.9
	s-1.5,0.3-2.1,0.9c-0.6,0.6-0.8,1.4-0.8,2.4s0.3,1.8,0.8,2.4c0.6,0.6,1.3,0.9,2.1,0.9s1.5-0.3,2.1-0.9
	C36.1,20.4,36.4,19.6,36.4,18.6z"/>
<path class="st0" d="M47.5,12v13.2h-4.1V12H47.5z"/>
<path class="st0" d="M58.6,11.8c1.6,0,2.8,0.5,3.7,1.5c0.9,1,1.4,2.4,1.4,4.1v7.7h-4.1V18c0-0.9-0.2-1.6-0.7-2.1
	c-0.5-0.5-1.1-0.7-1.9-0.7c-0.8,0-1.4,0.2-1.9,0.7c-0.5,0.5-0.7,1.2-0.7,2.1v7.2h-4.1V12h4.1v1.8c0.4-0.6,1-1,1.7-1.4
	C56.9,12,57.7,11.8,58.6,11.8z"/>
<path class="st0" d="M68.6,10.6c-0.7,0-1.3-0.2-1.8-0.6c-0.4-0.4-0.7-0.9-0.7-1.6c0-0.6,0.2-1.2,0.7-1.6c0.5-0.4,1.1-0.6,1.8-0.6
	c0.7,0,1.3,0.2,1.7,0.6C70.7,7.3,71,7.8,71,8.4c0,0.6-0.2,1.1-0.7,1.6C69.8,10.4,69.3,10.6,68.6,10.6z M70.6,26.9
	c0,1.6-0.4,2.8-1.2,3.5c-0.8,0.7-2,1.1-3.5,1.1h-1.6v-3.4h1c0.4,0,0.8-0.1,1-0.3c0.2-0.2,0.3-0.5,0.3-0.9V12h4.1V26.9z"/>
<path class="st0" d="M72.7,18.6c0-1.4,0.3-2.5,0.8-3.6c0.5-1,1.2-1.8,2.1-2.4c0.9-0.6,1.9-0.8,3-0.8c0.9,0,1.8,0.2,2.5,0.6
	c0.7,0.4,1.3,0.9,1.6,1.5V12h4.1v13.2h-4.1v-1.9c-0.4,0.6-1,1.1-1.7,1.5c-0.7,0.4-1.5,0.6-2.5,0.6c-1.1,0-2.1-0.3-3-0.8
	c-0.9-0.6-1.6-1.4-2.1-2.4C73,21.1,72.7,19.9,72.7,18.6z M82.7,18.6c0-1-0.3-1.8-0.9-2.4c-0.6-0.6-1.2-0.9-2.1-0.9s-1.5,0.3-2.1,0.9
	c-0.6,0.6-0.8,1.4-0.8,2.4s0.3,1.8,0.8,2.4c0.6,0.6,1.3,0.9,2.1,0.9s1.5-0.3,2.1-0.9C82.4,20.4,82.7,19.6,82.7,18.6z"/>
<path class="st0" d="M93.8,14.2c0.5-0.7,1.1-1.3,1.8-1.7c0.7-0.4,1.5-0.6,2.4-0.6v4.3h-1.1c-1,0-1.8,0.2-2.3,0.7
	c-0.5,0.4-0.8,1.2-0.8,2.3v6.1h-4.1V12h4.1V14.2z"/>
</svg>
