<?xml version="1.0" encoding="utf-8"?>
<!-- Generator: Adobe Illustrator 23.0.6, SVG Export Plug-In . SVG Version: 6.00 Build 0)  -->
<svg version="1.1" id="Layer_1" xmlns="http://www.w3.org/2000/svg" xmlns:xlink="http://www.w3.org/1999/xlink" x="0px" y="0px"
	 viewBox="0 0 126 135" style="enable-background:new 0 0 126 135;" xml:space="preserve">
<style type="text/css">
	.st0{fill:#293D3B;}
	.st1{fill:#FFFFFF;}
</style>
<ellipse class="st0" cx="63" cy="71.5" rx="63" ry="63.5"/>
<path class="st1" d="M58.8,47.2c2.6,0,4.8,0.5,6.7,1.6c2,1,3.4,2.4,4.5,4.1v-5.1h11.1v36.2c0,3.3-0.7,6.3-2,9
	c-1.3,2.7-3.3,4.9-6,6.5c-2.7,1.6-6,2.4-10.1,2.4c-5.4,0-9.7-1.3-13.1-3.8c-3.3-2.5-5.2-5.9-5.7-10.3h11c0.3,1.4,1.2,2.5,2.5,3.2
	c1.3,0.8,2.9,1.2,4.8,1.2c2.3,0,4.1-0.7,5.5-2c1.4-1.3,2.1-3.4,2.1-6.3v-5.1c-1.1,1.7-2.6,3.1-4.5,4.2c-1.9,1-4.1,1.6-6.7,1.6
	c-3,0-5.7-0.8-8.1-2.3c-2.4-1.6-4.4-3.7-5.8-6.6c-1.4-2.9-2.1-6.2-2.1-9.9c0-3.7,0.7-7,2.1-9.8c1.4-2.8,3.4-5,5.8-6.5
	C53.1,48,55.8,47.2,58.8,47.2z M70,65.9c0-2.8-0.8-5-2.3-6.6c-1.5-1.6-3.4-2.4-5.6-2.4c-2.2,0-4.1,0.8-5.7,2.4
	c-1.5,1.6-2.3,3.7-2.3,6.5c0,2.8,0.8,5,2.3,6.6c1.6,1.6,3.4,2.4,5.7,2.4c2.2,0,4.1-0.8,5.6-2.4C69.2,70.8,70,68.6,70,65.9z"/>
</svg>
